<svg width="751" height="1018" viewBox="0 0 751 1018" fill="none" xmlns="http://www.w3.org/2000/svg">
<path fill-rule="evenodd" clip-rule="evenodd" d="M0 1005.14C22.3923 982.235 53.2445 978.448 145.307 1007.45C200.381 1024.82 264.132 1022.03 311.64 989.412C345.855 965.903 368.974 927.784 370.832 887.267C371.5 873.485 369.798 859.702 368.096 845.918C367.027 837.255 365.957 828.592 365.476 819.928C364.228 797.479 367.745 773.296 383.201 756.481C398.142 740.468 421.656 734.109 444.341 732.235C468.812 730.205 493.451 732.539 518.078 734.871C548.129 737.717 578.163 740.561 607.851 735.473C653.453 727.716 701.309 702.078 726.337 664.401C758.853 615.271 752.206 551.313 741.524 496.158C729.107 431.4 702.621 369.208 666.339 312.951C620.114 240.97 558.045 178.66 488.283 126.298C426.305 79.8045 357.369 40.5167 282.276 18.5881C194.723 -7.12877 74.8268 -11.734 0 41.126V1005.14Z" fill="#F5F5F6"/>
</svg>
