<svg width="62" height="63" viewBox="0 0 62 63" fill="none" xmlns="http://www.w3.org/2000/svg">
<path d="M25.891 37.5995L26.5996 38.6418C27.6562 40.1957 28.2244 42.0598 28.2244 43.972C28.2244 45.1401 28.0122 46.2974 27.5994 47.3814L26.6552 49.8607H35.3447L34.4005 47.3814C33.9877 46.2974 33.7755 45.1401 33.7755 43.972C33.7755 42.0598 34.3437 40.1957 35.4003 38.6418L36.1086 37.5998" stroke="#FF543D" stroke-width="1.7" stroke-miterlimit="10" stroke-linecap="round" stroke-linejoin="round"/>
<path d="M13.1903 13.7143H6.78506C6.23077 13.7143 5.79801 14.1387 5.8495 14.6304C6.0087 16.151 6.3897 18.13 7.26091 20.1809C8.72367 23.6245 11.1171 26.2983 14.4099 28.1797" stroke="#FF543D" stroke-width="1.7" stroke-miterlimit="10" stroke-linecap="round" stroke-linejoin="round"/>
<path d="M19.7887 34.7254C9.29342 32.3728 4.73401 26.2765 2.75571 21.509C0.591513 16.2938 1.02942 11.6108 1.04906 11.414C1.15813 10.3244 2.18299 9.48912 3.41081 9.48912H13.1905" stroke="#FF543D" stroke-width="1.7" stroke-miterlimit="10" stroke-linecap="round" stroke-linejoin="round"/>
<path d="M48.8096 13.7143H55.2148C55.7691 13.7143 56.2018 14.1387 56.1503 14.6304C56.0472 15.6196 55.8705 16.6017 55.6215 17.5701" stroke="#FF543D" stroke-width="1.7" stroke-miterlimit="10" stroke-linecap="round" stroke-linejoin="round"/>
<path d="M42.2108 34.7254C52.7062 32.3729 57.2657 26.2765 59.2441 21.509C61.4082 16.2938 60.9703 11.6108 60.9507 11.414C60.8416 10.3244 59.8168 9.48912 58.589 9.48912H48.8092" stroke="#FF543D" stroke-width="1.7" stroke-miterlimit="10" stroke-linecap="round" stroke-linejoin="round"/>
<path d="M54.0835 21.5556C52.6317 24.2869 50.5185 26.4662 47.7622 28.0798" stroke="#FF543D" stroke-width="1.7" stroke-miterlimit="10" stroke-linecap="round" stroke-linejoin="round"/>
<path d="M24.2033 1.49117H49.9967C50.3291 1.4912 50.6478 1.60885 50.8828 1.81823C51.1178 2.02762 51.2498 2.31159 51.2499 2.60771V5.41105C51.2498 5.70717 51.1178 5.99114 50.8828 6.20053C50.6478 6.40991 50.3291 6.52756 49.9967 6.52759H12.0041C11.6718 6.52756 11.3531 6.40991 11.1181 6.20053C10.8831 5.99114 10.751 5.70717 10.751 5.41105V2.60771C10.751 2.31159 10.8831 2.02762 11.1181 1.81823C11.3531 1.60885 11.6718 1.4912 12.0041 1.49117H19.4387" stroke="#FF543D" stroke-width="1.7" stroke-miterlimit="10" stroke-linecap="round" stroke-linejoin="round"/>
<path d="M30.9999 38.2634C21.1641 38.2634 13.1904 31.159 13.1904 22.3955V6.52767H48.8094V22.3955C48.8094 31.159 40.8357 38.2634 30.9999 38.2634Z" stroke="#FF543D" stroke-width="1.7" stroke-miterlimit="10" stroke-linecap="round" stroke-linejoin="round"/>
<path d="M41.8181 55.6759H20.1821V52.8739C20.1821 51.2098 21.6962 49.8607 23.564 49.8607H38.4363C40.304 49.8607 41.8181 51.2098 41.8181 52.8739V55.6759Z" stroke="#FF543D" stroke-width="1.7" stroke-miterlimit="10" stroke-linecap="round" stroke-linejoin="round"/>
<path d="M46.5325 61.4912H15.4676C15.3524 61.4912 15.2384 61.471 15.132 61.4318C15.0257 61.3925 14.929 61.335 14.8476 61.2624C14.7662 61.1899 14.7016 61.1038 14.6575 61.009C14.6135 60.9142 14.5908 60.8126 14.5908 60.71V56.4571C14.5908 56.2499 14.6832 56.0512 14.8476 55.9047C15.012 55.7582 15.2351 55.6759 15.4676 55.6759H46.5325C46.6477 55.6759 46.7617 55.6961 46.868 55.7354C46.9744 55.7746 47.071 55.8322 47.1524 55.9047C47.2338 55.9773 47.2984 56.0634 47.3425 56.1582C47.3865 56.2529 47.4092 56.3545 47.4092 56.4571V60.71C47.4092 60.8126 47.3865 60.9142 47.3425 61.009C47.2984 61.1037 47.2338 61.1899 47.1524 61.2624C47.071 61.3349 46.9744 61.3925 46.868 61.4317C46.7617 61.471 46.6477 61.4912 46.5325 61.4912Z" stroke="#FF543D" stroke-width="1.7" stroke-miterlimit="10" stroke-linecap="round" stroke-linejoin="round"/>
<path d="M32.2605 15.6512L33.5636 18.0038C33.6645 18.1859 33.8136 18.3434 33.998 18.4628C34.1824 18.5822 34.3965 18.6598 34.6221 18.689L37.5361 19.0663C38.6891 19.2155 39.1495 20.478 38.3152 21.2025L36.2067 23.0338C36.0434 23.1756 35.9213 23.3506 35.8509 23.5437C35.7804 23.7368 35.7638 23.9424 35.8024 24.1425L36.3 26.7283C36.497 27.7513 35.2917 28.5316 34.2603 28.0485L31.654 26.8278C31.4523 26.7333 31.2278 26.6839 30.9999 26.6839C30.772 26.6839 30.5475 26.7333 30.3457 26.8278L27.7394 28.0485C26.7082 28.5316 25.5029 27.7513 25.6998 26.7283L26.1975 24.1425C26.2757 23.7362 26.1245 23.3216 25.7932 23.0338L23.6847 21.2025C22.8504 20.478 23.3108 19.2155 24.4638 19.0663L27.3777 18.689C27.6032 18.6598 27.8174 18.5822 28.0018 18.4628C28.1862 18.3435 28.3353 18.1859 28.4361 18.0038L29.7394 15.6512C30.255 14.7202 31.7448 14.7202 32.2605 15.6512Z" stroke="#FF543D" stroke-width="1.7" stroke-miterlimit="10" stroke-linecap="round" stroke-linejoin="round"/>
</svg>
