<svg width="62" height="62" viewBox="0 0 62 62" fill="none" xmlns="http://www.w3.org/2000/svg">
<path d="M47.1166 28.2484V32.4658" stroke="#FF543D" stroke-width="1.7" stroke-miterlimit="10" stroke-linecap="round" stroke-linejoin="round"/>
<path d="M8.2003 9.68045C13.97 5.13228 23.6888 16.5993 26.8235 3.80572C26.9055 3.01425 24.096 5.65622 22.3027 5.46667C23.1891 4.1662 23.6921 2.33786 23.5793 1.3124C23.5313 0.888741 23.5313 0.966735 23.2336 1.134C19.394 3.31888 19.086 1.63198 16.3689 1.36444C11.4308 0.877598 7.9539 3.55667 8.2003 9.68045Z" stroke="#FF543D" stroke-width="1.7" stroke-miterlimit="10" stroke-linecap="round" stroke-linejoin="round"/>
<path d="M56.0005 28.2486V32.4661" stroke="#FF543D" stroke-width="1.7" stroke-miterlimit="10" stroke-linecap="round" stroke-linejoin="round"/>
<path d="M15.6296 47.5859L13.4292 61" stroke="#FF543D" stroke-width="1.7" stroke-miterlimit="10" stroke-linecap="round" stroke-linejoin="round"/>
<path d="M22.316 47.5859L24.5166 61" stroke="#FF543D" stroke-width="1.7" stroke-miterlimit="10" stroke-linecap="round" stroke-linejoin="round"/>
<path d="M39.6801 47.5859L37.4795 61" stroke="#FF543D" stroke-width="1.7" stroke-miterlimit="10" stroke-linecap="round" stroke-linejoin="round"/>
<path d="M46.3702 47.5859L48.5672 61" stroke="#FF543D" stroke-width="1.7" stroke-miterlimit="10" stroke-linecap="round" stroke-linejoin="round"/>
<path d="M8.20007 9.68048V12.0252C8.20007 14.7749 10.6673 18.2306 13.6823 19.401C14.3461 19.6612 14.9313 19.7875 15.5165 19.7875C16.1017 19.7875 16.6869 19.6612 17.3474 19.401C20.3656 18.2306 22.833 14.7749 22.833 12.0252V9.74366" stroke="#FF543D" stroke-width="1.7" stroke-miterlimit="10" stroke-linecap="round" stroke-linejoin="round"/>
<path d="M8.65857 32.4661V27.929" stroke="#FF543D" stroke-width="1.7" stroke-miterlimit="10" stroke-linecap="round" stroke-linejoin="round"/>
<path d="M22.4023 32.4661V27.929" stroke="#FF543D" stroke-width="1.7" stroke-miterlimit="10" stroke-linecap="round" stroke-linejoin="round"/>
<path d="M19.0755 18.4499V20.6905C19.0755 22.9795 17.5013 24.8561 15.5165 24.8561C13.5316 24.8561 11.9061 22.9795 11.9061 20.6905V18.4127" stroke="#FF543D" stroke-width="1.7" stroke-miterlimit="10" stroke-linecap="round" stroke-linejoin="round"/>
<path d="M3.25476 32.4661V25.027C3.25476 22.3403 4.26426 21.7532 6.63577 20.7277L11.9059 18.4499" stroke="#FF543D" stroke-width="1.7" stroke-miterlimit="10" stroke-linecap="round" stroke-linejoin="round"/>
<path d="M27.7269 32.4661V25.027C27.7269 22.3403 26.7208 21.7532 24.3492 20.7277L19.0758 18.4499" stroke="#FF543D" stroke-width="1.7" stroke-miterlimit="10" stroke-linecap="round" stroke-linejoin="round"/>
<path d="M45.1114 22.5038H49.1222C49.2655 22.5042 49.4028 22.5662 49.5041 22.6762C49.6055 22.7863 49.6625 22.9354 49.6628 23.091V25.484C49.6628 27.0038 48.5164 28.2485 47.1168 28.2485C45.7172 28.2485 44.5707 27.0038 44.5707 25.484V23.091C44.571 22.9353 44.6281 22.7862 44.7294 22.6762C44.8307 22.5662 44.9681 22.5042 45.1114 22.5038Z" stroke="#FF543D" stroke-width="1.7" stroke-miterlimit="10" stroke-linecap="round" stroke-linejoin="round"/>
<path d="M53.9951 22.5038H58.0093C58.3035 22.5038 58.5465 22.7677 58.5465 23.091V25.484C58.5465 27.0038 57.4001 28.2485 56.0005 28.2485C54.6009 28.2485 53.4579 27.0038 53.4579 25.484V23.091C53.4579 22.7677 53.6974 22.5038 53.9951 22.5038Z" stroke="#FF543D" stroke-width="1.7" stroke-miterlimit="10" stroke-linecap="round" stroke-linejoin="round"/>
<path d="M40.0668 22.9164H32.7948" stroke="#FF543D" stroke-width="1.7" stroke-miterlimit="10" stroke-linecap="round" stroke-linejoin="round"/>
<path d="M40.0668 27.7915H32.7948" stroke="#FF543D" stroke-width="1.7" stroke-miterlimit="10" stroke-linecap="round" stroke-linejoin="round"/>
<path d="M38.3694 16.2836H34.4922V12.3002C34.4922 11.8766 34.8138 11.5272 35.2039 11.5272H37.6576C38.0478 11.5272 38.3694 11.8766 38.3694 12.3002V16.2836Z" stroke="#FF543D" stroke-width="1.7" stroke-miterlimit="10" stroke-linecap="round" stroke-linejoin="round"/>
<path d="M14.9658 43.2345H22.9805C24.0857 43.2345 24.9857 44.2117 24.9857 45.4083C24.9857 46.6048 24.0857 47.5858 22.9805 47.5858H14.9658C13.8638 47.5858 12.9604 46.6048 12.9604 45.4083C12.9604 44.2117 13.8638 43.2345 14.9658 43.2345Z" stroke="#FF543D" stroke-width="1.7" stroke-miterlimit="10" stroke-linecap="round" stroke-linejoin="round"/>
<path d="M39.016 43.2345H47.034C48.136 43.2345 49.036 44.2117 49.036 45.4083C49.036 46.6048 48.136 47.5858 47.034 47.5858H39.016C37.9141 47.5858 37.0107 46.6048 37.0107 45.4083C37.0107 44.2117 37.9141 43.2345 39.016 43.2345Z" stroke="#FF543D" stroke-width="1.7" stroke-miterlimit="10" stroke-linecap="round" stroke-linejoin="round"/>
<path d="M28.9179 38.2033L8.23129 38.1996C8.11492 38.1996 8.10465 38.2405 8.09777 38.363C8.02244 39.6673 7.06775 40.7152 5.86655 40.8118C5.72626 40.8229 5.6886 40.8935 5.6886 41.0459V52.4238C5.6886 52.5724 5.72626 52.6431 5.86655 52.6542C7.06775 52.7508 8.02244 53.7987 8.09777 55.1028C8.10465 55.2255 8.11492 55.2664 8.23129 55.2664H53.7659C53.8822 55.2664 53.8959 55.2255 53.9028 55.1028C53.9747 53.7987 54.9328 52.7508 56.1306 52.6542C56.2709 52.6431 56.3086 52.5724 56.3086 52.4238V41.0459C56.3086 40.8935 56.2709 40.8229 56.1306 40.8118C54.9328 40.7152 53.9747 39.6673 53.9028 38.363C53.8959 38.2405 53.8822 38.1996 53.7659 38.1996L33.0963 38.2033" stroke="#FF543D" stroke-width="1.7" stroke-miterlimit="10" stroke-linecap="round" stroke-linejoin="round"/>
<path d="M61 44.5128V33.2761C61 32.8302 60.6611 32.4661 60.2505 32.4661H1.74608C1.33537 32.4661 1 32.8302 1 33.2761V60.1899C1 60.6359 1.33537 61 1.74608 61H60.2505C60.6611 61 61 60.6359 61 60.1899V49.0535" stroke="#FF543D" stroke-width="1.7" stroke-miterlimit="10" stroke-linecap="round" stroke-linejoin="round"/>
<path d="M38.3694 16.2835V17.153C38.6191 18.8364 40.0669 18.3904 40.0669 21.3222V32.4661M32.7948 32.4661V21.3222C32.7948 18.3904 34.2423 18.8364 34.4922 17.153V16.2835" stroke="#FF543D" stroke-width="1.7" stroke-miterlimit="10" stroke-linecap="round" stroke-linejoin="round"/>
</svg>
