<svg width="60" height="60" viewBox="0 0 60 60" fill="none" xmlns="http://www.w3.org/2000/svg">
<path d="M54.8614 17.4463H52.3351V15.673L53.9114 13.7781C54.7288 12.7971 55.1813 11.5184 55.1803 10.1923V5.69856C55.1803 2.55636 52.8382 0 49.9595 0H47.5581C44.6793 0 42.3373 2.55648 42.3373 5.69856V10.1923C42.3364 11.5183 42.7889 12.797 43.6061 13.7781L45.1827 15.6733V17.4463H42.6563C40.202 17.4463 38.145 19.3348 37.6382 21.8504C37.377 21.81 37.1135 21.7896 36.8497 21.7892H33.8905V19.62L35.6956 17.4502C36.5971 16.3681 37.0962 14.9578 37.0952 13.4952V8.43374C37.0952 4.96318 34.5085 2.14 31.3291 2.14C30.8308 2.14 30.4271 2.58066 30.4271 3.12455C30.4271 3.66844 30.8308 4.1091 31.3291 4.1091C33.5138 4.1091 35.2912 6.04904 35.2912 8.43374V13.495C35.2919 14.4681 34.9599 15.4064 34.3601 16.1263L32.5013 18.3609C32.3741 18.4499 32.2694 18.5725 32.197 18.7173C32.1245 18.8621 32.0866 19.0245 32.0867 19.1895V22.7739C32.0867 22.9032 32.11 23.0312 32.1553 23.1507C32.2007 23.2701 32.2671 23.3787 32.3509 23.4701C32.4346 23.5615 32.5341 23.6341 32.6435 23.6835C32.7529 23.733 32.8702 23.7585 32.9887 23.7584H36.8499C38.9836 23.7584 40.7196 25.6532 40.7196 27.9823V34.1603H19.234V27.9823C19.234 26.1664 20.2894 24.6148 21.7655 24.019C21.8339 24.0031 21.9003 23.9785 21.9634 23.9457C22.3327 23.8213 22.7171 23.7581 23.1036 23.7583H26.9648C27.0832 23.7583 27.2005 23.7329 27.31 23.6834C27.4194 23.6339 27.5189 23.5614 27.6026 23.47C27.6864 23.3786 27.7528 23.27 27.7981 23.1506C27.8435 23.0311 27.8668 22.9031 27.8668 22.7738V19.1894C27.8669 19.0244 27.8289 18.862 27.7565 18.7172C27.684 18.5724 27.5794 18.4498 27.4522 18.3607L25.5933 16.1262C24.9935 15.4063 24.6614 14.468 24.662 13.4949V8.43374C24.662 6.04917 26.4393 4.1091 28.6242 4.1091C29.1223 4.1091 29.5262 3.66844 29.5262 3.12455C29.5262 2.58066 29.1223 2.14 28.6242 2.14C25.4446 2.14 22.8581 4.96331 22.8581 8.43374V13.495C22.8571 14.9576 23.3562 16.368 24.2576 17.4501L26.0626 19.6198V21.7891H23.1033C22.8513 21.7891 22.6035 21.8089 22.3601 21.844C21.8513 19.3316 19.7959 17.4463 17.3435 17.4463H14.8172V15.673L16.3935 13.7781C17.2109 12.7971 17.6634 11.5184 17.6624 10.1923V5.69856C17.6624 2.55636 15.3203 0 12.4416 0H10.0404C7.16169 0 4.8197 2.55648 4.8197 5.69856V10.1923C4.81871 11.5184 5.27121 12.7971 6.08861 13.7781L7.66501 15.6731V17.4463H5.13868C2.3052 17.4463 7.61524e-09 19.9625 7.61524e-09 23.0553V29.4147C-1.53853e-05 29.544 0.0233049 29.672 0.0686289 29.7915C0.113953 29.9109 0.180393 30.0194 0.264154 30.1109C0.347915 30.2023 0.447356 30.2748 0.556798 30.3243C0.66624 30.3738 0.783538 30.3992 0.901994 30.3992H14.9362C15.4343 30.3992 15.8382 29.9585 15.8382 29.4147C15.8382 28.8708 15.4343 28.4301 14.9362 28.4301H1.80399V23.0553C1.80399 21.0483 3.29989 19.4154 5.13868 19.4154H8.56701C8.68547 19.4154 8.80276 19.3899 8.9122 19.3405C9.02165 19.291 9.12109 19.2185 9.20485 19.1271C9.28861 19.0356 9.35505 18.9271 9.40037 18.8076C9.4457 18.6882 9.46902 18.5601 9.469 18.4308V15.2483C9.46909 15.0859 9.43231 14.9259 9.36194 14.7827C9.29158 14.6396 9.18982 14.5177 9.06576 14.4279L7.42408 12.4544C6.90844 11.8356 6.62297 11.0289 6.62357 10.1924V5.69856C6.62357 3.64209 8.15627 1.9691 10.0403 1.9691H12.4417C14.3257 1.9691 15.8585 3.64209 15.8585 5.69856V10.1923C15.8592 11.0288 15.5737 11.8355 15.058 12.4543L13.4162 14.4279C13.2922 14.5177 13.1905 14.6396 13.1202 14.7827C13.0499 14.9259 13.0131 15.0858 13.0132 15.2482V18.4307C13.0132 18.56 13.0365 18.688 13.0819 18.8075C13.1272 18.927 13.1936 19.0355 13.2774 19.1269C13.3611 19.2184 13.4606 19.2909 13.57 19.3403C13.6795 19.3898 13.7968 19.4153 13.9152 19.4153H17.3435C18.9812 19.4153 20.346 20.7109 20.625 22.4123C18.7352 23.4182 17.4299 25.5364 17.4299 27.9819V35.1444C17.4299 35.2737 17.4532 35.4018 17.4985 35.5212C17.5439 35.6407 17.6103 35.7492 17.6941 35.8406C17.7778 35.9321 17.8773 36.0046 17.9867 36.0541C18.0962 36.1035 18.2135 36.129 18.3319 36.129H41.6213C41.7398 36.129 41.8571 36.1035 41.9665 36.0541C42.076 36.0046 42.1754 35.9321 42.2592 35.8406C42.3429 35.7492 42.4094 35.6407 42.4547 35.5212C42.5 35.4018 42.5233 35.2737 42.5233 35.1444V27.9819C42.5233 25.5552 41.2374 23.4513 39.3709 22.4362C39.641 20.7232 41.0109 19.4153 42.6563 19.4153H46.0847C46.2031 19.4153 46.3204 19.3898 46.4299 19.3403C46.5393 19.2909 46.6387 19.2184 46.7225 19.1269C46.8063 19.0355 46.8727 18.927 46.918 18.8075C46.9633 18.688 46.9867 18.56 46.9867 18.4307V15.2482C46.9868 15.0857 46.95 14.9257 46.8796 14.7825C46.8092 14.6393 46.7074 14.5174 46.5833 14.4276L44.9417 12.4543C44.4261 11.8355 44.1407 11.0288 44.1413 10.1923V5.69856C44.1413 3.64209 45.674 1.9691 47.5581 1.9691H49.9595C51.8435 1.9691 53.3763 3.64209 53.3763 5.69856V10.1923C53.3769 11.0288 53.0915 11.8355 52.5758 12.4543L50.9341 14.4279C50.8101 14.5177 50.7084 14.6396 50.638 14.7827C50.5677 14.9258 50.5309 15.0858 50.531 15.2482V18.4307C50.531 18.56 50.5543 18.688 50.5996 18.8075C50.645 18.927 50.7114 19.0355 50.7952 19.1269C50.8789 19.2184 50.9784 19.2909 51.0878 19.3403C51.1972 19.3898 51.3145 19.4153 51.433 19.4153H54.8613C56.7 19.4153 58.196 21.0481 58.196 23.0552V28.43H45.219C44.7207 28.43 44.317 28.8706 44.317 29.4145C44.317 29.9584 44.7207 30.3991 45.219 30.3991H59.098C59.2165 30.3991 59.3338 30.3736 59.4432 30.3242C59.5526 30.2747 59.6521 30.2022 59.7358 30.1108C59.8196 30.0193 59.886 29.9108 59.9314 29.7913C59.9767 29.6719 60 29.5438 60 29.4145V23.0552C60.0001 19.9625 57.6949 17.4463 54.8614 17.4463ZM39.0711 48.6071C39.02 48.4353 38.9266 48.2821 38.801 48.1644C38.6755 48.0466 38.5227 47.9689 38.3594 47.9396L33.4321 47.0568L31.1403 42.2145C31.0643 42.054 30.9494 41.9195 30.808 41.8256C30.6667 41.7317 30.5044 41.6821 30.339 41.6821C30.1735 41.6821 30.0112 41.7317 29.8699 41.8256C29.7286 41.9195 29.6136 42.054 29.5376 42.2145L27.2458 47.0568L22.3185 47.9396C22.1552 47.9689 22.0024 48.0467 21.8769 48.1644C21.7514 48.2821 21.6579 48.4353 21.6068 48.6071C21.5557 48.7789 21.5488 48.9627 21.587 49.1385C21.6251 49.3143 21.7068 49.4752 21.8232 49.6037L25.3339 53.4791L24.5805 58.8668C24.5555 59.0454 24.576 59.228 24.6398 59.3947C24.7035 59.5614 24.8081 59.7057 24.942 59.8118C25.0758 59.9181 25.2339 59.982 25.3988 59.9967C25.5637 60.0114 25.7292 59.9762 25.877 59.8951L30.3387 57.4481L34.8004 59.8951C34.9483 59.9763 35.1137 60.0114 35.2786 59.9967C35.4436 59.982 35.6016 59.9181 35.7355 59.8118C35.8694 59.7057 35.9739 59.5614 36.0377 59.3947C36.1015 59.228 36.122 59.0454 36.097 58.8668L35.3435 53.4791L38.8542 49.6037C38.9707 49.4753 39.0526 49.3144 39.0909 49.1386C39.1291 48.9628 39.1223 48.7789 39.0711 48.6071ZM33.7426 52.4462C33.6437 52.5553 33.5696 52.6882 33.5262 52.8342C33.4827 52.9802 33.4711 53.1352 33.4923 53.2869L34.0507 57.2796L30.7441 55.4663C30.6184 55.3975 30.4798 55.3616 30.3391 55.3616C30.1985 55.3616 30.0599 55.3975 29.9342 55.4663L26.6276 57.2796L27.1859 53.2869C27.2071 53.1352 27.1956 52.9801 27.1521 52.8342C27.1086 52.6882 27.0345 52.5553 26.9356 52.4462L24.3336 49.574L27.9851 48.9198C28.1239 48.8949 28.2554 48.835 28.3692 48.7447C28.4829 48.6545 28.5758 48.5365 28.6403 48.4001L30.3388 44.8115L32.0373 48.4001C32.1018 48.5365 32.1947 48.6545 32.3084 48.7447C32.4222 48.8349 32.5537 48.8949 32.6924 48.9198L36.344 49.574L33.7426 52.4462ZM58.8158 41.3676C58.7647 41.1958 58.6713 41.0427 58.5458 40.9249C58.4204 40.8072 58.2676 40.7294 58.1044 40.7001L53.1771 39.8172L50.8851 34.9749C50.8091 34.8145 50.6942 34.68 50.5529 34.5861C50.4115 34.4922 50.2493 34.4425 50.0838 34.4425C49.9184 34.4425 49.7561 34.4922 49.6148 34.5861C49.4734 34.68 49.3585 34.8145 49.2825 34.9749L46.9906 39.8172L42.0632 40.7001C41.8999 40.7294 41.7472 40.8072 41.6216 40.9249C41.4961 41.0426 41.4027 41.1957 41.3515 41.3675C41.3004 41.5393 41.2935 41.7232 41.3317 41.8989C41.3698 42.0747 41.4516 42.2357 41.5679 42.3641L45.0787 46.2395L44.3252 51.6274C44.3002 51.806 44.3207 51.9886 44.3845 52.1553C44.4483 52.322 44.5528 52.4663 44.6867 52.5724C44.8206 52.6786 44.9786 52.7426 45.1435 52.7573C45.3085 52.772 45.4739 52.7368 45.6218 52.6557L50.0835 50.2087L54.5451 52.6557C54.693 52.7369 54.8584 52.7721 55.0234 52.7574C55.1883 52.7427 55.3464 52.6787 55.4802 52.5724C55.6141 52.4663 55.7187 52.322 55.7824 52.1553C55.8462 51.9886 55.8667 51.806 55.8417 51.6274L55.0882 46.2395L58.599 42.3641C58.7155 42.2358 58.7974 42.0749 58.8356 41.8991C58.8739 41.7233 58.867 41.5394 58.8158 41.3676ZM53.4873 45.2068C53.3884 45.3159 53.3143 45.4488 53.2709 45.5948C53.2274 45.7407 53.2158 45.8958 53.237 46.0475L53.7954 50.0404L50.4888 48.2271C50.3631 48.1582 50.2244 48.1223 50.0838 48.1223C49.9432 48.1223 49.8045 48.1582 49.6788 48.2271L46.3722 50.0404L46.9306 46.0475C46.9518 45.8958 46.9402 45.7407 46.8968 45.5948C46.8533 45.4488 46.7792 45.3159 46.6803 45.2068L44.0784 42.3347L47.73 41.6806C47.8687 41.6557 48.0003 41.5957 48.114 41.5055C48.2278 41.4152 48.3206 41.2972 48.3852 41.1608L50.0836 37.5722L51.7821 41.1608C51.8467 41.2972 51.9395 41.4152 52.0533 41.5054C52.167 41.5957 52.2985 41.6556 52.4373 41.6806L56.0887 42.3347L53.4873 45.2068ZM19.3265 41.3677C19.2754 41.1958 19.1819 41.0427 19.0564 40.9249C18.9308 40.8072 18.778 40.7294 18.6147 40.7001L13.6874 39.8172L11.3956 34.9749C11.3195 34.8145 11.2046 34.68 11.0632 34.5861C10.9219 34.4922 10.7596 34.4426 10.5941 34.4426C10.4287 34.4426 10.2664 34.4922 10.125 34.5861C9.98368 34.68 9.86871 34.8145 9.79268 34.9749L7.50107 39.8174L2.57379 40.7002C2.41049 40.7295 2.25772 40.8073 2.13219 40.925C2.00667 41.0427 1.91322 41.1959 1.86208 41.3677C1.81094 41.5395 1.80407 41.7233 1.84223 41.8991C1.88039 42.0748 1.96211 42.2358 2.07844 42.3643L5.58927 46.2397L4.83587 51.6275C4.81087 51.8061 4.83138 51.9887 4.89515 52.1554C4.95892 52.3221 5.06348 52.4664 5.19739 52.5725C5.33123 52.6788 5.48928 52.7427 5.65421 52.7574C5.81914 52.7721 5.98459 52.737 6.13243 52.6558L10.5941 50.2088L15.0557 52.6558C15.2035 52.737 15.369 52.7722 15.5339 52.7575C15.6989 52.7429 15.8569 52.6788 15.9907 52.5725C16.1246 52.4664 16.2292 52.3221 16.293 52.1554C16.3567 51.9887 16.3773 51.8061 16.3523 51.6275L15.5989 46.2397L19.1096 42.3643C19.2261 42.2359 19.3079 42.075 19.3462 41.8992C19.3844 41.7234 19.3776 41.5395 19.3265 41.3677ZM13.9977 45.2068C13.8988 45.3159 13.8247 45.4488 13.7813 45.5948C13.7378 45.7407 13.7262 45.8958 13.7474 46.0475L14.3057 50.0404L10.9992 48.2271C10.8736 48.158 10.7349 48.122 10.5942 48.122C10.4536 48.122 10.3149 48.158 10.1892 48.2271L6.88267 50.0404L7.44107 46.0475C7.4623 45.8958 7.45072 45.7407 7.40726 45.5947C7.36379 45.4488 7.28965 45.3159 7.19076 45.2068L4.58919 42.3347L8.24076 41.6806C8.37953 41.6556 8.51105 41.5957 8.62482 41.5054C8.7386 41.4152 8.83148 41.2972 8.89607 41.1608L10.5945 37.5722L12.2929 41.1608C12.3575 41.2972 12.4504 41.4152 12.5641 41.5054C12.6779 41.5957 12.8094 41.6556 12.9482 41.6806L16.5998 42.3347L13.9977 45.2068Z" fill="#FF543D"/>
</svg>
