<svg width="80" height="80" viewBox="0 0 80 80" fill="none" xmlns="http://www.w3.org/2000/svg">
<path d="M4.70588 21.1772C4.70568 21.6425 4.56749 22.0974 4.30878 22.4842C4.05008 22.8711 3.68247 23.1725 3.25245 23.3504C2.82243 23.5283 2.34932 23.5747 1.89293 23.4837C1.43654 23.3927 1.01738 23.1685 0.688457 22.8393C0.359532 22.5101 0.135615 22.0907 0.0450186 21.6342C-0.0455774 21.1778 0.00121829 20.7047 0.179488 20.2748C0.357758 19.845 0.659496 19.4776 1.04654 19.2192C1.43359 18.9609 1.88857 18.823 2.35393 18.8232C2.663 18.8231 2.96906 18.8839 3.2546 19.0022C3.54014 19.1205 3.79956 19.2939 4.01801 19.5125C4.23646 19.7312 4.40965 19.9907 4.52768 20.2764C4.64572 20.562 4.70627 20.8681 4.70588 21.1772V21.1772Z" fill="black"/>
<path d="M23.5291 21.1772C23.5289 21.6425 23.3907 22.0974 23.132 22.4842C22.8733 22.8711 22.5057 23.1725 22.0757 23.3504C21.6457 23.5283 21.1726 23.5747 20.7162 23.4837C20.2598 23.3927 19.8406 23.1685 19.5117 22.8393C19.1828 22.5101 18.9589 22.0907 18.8683 21.6342C18.7777 21.1778 18.8245 20.7047 19.0027 20.2748C19.181 19.845 19.4827 19.4776 19.8698 19.2192C20.2568 18.9609 20.7118 18.823 21.1772 18.8232C21.4862 18.8231 21.7923 18.8839 22.0778 19.0022C22.3634 19.1205 22.6228 19.2939 22.8412 19.5125C23.0597 19.7312 23.2329 19.9907 23.3509 20.2764C23.469 20.562 23.5295 20.8681 23.5291 21.1772Z" fill="black"/>
<path d="M42.3531 21.1772C42.3529 21.6425 42.2147 22.0974 41.956 22.4842C41.6973 22.8711 41.3297 23.1725 40.8997 23.3504C40.4697 23.5283 39.9965 23.5747 39.5401 23.4837C39.0838 23.3927 38.6646 23.1685 38.3357 22.8393C38.0068 22.5101 37.7828 22.0907 37.6922 21.6342C37.6016 21.1778 37.6484 20.7047 37.8267 20.2748C38.005 19.845 38.3067 19.4776 38.6938 19.2192C39.0808 18.9609 39.5358 18.823 40.0012 18.8232C40.3102 18.8232 40.6162 18.8841 40.9017 19.0025C41.1871 19.1208 41.4465 19.2942 41.6649 19.5128C41.8834 19.7314 42.0566 19.9909 42.1746 20.2765C42.2927 20.5621 42.3534 20.8681 42.3531 21.1772V21.1772Z" fill="black"/>
<path d="M61.1763 21.1772C61.1761 21.6425 61.038 22.0974 60.7792 22.4842C60.5205 22.8711 60.1529 23.1725 59.7229 23.3504C59.2929 23.5283 58.8198 23.5747 58.3634 23.4837C57.907 23.3927 57.4878 23.1685 57.1589 22.8393C56.83 22.5101 56.6061 22.0907 56.5155 21.6342C56.4249 21.1778 56.4717 20.7047 56.6499 20.2748C56.8282 19.845 57.13 19.4776 57.517 19.2192C57.9041 18.9609 58.359 18.823 58.8244 18.8232C59.1334 18.8232 59.4394 18.8841 59.7249 19.0025C60.0104 19.1208 60.2697 19.2942 60.4882 19.5128C60.7066 19.7314 60.8798 19.9909 60.9979 20.2765C61.116 20.5621 61.1766 20.8681 61.1763 21.1772Z" fill="black"/>
<path d="M79.9998 21.1772C79.9996 21.6425 79.8614 22.0974 79.6027 22.4842C79.344 22.8711 78.9764 23.1725 78.5464 23.3504C78.1164 23.5283 77.6433 23.5747 77.1869 23.4837C76.7305 23.3927 76.3113 23.1685 75.9824 22.8393C75.6535 22.5101 75.4296 22.0907 75.339 21.6342C75.2484 21.1778 75.2952 20.7047 75.4734 20.2748C75.6517 19.845 75.9534 19.4776 76.3405 19.2192C76.7275 18.9609 77.1825 18.823 77.6479 18.8232C77.9569 18.8232 78.2629 18.8841 78.5484 19.0025C78.8339 19.1208 79.0932 19.2942 79.3117 19.5128C79.5301 19.7314 79.7033 19.9909 79.8214 20.2765C79.9394 20.5621 80.0001 20.8681 79.9998 21.1772Z" fill="black"/>
<path d="M4.70588 2.35393C4.70568 2.8193 4.56749 3.27416 4.30878 3.66099C4.05008 4.04782 3.68247 4.34924 3.25245 4.52715C2.82243 4.70506 2.34932 4.75145 1.89293 4.66047C1.43654 4.56949 1.01738 4.34522 0.688457 4.01602C0.359532 3.68681 0.135615 3.26746 0.0450186 2.811C-0.0455774 2.35454 0.00121829 1.88146 0.179488 1.45159C0.357758 1.02172 0.659496 0.654371 1.04654 0.39599C1.43359 0.137609 1.88857 -0.000196188 2.35393 2.10626e-07C2.663 -0.000130611 2.96906 0.0606802 3.2546 0.178954C3.54014 0.297229 3.79956 0.470645 4.01801 0.68928C4.23646 0.907915 4.40965 1.16748 4.52768 1.45312C4.64572 1.73876 4.70627 2.04487 4.70588 2.35393V2.35393Z" fill="black"/>
<path d="M23.5291 2.35393C23.5289 2.8193 23.3907 3.27416 23.132 3.66099C22.8733 4.04782 22.5057 4.34924 22.0757 4.52715C21.6457 4.70506 21.1726 4.75145 20.7162 4.66047C20.2598 4.56949 19.8406 4.34522 19.5117 4.01602C19.1828 3.68681 18.9589 3.26746 18.8683 2.811C18.7777 2.35454 18.8245 1.88146 19.0027 1.45159C19.181 1.02172 19.4827 0.654371 19.8698 0.39599C20.2568 0.137609 20.7118 -0.000196188 21.1772 2.10626e-07C21.4862 -0.000130611 21.7923 0.0606802 22.0778 0.178954C22.3634 0.297229 22.6228 0.470645 22.8412 0.68928C23.0597 0.907915 23.2329 1.16748 23.3509 1.45312C23.469 1.73876 23.5295 2.04487 23.5291 2.35393Z" fill="black"/>
<path d="M42.3531 2.35394C42.3529 2.8193 42.2147 3.27416 41.956 3.66099C41.6973 4.04782 41.3297 4.34925 40.8997 4.52716C40.4697 4.70506 39.9965 4.75146 39.5401 4.66048C39.0838 4.5695 38.6646 4.34522 38.3357 4.01602C38.0068 3.68682 37.7828 3.26747 37.6922 2.811C37.6016 2.35454 37.6484 1.88146 37.8267 1.45159C38.005 1.02172 38.3067 0.654372 38.6938 0.395991C39.0808 0.13761 39.5358 -0.00019619 40.0012 2.09637e-07C40.3102 9.94154e-08 40.6162 0.0609011 40.9017 0.179222C41.1871 0.297542 41.4465 0.470963 41.6649 0.689572C41.8834 0.908181 42.0566 1.16769 42.1746 1.45327C42.2927 1.73885 42.3534 2.04491 42.3531 2.35394V2.35394Z" fill="black"/>
<path d="M61.1763 2.35393C61.1761 2.8193 61.038 3.27416 60.7792 3.66099C60.5205 4.04782 60.1529 4.34925 59.7229 4.52715C59.2929 4.70506 58.8198 4.75146 58.3634 4.66048C57.907 4.56949 57.4878 4.34522 57.1589 4.01602C56.83 3.68681 56.6061 3.26747 56.5155 2.811C56.4249 2.35454 56.4717 1.88146 56.6499 1.45159C56.8282 1.02172 57.13 0.654372 57.517 0.395991C57.9041 0.137609 58.359 -0.000196189 58.8244 2.09637e-07C59.1334 9.94153e-08 59.4394 0.0609011 59.7249 0.179222C60.0104 0.297542 60.2697 0.470963 60.4882 0.689572C60.7066 0.908181 60.8798 1.16769 60.9979 1.45327C61.116 1.73885 61.1766 2.0449 61.1763 2.35393Z" fill="black"/>
<path d="M79.9998 2.35393C79.9996 2.8193 79.8614 3.27416 79.6027 3.66099C79.344 4.04782 78.9764 4.34925 78.5464 4.52715C78.1164 4.70506 77.6433 4.75146 77.1869 4.66048C76.7305 4.56949 76.3113 4.34522 75.9824 4.01602C75.6535 3.68681 75.4296 3.26747 75.339 2.811C75.2484 2.35454 75.2952 1.88146 75.4734 1.45159C75.6517 1.02172 75.9534 0.654372 76.3405 0.395991C76.7275 0.137609 77.1825 -0.000196189 77.6479 2.09637e-07C77.9569 9.94153e-08 78.2629 0.0609011 78.5484 0.179222C78.8339 0.297542 79.0932 0.470963 79.3117 0.689572C79.5301 0.908181 79.7033 1.16769 79.8214 1.45327C79.9394 1.73885 80.0001 2.0449 79.9998 2.35393Z" fill="black"/>
<path d="M4.70588 40.0011C4.70568 40.4665 4.56749 40.9214 4.30878 41.3082C4.05008 41.695 3.68247 41.9965 3.25245 42.1744C2.82243 42.3523 2.34932 42.3987 1.89293 42.3077C1.43654 42.2167 1.01738 41.9924 0.688457 41.6632C0.359532 41.334 0.135615 40.9147 0.0450186 40.4582C-0.0455774 40.0018 0.00121829 39.5287 0.179488 39.0988C0.357758 38.6689 0.659496 38.3016 1.04654 38.0432C1.43359 37.7848 1.88857 37.647 2.35393 37.6472C2.663 37.6471 2.96906 37.7079 3.2546 37.8262C3.54014 37.9444 3.79956 38.1179 4.01801 38.3365C4.23646 38.5551 4.40965 38.8147 4.52768 39.1003C4.64572 39.386 4.70627 39.6921 4.70588 40.0011V40.0011Z" fill="black"/>
<path d="M23.5291 40.0011C23.5289 40.4665 23.3907 40.9214 23.132 41.3082C22.8733 41.695 22.5057 41.9965 22.0757 42.1744C21.6457 42.3523 21.1726 42.3987 20.7162 42.3077C20.2598 42.2167 19.8406 41.9924 19.5117 41.6632C19.1828 41.334 18.9589 40.9147 18.8683 40.4582C18.7777 40.0018 18.8245 39.5287 19.0027 39.0988C19.181 38.6689 19.4827 38.3016 19.8698 38.0432C20.2568 37.7848 20.7118 37.647 21.1772 37.6472C21.4862 37.6471 21.7923 37.7079 22.0778 37.8262C22.3634 37.9444 22.6228 38.1179 22.8412 38.3365C23.0597 38.5551 23.2329 38.8147 23.3509 39.1003C23.469 39.386 23.5295 39.6921 23.5291 40.0011Z" fill="black"/>
<path d="M42.3531 40.0012C42.3529 40.4665 42.2147 40.9214 41.956 41.3082C41.6973 41.695 41.3297 41.9965 40.8997 42.1744C40.4697 42.3523 39.9965 42.3987 39.5401 42.3077C39.0838 42.2167 38.6646 41.9924 38.3357 41.6632C38.0068 41.334 37.7828 40.9147 37.6922 40.4582C37.6016 40.0018 37.6484 39.5287 37.8267 39.0988C38.005 38.6689 38.3067 38.3016 38.6938 38.0432C39.0808 37.7848 39.5358 37.647 40.0012 37.6472C40.3102 37.6472 40.6162 37.7081 40.9017 37.8264C41.1871 37.9448 41.4465 38.1182 41.6649 38.3368C41.8834 38.5554 42.0566 38.8149 42.1746 39.1005C42.2927 39.3861 42.3534 39.6921 42.3531 40.0012V40.0012Z" fill="black"/>
<path d="M61.1763 40.0012C61.1761 40.4665 61.038 40.9214 60.7792 41.3082C60.5205 41.695 60.1529 41.9965 59.7229 42.1744C59.2929 42.3523 58.8198 42.3987 58.3634 42.3077C57.907 42.2167 57.4878 41.9924 57.1589 41.6632C56.83 41.334 56.6061 40.9147 56.5155 40.4582C56.4249 40.0018 56.4717 39.5287 56.6499 39.0988C56.8282 38.6689 57.13 38.3016 57.517 38.0432C57.9041 37.7848 58.359 37.647 58.8244 37.6472C59.1334 37.6472 59.4394 37.7081 59.7249 37.8264C60.0104 37.9448 60.2697 38.1182 60.4882 38.3368C60.7066 38.5554 60.8798 38.8149 60.9979 39.1005C61.116 39.3861 61.1766 39.6921 61.1763 40.0012Z" fill="black"/>
<path d="M79.9998 40.0012C79.9996 40.4665 79.8614 40.9214 79.6027 41.3082C79.344 41.695 78.9764 41.9965 78.5464 42.1744C78.1164 42.3523 77.6433 42.3987 77.1869 42.3077C76.7305 42.2167 76.3113 41.9924 75.9824 41.6632C75.6535 41.334 75.4296 40.9147 75.339 40.4582C75.2484 40.0018 75.2952 39.5287 75.4734 39.0988C75.6517 38.6689 75.9534 38.3016 76.3405 38.0432C76.7275 37.7848 77.1825 37.647 77.6479 37.6472C77.9569 37.6472 78.2629 37.7081 78.5484 37.8264C78.8339 37.9448 79.0932 38.1182 79.3117 38.3368C79.5301 38.5554 79.7033 38.8149 79.8214 39.1005C79.9394 39.3861 80.0001 39.6921 79.9998 40.0012Z" fill="black"/>
<path d="M4.70588 58.8244C4.70568 59.2898 4.56749 59.7446 4.30878 60.1314C4.05008 60.5183 3.68247 60.8197 3.25245 60.9976C2.82243 61.1755 2.34932 61.2219 1.89293 61.1309C1.43654 61.04 1.01738 60.8157 0.688457 60.4865C0.359532 60.1573 0.135615 59.7379 0.0450186 59.2815C-0.0455774 58.825 0.00121829 58.3519 0.179488 57.9221C0.357758 57.4922 0.659496 57.1248 1.04654 56.8664C1.43359 56.6081 1.88857 56.4703 2.35393 56.4705C2.663 56.4703 2.96906 56.5311 3.2546 56.6494C3.54014 56.7677 3.79956 56.9411 4.01801 57.1597C4.23646 57.3784 4.40965 57.6379 4.52768 57.9236C4.64572 58.2092 4.70627 58.5153 4.70588 58.8244V58.8244Z" fill="black"/>
<path d="M23.5291 58.8244C23.5289 59.2898 23.3907 59.7446 23.132 60.1314C22.8733 60.5183 22.5057 60.8197 22.0757 60.9976C21.6457 61.1755 21.1726 61.2219 20.7162 61.1309C20.2598 61.04 19.8406 60.8157 19.5117 60.4865C19.1828 60.1573 18.9589 59.7379 18.8683 59.2815C18.7777 58.825 18.8245 58.3519 19.0027 57.9221C19.181 57.4922 19.4827 57.1248 19.8698 56.8664C20.2568 56.6081 20.7118 56.4703 21.1772 56.4705C21.4862 56.4703 21.7923 56.5311 22.0778 56.6494C22.3634 56.7677 22.6228 56.9411 22.8412 57.1597C23.0597 57.3784 23.2329 57.6379 23.3509 57.9236C23.469 58.2092 23.5295 58.5153 23.5291 58.8244Z" fill="black"/>
<path d="M42.3531 58.8244C42.3529 59.2898 42.2147 59.7446 41.956 60.1315C41.6973 60.5183 41.3297 60.8197 40.8997 60.9976C40.4697 61.1755 39.9965 61.2219 39.5401 61.1309C39.0838 61.04 38.6646 60.8157 38.3357 60.4865C38.0068 60.1573 37.7828 59.7379 37.6922 59.2815C37.6016 58.825 37.6484 58.3519 37.8267 57.9221C38.005 57.4922 38.3067 57.1248 38.6938 56.8664C39.0808 56.6081 39.5358 56.4703 40.0012 56.4705C40.3102 56.4705 40.6162 56.5314 40.9017 56.6497C41.1871 56.768 41.4465 56.9414 41.6649 57.16C41.8834 57.3786 42.0566 57.6382 42.1746 57.9237C42.2927 58.2093 42.3534 58.5154 42.3531 58.8244V58.8244Z" fill="black"/>
<path d="M61.1763 58.8244C61.1761 59.2898 61.038 59.7446 60.7792 60.1314C60.5205 60.5183 60.1529 60.8197 59.7229 60.9976C59.2929 61.1755 58.8198 61.2219 58.3634 61.1309C57.907 61.04 57.4878 60.8157 57.1589 60.4865C56.83 60.1573 56.6061 59.7379 56.5155 59.2815C56.4249 58.825 56.4717 58.3519 56.6499 57.9221C56.8282 57.4922 57.13 57.1248 57.517 56.8664C57.9041 56.6081 58.359 56.4703 58.8244 56.4705C59.1334 56.4705 59.4394 56.5314 59.7249 56.6497C60.0104 56.768 60.2697 56.9414 60.4882 57.16C60.7066 57.3786 60.8798 57.6382 60.9979 57.9237C61.116 58.2093 61.1766 58.5154 61.1763 58.8244Z" fill="black"/>
<path d="M79.9998 58.8244C79.9996 59.2898 79.8614 59.7446 79.6027 60.1314C79.344 60.5183 78.9764 60.8197 78.5464 60.9976C78.1164 61.1755 77.6433 61.2219 77.1869 61.1309C76.7305 61.04 76.3113 60.8157 75.9824 60.4865C75.6535 60.1573 75.4296 59.7379 75.339 59.2815C75.2484 58.825 75.2952 58.3519 75.4734 57.9221C75.6517 57.4922 75.9534 57.1248 76.3405 56.8664C76.7275 56.6081 77.1825 56.4703 77.6479 56.4705C77.9569 56.4705 78.2629 56.5314 78.5484 56.6497C78.8339 56.768 79.0932 56.9414 79.3117 57.16C79.5301 57.3786 79.7033 57.6382 79.8214 57.9237C79.9394 58.2093 80.0001 58.5154 79.9998 58.8244Z" fill="black"/>
<path d="M4.70588 77.6479C4.70568 78.1132 4.56749 78.5681 4.30878 78.9549C4.05008 79.3418 3.68247 79.6432 3.25245 79.8211C2.82243 79.999 2.34932 80.0454 1.89293 79.9544C1.43654 79.8634 1.01738 79.6392 0.688457 79.31C0.359532 78.9808 0.135615 78.5614 0.0450186 78.1049C-0.0455774 77.6485 0.00121829 77.1754 0.179488 76.7455C0.357758 76.3157 0.659496 75.9483 1.04654 75.6899C1.43359 75.4316 1.88857 75.2937 2.35393 75.2939C2.663 75.2938 2.96906 75.3546 3.2546 75.4729C3.54014 75.5912 3.79956 75.7646 4.01801 75.9832C4.23646 76.2019 4.40965 76.4614 4.52768 76.7471C4.64572 77.0327 4.70627 77.3388 4.70588 77.6479V77.6479Z" fill="black"/>
<path d="M23.5291 77.6479C23.5289 78.1132 23.3907 78.5681 23.132 78.9549C22.8733 79.3418 22.5057 79.6432 22.0757 79.8211C21.6457 79.999 21.1726 80.0454 20.7162 79.9544C20.2598 79.8634 19.8406 79.6392 19.5117 79.31C19.1828 78.9808 18.9589 78.5614 18.8683 78.1049C18.7777 77.6485 18.8245 77.1754 19.0027 76.7455C19.181 76.3157 19.4827 75.9483 19.8698 75.6899C20.2568 75.4316 20.7118 75.2937 21.1772 75.2939C21.4862 75.2938 21.7923 75.3546 22.0778 75.4729C22.3634 75.5912 22.6228 75.7646 22.8412 75.9832C23.0597 76.2019 23.2329 76.4614 23.3509 76.7471C23.469 77.0327 23.5295 77.3388 23.5291 77.6479Z" fill="black"/>
<path d="M42.3531 77.6479C42.3529 78.1132 42.2147 78.5681 41.956 78.9549C41.6973 79.3418 41.3297 79.6432 40.8997 79.8211C40.4697 79.999 39.9965 80.0454 39.5401 79.9544C39.0838 79.8634 38.6646 79.6392 38.3357 79.31C38.0068 78.9808 37.7828 78.5614 37.6922 78.1049C37.6016 77.6485 37.6484 77.1754 37.8267 76.7455C38.005 76.3157 38.3067 75.9483 38.6938 75.6899C39.0808 75.4316 39.5358 75.2937 40.0012 75.2939C40.3102 75.2939 40.6162 75.3548 40.9017 75.4732C41.1871 75.5915 41.4465 75.7649 41.6649 75.9835C41.8834 76.2021 42.0566 76.4616 42.1746 76.7472C42.2927 77.0328 42.3534 77.3389 42.3531 77.6479V77.6479Z" fill="black"/>
<path d="M61.1763 77.6479C61.1761 78.1132 61.038 78.5681 60.7792 78.9549C60.5205 79.3418 60.1529 79.6432 59.7229 79.8211C59.2929 79.999 58.8198 80.0454 58.3634 79.9544C57.907 79.8634 57.4878 79.6392 57.1589 79.31C56.83 78.9808 56.6061 78.5614 56.5155 78.1049C56.4249 77.6485 56.4717 77.1754 56.6499 76.7455C56.8282 76.3157 57.13 75.9483 57.517 75.6899C57.9041 75.4316 58.359 75.2937 58.8244 75.2939C59.1334 75.2939 59.4394 75.3548 59.7249 75.4732C60.0104 75.5915 60.2697 75.7649 60.4882 75.9835C60.7066 76.2021 60.8798 76.4616 60.9979 76.7472C61.116 77.0328 61.1766 77.3389 61.1763 77.6479Z" fill="black"/>
<path d="M79.9998 77.6479C79.9996 78.1132 79.8614 78.5681 79.6027 78.9549C79.344 79.3418 78.9764 79.6432 78.5464 79.8211C78.1164 79.999 77.6433 80.0454 77.1869 79.9544C76.7305 79.8634 76.3113 79.6392 75.9824 79.31C75.6535 78.9808 75.4296 78.5614 75.339 78.1049C75.2484 77.6485 75.2952 77.1754 75.4734 76.7455C75.6517 76.3157 75.9534 75.9483 76.3405 75.6899C76.7275 75.4316 77.1825 75.2937 77.6479 75.2939C77.9569 75.2939 78.2629 75.3548 78.5484 75.4732C78.8339 75.5915 79.0932 75.7649 79.3117 75.9835C79.5301 76.2021 79.7033 76.4616 79.8214 76.7472C79.9394 77.0328 80.0001 77.3389 79.9998 77.6479Z" fill="black"/>
</svg>
