<svg width="35" height="35" viewBox="0 0 35 35" fill="none" xmlns="http://www.w3.org/2000/svg">
<path d="M32.1447 34.3898C27.5108 37.1736 17.8938 29.5579 14.5268 29.0616C7.92308 28.1092 -1.67122 31.2963 0.249422 24.8875C1.13427 21.9189 3.64098 17.561 4.3236 15.2453C5.71844 10.5344 -2.38741 4.71729 1.87312 1.37427C6.1149 -1.94 12.0371 1.73786 17.4953 2.08017C21.0924 2.32672 24.3759 0.961782 27.8711 0.678564C30.2713 0.496584 33.0216 2.11008 32.4239 4.50125C28.7618 19.2047 39.9979 29.6539 32.1447 34.3898Z" fill="white"/>
<path d="M15.5826 24H18.6261V16.4096H20.7565L21 13.8795H18.6261C18.6261 13.8795 18.6261 12.9157 18.6261 12.4337C18.6261 11.8313 18.7478 11.5904 19.3565 11.5904C19.8435 11.5904 21 11.5904 21 11.5904V9C21 9 19.2348 9 18.8696 9C16.6174 9 15.5826 9.96386 15.5826 11.8916C15.5826 13.5181 15.5826 13.9398 15.5826 13.9398H14V16.5301H15.5826V24Z" fill="#FF543D"/>
</svg>
