<svg width="54" height="80" viewBox="0 0 54 80" fill="none" xmlns="http://www.w3.org/2000/svg">
<path d="M20.7611 28.1027L18.0634 24.777C17.5089 24.091 17.2073 23.2484 17.2058 22.3808V9.39062C17.6141 9.09562 17.8797 8.62859 17.8797 8.10219V5.08531C17.8797 4.55875 17.6141 4.09188 17.2058 3.79688V2.25469C17.2058 1.01141 16.1497 0 14.8516 0H8.78953C7.49137 0 6.43532 1.01141 6.43532 2.25469V3.79688C6.02697 4.09188 5.76136 4.55891 5.76136 5.08531V8.10219C5.76136 8.62875 6.02697 9.09562 6.43532 9.39062V22.3808C6.4338 23.2484 6.1322 24.091 5.57766 24.777L2.88003 28.1028C1.02293 30.3925 0 33.2502 0 36.1497V49.3225C0 49.6334 0.128966 49.9316 0.358528 50.1515C0.588089 50.3713 0.899442 50.4948 1.22409 50.4948C1.54874 50.4948 1.86009 50.3713 2.08965 50.1515C2.31921 49.9316 2.44818 49.6334 2.44818 49.3225V36.1497C2.44818 33.7686 3.28806 31.4217 4.81332 29.5414L7.51095 26.2156C8.39834 25.1178 8.88095 23.7693 8.88334 22.3809V9.71703H14.7574V22.3808C14.7599 23.7691 15.2425 25.1176 16.1298 26.2155L18.8273 29.5412C20.3524 31.4216 21.1924 33.7686 21.1924 36.1495V41.027H11.1819C9.39236 41.027 7.9366 42.4212 7.9366 44.1352V57.8516C7.9366 59.5655 9.39236 60.9597 11.1819 60.9597H21.1924V76.6105C21.1921 76.8874 21.0771 77.1529 20.8726 77.3487C20.6682 77.5445 20.3909 77.6547 20.1018 77.655H3.53914C3.24998 77.6547 2.97275 77.5446 2.76828 77.3487C2.56381 77.1529 2.44881 76.8874 2.44851 76.6105V54.7773C2.44851 54.4664 2.31954 54.1682 2.08998 53.9484C1.86042 53.7285 1.54907 53.605 1.22442 53.605C0.899768 53.605 0.588415 53.7285 0.358854 53.9484C0.129292 54.1682 0.000327359 54.4664 0.000327359 54.7773V76.6105C0.000327359 78.4794 1.58791 79.9998 3.5393 79.9998H20.1021C22.0535 79.9998 23.6411 78.4794 23.6411 76.6105V36.1495C23.6411 33.2502 22.6183 30.3925 20.7611 28.1027ZM8.8835 2.34453H14.7576V3.47031H8.8835V2.34453ZM15.4316 7.37234H8.20971V5.81516H15.4316V7.37234ZM21.1928 58.615H11.1822C10.9709 58.6148 10.7683 58.5343 10.6189 58.3912C10.4695 58.2481 10.3855 58.0541 10.3853 57.8517V44.1353C10.3855 43.9329 10.4695 43.7389 10.6189 43.5958C10.7683 43.4527 10.9709 43.3722 11.1822 43.372H21.1928V58.615ZM53.9978 46.5348C53.9942 46.2683 53.9856 46.0019 53.9719 45.7356C53.9583 45.4715 53.9402 45.2075 53.9177 44.9439L53.917 44.9339L53.9164 44.9291C53.4677 39.7083 51.362 34.6595 51.2382 34.3667C51.1467 34.1503 50.9899 33.9649 50.7877 33.8344C50.5855 33.7039 50.3473 33.6342 50.1035 33.6342H32.676C32.4322 33.6342 32.1939 33.7039 31.9918 33.8344C31.7896 33.9649 31.6328 34.1503 31.5413 34.3667C31.4175 34.6595 29.3118 39.7087 28.8631 44.9297L28.8624 44.9339L28.8618 44.9427C28.8393 45.2072 28.821 45.4722 28.8075 45.737L28.8021 45.8528C28.7916 46.0808 28.7847 46.3089 28.7815 46.537C28.781 46.5778 28.7801 46.6191 28.7797 46.6597C28.7779 46.8994 28.7804 47.1384 28.7877 47.3763C28.7887 47.408 28.7903 47.4391 28.7915 47.4706C28.7995 47.6902 28.8114 47.9088 28.8279 48.1258C28.8305 48.1608 28.8334 48.1956 28.8363 48.2306C28.8538 48.4428 28.8755 48.6534 28.9016 48.8623L28.9122 48.9472C28.9401 49.16 28.9729 49.3711 29.0106 49.5798C29.0138 49.598 29.0168 49.6164 29.0202 49.6344C29.0599 49.8489 29.1049 50.0612 29.1555 50.2708L29.1612 50.2953C29.2134 50.5094 29.2713 50.7206 29.3356 50.9284C31.0793 56.5648 36.2005 58.9594 39.0979 59.885C39.3748 59.9734 39.657 60.0455 39.943 60.1008C40.017 60.1152 40.0912 60.1273 40.1656 60.1394V73.8908C39.947 73.8908 39.7325 73.9469 39.5442 74.0531L33.5009 77.4631C33.2323 77.6153 33.0233 77.8476 32.9058 78.1244C32.7883 78.4012 32.7688 78.7073 32.8504 78.9958C32.933 79.284 33.112 79.5382 33.3599 79.7196C33.6079 79.901 33.9111 79.9995 34.2231 80H48.556C48.8681 79.9995 49.1713 79.901 49.4193 79.7196C49.6672 79.5382 49.8462 79.284 49.9288 78.9958C50.0104 78.7073 49.9909 78.4012 49.8735 78.1244C49.756 77.8475 49.5469 77.6152 49.2783 77.4631L43.235 74.0533C43.0467 73.947 42.8322 73.891 42.6136 73.8909V60.1395C42.9758 60.081 43.3328 59.996 43.6814 59.8852C45.0148 59.4591 46.8192 58.7206 48.5487 57.4995C50.5771 56.0673 52.5026 53.9709 53.4438 50.9286L53.4441 50.9273C53.5085 50.7185 53.5665 50.5079 53.618 50.2958C53.6201 50.2873 53.6219 50.2786 53.6239 50.27C53.6743 50.0609 53.7192 49.8492 53.7588 49.6352C53.7622 49.6166 53.7653 49.5977 53.7686 49.5789C53.8061 49.3708 53.8387 49.1605 53.8666 48.9483L53.8776 48.8609C53.9035 48.6528 53.9252 48.443 53.9427 48.2317L53.9513 48.1248C53.9676 47.9087 53.9795 47.6911 53.9875 47.4727C53.9887 47.44 53.9905 47.408 53.9914 47.3752C53.9988 47.1381 54.0012 46.8998 53.9994 46.6609C53.9993 46.6191 53.9985 46.5767 53.9978 46.5348ZM44.796 77.6552H37.9835L40.1679 76.4225H42.6113L44.796 77.6552ZM51.2194 49.8228C51.1819 49.9714 51.1413 50.118 51.0966 50.2622C49.6681 54.8792 45.3523 56.8794 42.9069 57.6606C42.8103 57.6914 42.7121 57.7169 42.6139 57.7416H40.1657C40.0672 57.7176 39.9696 57.6906 39.8729 57.6606C37.4273 56.8794 33.1116 54.8792 31.6831 50.2622C31.6383 50.1167 31.5973 49.9702 31.5602 49.8228C31.2986 48.7836 31.1902 47.5712 31.2367 46.2033H35.4066C35.7312 46.2033 36.0426 46.0798 36.2722 45.8599C36.5017 45.6401 36.6307 45.3419 36.6307 45.0309C36.6307 44.72 36.5017 44.4218 36.2722 44.202C36.0426 43.9821 35.7312 43.8586 35.4066 43.8586H31.4454C31.9139 40.525 33.0028 37.3636 33.5235 35.9791H49.2556C49.7766 37.3641 50.8654 40.5253 51.3339 43.8586H41.1071C40.7824 43.8586 40.4711 43.9821 40.2415 44.202C40.012 44.4218 39.883 44.72 39.883 45.0309C39.883 45.3419 40.012 45.6401 40.2415 45.8599C40.4711 46.0798 40.7824 46.2033 41.1071 46.2033H51.5428C51.5894 47.5712 51.4811 48.7836 51.2194 49.8228Z" fill="#FF543D"/>
</svg>
