<svg width="35" height="35" viewBox="0 0 35 35" fill="none" xmlns="http://www.w3.org/2000/svg">
<path d="M32.1447 34.3898C27.5108 37.1736 17.8938 29.5579 14.5268 29.0616C7.92308 28.1092 -1.67122 31.2963 0.249422 24.8875C1.13427 21.9189 3.64098 17.561 4.3236 15.2453C5.71844 10.5344 -2.38741 4.71729 1.87312 1.37427C6.1149 -1.94 12.0371 1.73786 17.4953 2.08017C21.0924 2.32672 24.3759 0.961782 27.8711 0.678564C30.2713 0.496584 33.0216 2.11008 32.4239 4.50125C28.7618 19.2047 39.9979 29.6539 32.1447 34.3898Z" fill="white"/>
<path d="M17.5227 11.2123C19.2546 11.2123 19.4855 11.2123 20.1782 11.27C20.8132 11.3277 21.1596 11.3855 21.3905 11.5009C21.6791 11.6164 21.91 11.7318 22.1409 11.9627C22.3718 12.1936 22.4873 12.4246 22.6028 12.7132C22.7182 12.9441 22.7759 13.2905 22.8337 13.9255C22.8914 14.6182 22.8914 14.7914 22.8914 16.5809C22.8914 18.3128 22.8914 18.5437 22.8337 19.2364C22.7759 19.8714 22.7182 20.2178 22.6028 20.4487C22.4873 20.7373 22.3718 20.9682 22.1409 21.1992C21.91 21.4301 21.6791 21.5455 21.3905 21.661C21.1596 21.7764 20.8132 21.8342 20.1782 21.8919C19.4855 21.9496 19.3123 21.9496 17.5227 21.9496C15.7909 21.9496 15.56 21.9496 14.8673 21.8919C14.2323 21.8342 13.8859 21.7764 13.655 21.661C13.3663 21.5455 13.1354 21.4301 12.9045 21.1992C12.6736 20.9682 12.5582 20.7373 12.4427 20.4487C12.3272 20.2178 12.2695 19.8714 12.2118 19.2364C12.1541 18.5437 12.1541 18.3705 12.1541 16.5809C12.1541 14.8491 12.1541 14.6182 12.2118 13.9255C12.2695 13.2905 12.3272 12.9441 12.4427 12.7132C12.5582 12.4246 12.6736 12.1936 12.9045 11.9627C13.1354 11.7318 13.3663 11.6164 13.655 11.5009C13.8859 11.3855 14.2323 11.3277 14.8673 11.27C15.6177 11.2123 15.7909 11.2123 17.5227 11.2123ZM17.5227 10C15.7332 10 15.5023 10 14.8095 10.0577C14.1168 10.1155 13.655 10.1732 13.2509 10.3464C12.8468 10.5195 12.4427 10.7505 12.0963 11.0968C11.75 11.4432 11.5191 11.8473 11.3459 12.2514C11.1727 12.6555 11.0572 13.1173 11.0572 13.81C10.9995 14.5028 10.9995 14.7337 10.9995 16.5232C10.9995 18.3128 10.9995 18.5437 11.0572 19.2364C11.115 19.9291 11.1727 20.391 11.3459 20.7951C11.5191 21.1992 11.75 21.6032 12.0963 21.9496C12.4427 22.296 12.8468 22.5269 13.2509 22.7001C13.655 22.8733 14.1168 22.9887 14.8095 22.9887C15.5023 23.0464 15.7332 23.0464 17.5227 23.0464C19.3123 23.0464 19.5432 23.0464 20.2359 22.9887C20.9287 22.931 21.3905 22.8733 21.7946 22.7001C22.1987 22.5269 22.6028 22.296 22.9491 21.9496C23.2955 21.6032 23.5264 21.1992 23.6996 20.7951C23.8728 20.391 23.9882 19.9291 23.9882 19.2364C24.0459 18.5437 24.0459 18.3128 24.0459 16.5232C24.0459 14.7337 24.0459 14.5028 23.9882 13.81C23.9305 13.1173 23.8728 12.6555 23.6996 12.2514C23.5264 11.8473 23.2955 11.4432 22.9491 11.0968C22.6028 10.7505 22.1987 10.5195 21.7946 10.3464C21.3905 10.1732 20.9287 10.0577 20.2359 10.0577C19.5432 10 19.3123 10 17.5227 10Z" fill="#FF543D"/>
<path d="M17.5229 13.1714C15.6756 13.1714 14.1747 14.6723 14.1747 16.5196C14.1747 18.3669 15.6756 19.8678 17.5229 19.8678C19.3702 19.8678 20.8711 18.3669 20.8711 16.5196C20.8711 14.6723 19.4279 13.1714 17.5229 13.1714ZM17.5229 18.7132C16.3106 18.7132 15.3292 17.7319 15.3292 16.5196C15.3292 15.3073 16.3106 14.3259 17.5229 14.3259C18.7352 14.3259 19.7165 15.3073 19.7165 16.5196C19.7165 17.7319 18.7352 18.7132 17.5229 18.7132Z" fill="#FF543D"/>
<path d="M21.7969 13.0567C21.7969 13.4608 21.4505 13.8649 20.9887 13.8649C20.5846 13.8649 20.1805 13.5185 20.1805 13.0567C20.1805 12.6526 20.5269 12.2485 20.9887 12.2485C21.4505 12.2485 21.7969 12.5949 21.7969 13.0567Z" fill="#FF543D"/>
</svg>
