<svg width="35" height="35" viewBox="0 0 35 35" fill="none" xmlns="http://www.w3.org/2000/svg">
<path d="M32.1447 34.3898C27.5108 37.1736 17.8938 29.5579 14.5268 29.0616C7.92308 28.1092 -1.67122 31.2963 0.249422 24.8875C1.13427 21.9189 3.64098 17.561 4.3236 15.2453C5.71844 10.5344 -2.38741 4.71729 1.87312 1.37427C6.1149 -1.94 12.0371 1.73786 17.4953 2.08017C21.0924 2.32672 24.3759 0.961782 27.8711 0.678564C30.2713 0.496584 33.0216 2.11008 32.4239 4.50125C28.7618 19.2047 39.9979 29.6539 32.1447 34.3898Z" fill="white"/>
<path d="M14.0899 14.4683H11.2637V23.5385H14.0899V14.4683Z" fill="#FF543D"/>
<path d="M12.6432 13.2863C13.5506 13.2863 14.2863 12.5506 14.2863 11.6432C14.2863 10.7357 13.5506 10 12.6432 10C11.7357 10 11 10.7357 11 11.6432C11 12.5506 11.7357 13.2863 12.6432 13.2863Z" fill="#FF543D"/>
<path d="M18.559 18.739C18.559 17.4902 19.1505 16.7015 20.2678 16.7015C21.3195 16.7015 21.7796 17.4245 21.7796 18.739C21.7796 20.0535 21.7796 23.4713 21.7796 23.4713H24.54C24.54 23.4713 24.54 20.185 24.54 17.7531C24.54 15.3213 23.1598 14.1382 21.2537 14.1382C19.3477 14.1382 18.4932 15.6499 18.4932 15.6499V14.4011H15.7985V23.4713H18.4932C18.559 23.537 18.559 20.185 18.559 18.739Z" fill="#FF543D"/>
</svg>
