<svg width="16" height="20" viewBox="0 0 16 20" fill="none" xmlns="http://www.w3.org/2000/svg">
<path d="M8 0C3.58857 0 0 3.57326 0 7.96586C0 10.6401 1.29714 13.4651 3.85714 16.3613C5.73429 18.4893 7.58857 19.835 7.66572 19.8919C7.76572 19.963 7.88286 20 8 20C8.11714 20 8.23429 19.963 8.33429 19.8919C8.41143 19.835 10.2657 18.4893 12.1429 16.3613C14.7029 13.4651 16 10.6401 16 7.96586C16 3.57326 12.4114 0 8 0ZM8 18.7141C6.58 17.5932 1.14286 12.9787 1.14286 7.96586C1.14286 4.20199 4.22 1.13798 8 1.13798C11.78 1.13798 14.8571 4.20199 14.8571 7.96586C14.8571 12.9787 9.42 17.5932 8 18.7141Z" fill="#FF543D"/>
<path d="M8.00004 4.16785C6.26575 4.16785 4.85718 5.57041 4.85718 7.29729C4.85718 9.02418 6.26575 10.4267 8.00004 10.4267C9.73432 10.4267 11.1429 9.02418 11.1429 7.29729C11.1429 5.57041 9.73432 4.16785 8.00004 4.16785ZM8.00004 9.28876C6.89718 9.28876 6.00003 8.39544 6.00003 7.29729C6.00003 6.19914 6.89718 5.30583 8.00004 5.30583C9.10289 5.30583 10 6.19914 10 7.29729C10 8.39544 9.10289 9.28876 8.00004 9.28876Z" fill="#FF543D"/>
</svg>
