<svg width="58" height="84" viewBox="0 0 58 84" fill="none" xmlns="http://www.w3.org/2000/svg">
<path d="M16.1943 2.00005H8.54967C8.274 2.00005 8.00962 2.1052 7.81469 2.29235C7.61976 2.47951 7.51025 2.73336 7.51025 2.99804V7.159C7.51025 7.42368 7.61976 7.67752 7.81469 7.86468C8.00962 8.05184 8.274 8.15698 8.54967 8.15698H16.1943C16.3308 8.157 16.466 8.13121 16.5921 8.08106C16.7182 8.03092 16.8328 7.95741 16.9294 7.86474C17.0259 7.77206 17.1025 7.66204 17.1547 7.54095C17.207 7.41985 17.2339 7.29007 17.2339 7.159V2.99804C17.2339 2.86697 17.207 2.73718 17.1547 2.61609C17.1025 2.495 17.0259 2.38497 16.9294 2.2923C16.8328 2.19962 16.7182 2.12612 16.5921 2.07597C16.466 2.02583 16.3308 2.00003 16.1943 2.00005Z" stroke="#FF543D" stroke-width="2.3" stroke-miterlimit="10" stroke-linecap="round" stroke-linejoin="round"/>
<path d="M15.9729 8.15694H8.77067V23.499C8.77067 23.8237 8.74653 24.1448 8.70361 24.4619C9.76983 25.2055 11.0542 25.6051 12.3719 25.6035C13.6896 25.6051 14.9739 25.2054 16.0401 24.4619C15.9961 24.1427 15.9736 23.8211 15.9729 23.499" stroke="#FF543D" stroke-width="2.3" stroke-miterlimit="10" stroke-linecap="round" stroke-linejoin="round"/>
<path d="M16.4128 50.4458H8.33042C8.09491 50.4459 7.86906 50.5357 7.70253 50.6956C7.536 50.8555 7.44243 51.0723 7.44238 51.2984V65.3947C7.44243 65.6208 7.536 65.8376 7.70253 65.9975C7.86906 66.1574 8.09491 66.2473 8.33042 66.2473H16.4128C16.6483 66.2473 16.8741 66.1575 17.0407 65.9976C17.2072 65.8377 17.3008 65.6208 17.3008 65.3947V51.2984C17.3008 51.1865 17.2778 51.0756 17.2332 50.9722C17.1886 50.8687 17.1231 50.7747 17.0407 50.6955C16.9582 50.6164 16.8603 50.5536 16.7526 50.5107C16.6448 50.4679 16.5294 50.4458 16.4128 50.4458Z" stroke="#FF543D" stroke-width="2.3" stroke-miterlimit="10" stroke-linecap="round" stroke-linejoin="round"/>
<path d="M35.1896 55.8714C35.1896 58.0497 33.3503 59.8157 31.0817 59.8157C28.8129 59.8157 26.9736 58.0497 26.9736 55.8714C26.9736 53.693 28.8129 51.9272 31.0817 51.9272C33.3503 51.9272 35.1896 53.693 35.1896 55.8714Z" stroke="#FF543D" stroke-width="2.3" stroke-miterlimit="10" stroke-linecap="round" stroke-linejoin="round"/>
<path d="M31.0814 47.9827C31.0814 50.161 29.2421 51.927 26.9733 51.927C24.7045 51.927 22.8652 50.161 22.8652 47.9827C22.8652 45.8044 24.7045 44.0384 26.9733 44.0384C29.2421 44.0384 31.0814 45.8044 31.0814 47.9827Z" stroke="#FF543D" stroke-width="2.3" stroke-miterlimit="10" stroke-linecap="round" stroke-linejoin="round"/>
<path d="M39.2975 47.9827C39.2975 50.161 37.4582 51.927 35.1894 51.927C32.9208 51.927 31.0815 50.161 31.0815 47.9827C31.0815 45.8044 32.9208 44.0384 35.1894 44.0384C37.4582 44.0384 39.2975 45.8044 39.2975 47.9827Z" stroke="#FF543D" stroke-width="2.3" stroke-miterlimit="10" stroke-linecap="round" stroke-linejoin="round"/>
<path d="M31.0814 32.2058C31.0814 34.3841 29.2421 36.1499 26.9733 36.1499C24.7045 36.1499 22.8652 34.3841 22.8652 32.2058C22.8652 30.0274 24.7045 28.2615 26.9733 28.2615C29.2421 28.2615 31.0814 30.0274 31.0814 32.2058Z" stroke="#FF543D" stroke-width="2.3" stroke-miterlimit="10" stroke-linecap="round" stroke-linejoin="round"/>
<path d="M39.2975 32.2058C39.2975 34.3841 37.4582 36.1499 35.1894 36.1499C32.9208 36.1499 31.0815 34.3841 31.0815 32.2058C31.0815 30.0274 32.9208 28.2615 35.1894 28.2615C37.4582 28.2615 39.2975 30.0274 39.2975 32.2058Z" stroke="#FF543D" stroke-width="2.3" stroke-miterlimit="10" stroke-linecap="round" stroke-linejoin="round"/>
<path d="M26.9734 40.0942C26.9734 42.2725 25.1342 44.0383 22.8654 44.0383C20.5966 44.0383 18.7573 42.2725 18.7573 40.0942C18.7573 37.9158 20.5966 36.1499 22.8654 36.1499C25.1342 36.1499 26.9734 37.9158 26.9734 40.0942Z" stroke="#FF543D" stroke-width="2.3" stroke-miterlimit="10" stroke-linecap="round" stroke-linejoin="round"/>
<path d="M35.1896 40.0942C35.1896 42.2725 33.3503 44.0383 31.0817 44.0383C28.8129 44.0383 26.9736 42.2725 26.9736 40.0942C26.9736 37.9158 28.8129 36.1499 31.0817 36.1499C33.3503 36.1499 35.1896 37.9158 35.1896 40.0942Z" stroke="#FF543D" stroke-width="2.3" stroke-miterlimit="10" stroke-linecap="round" stroke-linejoin="round"/>
<path d="M43.4056 40.0942C43.4056 42.2725 41.5663 44.0383 39.2975 44.0383C37.0287 44.0383 35.1895 42.2725 35.1895 40.0942C35.1895 37.9158 37.0287 36.1499 39.2975 36.1499C41.5663 36.1499 43.4056 37.9158 43.4056 40.0942Z" stroke="#FF543D" stroke-width="2.3" stroke-miterlimit="10" stroke-linecap="round" stroke-linejoin="round"/>
<path d="M43.4056 55.8714C43.4056 58.0497 41.5663 59.8157 39.2975 59.8157C37.0287 59.8157 35.1895 58.0497 35.1895 55.8714C35.1895 53.693 37.0287 51.9272 39.2975 51.9272C41.5663 51.9272 43.4056 53.693 43.4056 55.8714Z" stroke="#FF543D" stroke-width="2.3" stroke-miterlimit="10" stroke-linecap="round" stroke-linejoin="round"/>
<path d="M47.5135 47.9827C47.5135 50.161 45.6742 51.927 43.4054 51.927C41.1366 51.927 39.2974 50.161 39.2974 47.9827C39.2974 45.8044 41.1366 44.0384 43.4054 44.0384C45.6742 44.0384 47.5135 45.8044 47.5135 47.9827Z" stroke="#FF543D" stroke-width="2.3" stroke-miterlimit="10" stroke-linecap="round" stroke-linejoin="round"/>
<path d="M47.5135 32.2058C47.5135 34.3841 45.6742 36.1499 43.4054 36.1499C41.1366 36.1499 39.2974 34.3841 39.2974 32.2058C39.2974 30.0274 41.1366 28.2615 43.4054 28.2615C45.6742 28.2615 47.5135 30.0274 47.5135 32.2058Z" stroke="#FF543D" stroke-width="2.3" stroke-miterlimit="10" stroke-linecap="round" stroke-linejoin="round"/>
<path d="M51.6214 40.0942C51.6214 42.2725 49.7821 44.0383 47.5133 44.0383C45.2445 44.0383 43.4053 42.2725 43.4053 40.0942C43.4053 37.9158 45.2445 36.1499 47.5133 36.1499C49.7821 36.1499 51.6214 37.9158 51.6214 40.0942Z" stroke="#FF543D" stroke-width="2.3" stroke-miterlimit="10" stroke-linecap="round" stroke-linejoin="round"/>
<path d="M35.1898 28.2615C35.1898 28.2615 35.1898 18.5124 24.1152 14.0323" stroke="#FF543D" stroke-width="2.3" stroke-miterlimit="10" stroke-linecap="round" stroke-linejoin="round"/>
<path d="M30.2412 17.8788C30.2412 17.8788 36.1019 19.5858 41.5784 16.4739" stroke="#FF543D" stroke-width="2.3" stroke-miterlimit="10" stroke-linecap="round" stroke-linejoin="round"/>
<path d="M32.9034 21.147C32.9034 21.147 32.4552 22.9258 29.9824 24.3342" stroke="#FF543D" stroke-width="2.3" stroke-miterlimit="10" stroke-linecap="round" stroke-linejoin="round"/>
<path d="M37.9905 10.765C37.9627 10.8423 37.9172 10.9126 37.8574 10.9707C37.7976 11.0289 37.7249 11.0734 37.6448 11.101C37.5646 11.1287 37.4791 11.1387 37.3944 11.1303C37.3097 11.122 37.228 11.0955 37.1554 11.0528L36.4781 10.6553C36.1562 10.4664 35.7314 10.624 35.6325 10.9736C34.7606 14.0524 35.8483 15.9539 36.6899 16.8917C37.1275 17.3786 37.3657 18.0018 37.36 18.6449C37.3502 19.8828 37.8019 22.0083 40.5413 23.8145C40.8522 24.0196 41.2823 23.8762 41.4005 23.532L41.6491 22.8083C41.6757 22.7307 41.7201 22.6597 41.7791 22.6007C41.838 22.5418 41.91 22.4962 41.9897 22.4675C42.0694 22.4388 42.1548 22.4276 42.2396 22.4347C42.3245 22.4419 42.4065 22.4673 42.4798 22.5089C43.7609 23.2355 47.0536 24.4283 51.6691 21.2431C51.9756 21.0314 51.9901 20.5976 51.6959 20.3705L50.2018 19.2167C49.8924 18.9778 49.9245 18.5138 50.267 18.3209C51.4164 17.6742 53.6938 16.0096 55.8368 12.1865C56.2248 11.4944 55.8932 10.6269 55.1309 10.3401C50.9209 8.75602 48.0626 8.90105 46.7505 9.1219C46.3593 9.18757 46.0222 8.85357 46.0971 8.47916L46.4591 6.67136C46.5303 6.31546 46.2271 5.99353 45.8508 6.02267C40.185 6.46066 38.4778 9.41518 37.9905 10.765Z" stroke="#FF543D" stroke-width="2.3" stroke-miterlimit="10" stroke-linecap="round" stroke-linejoin="round"/>
<path d="M26.9734 40.0942C26.9734 42.2725 25.1342 44.0383 22.8654 44.0383C20.5966 44.0383 18.7573 42.2725 18.7573 40.0942C18.7573 37.9158 20.5966 36.1499 22.8654 36.1499C25.1342 36.1499 26.9734 37.9158 26.9734 40.0942Z" stroke="#FF543D" stroke-width="2.3" stroke-miterlimit="10" stroke-linecap="round" stroke-linejoin="round"/>
<path d="M15.3058 71.6084H22.7437V44.0356C20.5314 43.9737 18.7573 42.2335 18.7573 40.0944C18.7573 40.0838 18.7581 40.0735 18.7581 40.0629H2V71.6084H9.43806" stroke="#FF543D" stroke-width="2.3" stroke-miterlimit="10" stroke-linecap="round" stroke-linejoin="round"/>
<path d="M15.973 13.6568V8.15707H8.77082V23.4992C8.77082 25.8237 7.64305 27.9919 5.77561 29.4713C3.46994 31.2975 2 34.0617 2 37.1558V78.6661C2 80.5074 3.5546 82 5.47217 82H19.2717C21.1892 82 22.744 80.5074 22.744 78.6661V44.0356C20.5314 43.9737 18.7573 42.2335 18.7573 40.0944C18.7573 37.9727 20.5022 36.2431 22.689 36.1544C22.4095 33.4692 21.0219 31.0979 18.9684 29.4713C17.1008 27.992 15.973 25.8237 15.973 23.4992V19.2906" stroke="#FF543D" stroke-width="2.3" stroke-miterlimit="10" stroke-linecap="round" stroke-linejoin="round"/>
</svg>
