<svg width="120" height="120" viewBox="0 0 120 120" fill="none" xmlns="http://www.w3.org/2000/svg">
<path d="M87.5004 12.3807C79.167 7.6188 69.7623 4.99976 60.1194 4.99976H59.8813C50.2385 4.99976 40.8337 7.49976 32.5004 12.3807C24.167 17.1426 17.2623 24.1664 12.3813 32.4998C7.50037 40.8331 5.00037 50.3569 5.00037 59.9998C5.00037 69.6426 7.50037 79.1664 12.3813 87.4998C17.1432 95.8331 24.167 102.738 32.5004 107.619C40.8337 112.381 50.2385 115 59.8813 115H60.1194C69.7623 115 79.167 112.5 87.5004 107.619C95.8337 102.857 102.738 95.8331 107.619 87.4998C112.5 79.1664 115 69.6426 115 59.9998C115 50.3569 112.5 40.8331 107.619 32.4998C102.738 24.1664 95.8337 17.1426 87.5004 12.3807ZM112.381 59.9998C112.381 69.1664 110 78.2141 105.358 86.1902C100.715 94.1664 94.167 100.833 86.1908 105.357C78.3337 110 69.2861 112.381 60.1194 112.381H59.8813C55.3575 112.381 50.7147 111.785 46.3099 110.595C41.9051 109.405 37.6194 107.619 33.6908 105.357C25.7146 100.714 19.048 94.1664 14.5242 86.1902C9.88132 78.2141 7.50037 69.1664 7.50037 59.9998C7.50037 50.8331 9.88132 41.7855 14.5242 33.8093C19.167 25.8331 25.7146 19.1664 33.6908 14.6426C41.667 9.99976 50.7146 7.49976 59.8813 7.49976H60.1194C69.2861 7.49976 78.3337 9.88071 86.1908 14.5236C94.167 19.1664 100.834 25.714 105.358 33.6902C110 41.6664 112.381 50.595 112.381 59.9998Z" fill="#FF543D"/>
<path d="M84.6424 93.3334L85.952 92.262L83.6901 90.7144L84.6424 93.3334Z" fill="#FF543D"/>
<path d="M21.0712 63.4525C21.7855 63.4525 22.1426 62.9763 22.1426 62.262V61.6667L19.9998 61.7858V62.381C19.9998 62.9763 20.4759 63.4525 21.0712 63.4525Z" fill="#FF543D"/>
<path d="M22.5001 71.0717C23.2144 70.8336 23.4525 70.3574 23.2144 69.6431L23.0953 69.0479L21.0715 69.6431L21.1906 70.2383C21.4287 70.9526 21.9049 71.3098 22.5001 71.0717Z" fill="#FF543D"/>
<path d="M72.7382 20.1192C72.9763 20.0001 73.0954 19.8811 73.3335 19.762C73.5716 19.643 73.6906 19.4049 73.6906 19.2858C73.6906 19.0477 73.6906 18.9287 73.6906 18.8096C73.6906 18.6906 73.5716 18.5715 73.4525 18.5715C73.2144 18.5715 73.0954 18.5715 72.9763 18.5715C72.8573 18.5715 72.6192 18.6906 72.5001 18.8096C72.3811 18.9287 72.262 19.0477 72.143 19.1668C72.0239 19.2858 71.9049 19.4049 71.7859 19.643C71.6668 19.8811 71.5478 20.0001 71.5478 20.1192C71.5478 20.2382 71.4287 20.3572 71.4287 20.4763C71.5478 20.4763 71.7859 20.4763 72.0239 20.4763C72.262 20.2382 72.5001 20.2382 72.7382 20.1192Z" fill="#FF543D"/>
<path d="M85.5951 15.595C77.857 11.1903 69.0475 8.80933 60.1189 8.80933H59.9999C51.0713 8.80933 42.2618 11.1903 34.5237 15.7141C26.7856 20.2379 20.238 26.6665 15.8332 34.4046C11.3094 42.1427 8.92847 50.9522 8.92847 59.9998C8.92847 68.9284 11.3094 77.8569 15.8332 85.595C20.357 93.3331 26.7856 99.8808 34.5237 104.286C42.2618 108.809 51.0713 111.19 59.9999 111.19H60.238C69.1666 111.19 77.9761 108.809 85.7142 104.286C93.4523 99.7617 99.9999 93.3331 104.405 85.595C108.928 77.8569 111.309 69.0474 111.309 59.9998C111.309 51.0712 108.928 42.1427 104.524 34.4046C99.8809 26.5474 93.3332 20.1188 85.5951 15.595ZM100.476 49.2855L101.309 50.8331L103.095 51.0712L101.786 52.2617L102.143 54.0474L100.476 53.2141L98.8094 54.0474L99.1666 52.2617L97.857 51.0712L99.6427 50.8331L100.476 49.2855ZM94.4047 38.095L95.238 36.5474L96.0713 38.095L97.857 38.3331L96.5475 39.5236L96.9047 41.3093L95.238 40.476L93.5713 41.3093L93.9285 39.5236L92.6189 38.3331L94.4047 38.095ZM84.4047 27.8569L85.238 26.3093L86.0713 27.8569L87.857 28.095L86.5475 29.2855L86.9047 31.0712L85.238 30.2379L83.5713 31.0712L83.9285 29.2855L82.6189 28.095L84.4047 27.8569ZM75.9523 42.3808L74.4047 44.0474L81.9047 51.9046L79.0475 53.3331L82.0237 60.476L78.4523 59.2855L82.2618 67.6188L81.3094 67.2617L75.8332 64.9998C76.0713 64.2855 76.0713 63.4522 76.0713 62.6188C76.0713 62.3807 76.0713 62.2617 76.0713 62.0236C75.8332 57.6188 72.857 54.1665 69.1666 54.0474C68.4523 50.2379 65.5951 47.3808 62.1428 47.3808C61.9047 47.3808 61.6666 47.3808 61.4285 47.3808C59.5237 47.6188 57.857 48.6903 56.6666 50.3569V42.6189V42.4998C56.6666 41.9046 56.1904 41.4284 55.5951 41.4284C56.1904 39.7617 59.4047 32.2617 64.0475 32.4998C69.2856 32.7379 72.4999 30.9522 72.4999 30.9522L70.238 35.1189L80.238 36.6665L74.0475 41.3093L75.9523 42.3808ZM75.1189 67.7379L74.7618 67.6188C74.8808 67.4998 74.8809 67.3808 74.8809 67.2617L75.1189 67.7379ZM49.0475 49.4046C51.4285 49.4046 53.4523 51.5474 54.0475 54.2855C52.2618 54.8808 50.7142 56.4284 49.7618 58.3331C49.6427 58.5712 49.5237 58.8093 49.5237 59.0474C49.1666 58.3331 48.8094 57.7379 48.4523 57.1427C47.857 56.3093 47.1428 55.595 46.4285 55.1188C45.7142 54.6427 44.9999 54.2855 44.1666 54.1665C44.5237 52.4998 45.4761 51.0712 46.6666 50.2379C47.2618 49.6427 48.0951 49.4046 49.0475 49.4046ZM47.3808 47.6188C49.1666 44.8808 52.9761 42.8569 54.7618 42.1427C54.7618 42.2617 54.6428 42.3808 54.6428 42.4998V50.595C53.3332 48.6903 51.3094 47.3808 49.0475 47.3808C48.4523 47.3808 47.857 47.3808 47.3808 47.6188ZM48.4523 65.8331C48.6904 65.8331 48.8094 65.8331 49.0475 65.8331C49.1666 65.8331 49.2856 65.8331 49.2856 65.8331C49.4047 65.8331 49.4047 65.8331 49.5237 65.8331C49.8808 65.8331 50.1189 65.9522 50.4761 66.0712C50.7142 66.1903 50.9523 66.3093 51.1904 66.4284C51.1904 66.4284 51.1904 66.4284 51.3094 66.4284C52.3808 67.1427 53.3332 68.2141 53.8094 69.6427C53.9285 69.9998 54.0475 70.476 54.1666 70.8331C54.2856 71.3093 54.2856 71.7855 54.2856 72.2617C54.2856 72.7379 54.2856 73.2141 54.1666 73.6903C51.9047 74.4046 50.1189 76.3093 49.2856 78.8093H49.1666C46.3094 78.8093 44.0475 75.8331 44.0475 72.2617C44.0475 71.9046 44.0475 71.4284 44.1666 71.0712C44.1666 70.7141 44.2856 70.3569 44.4047 69.9998C44.5237 69.5236 44.7618 69.0474 44.8808 68.6903C45.4761 67.6188 46.3094 66.7855 47.2618 66.3093C47.4999 65.9522 47.9761 65.8331 48.4523 65.8331ZM52.3808 64.6427C52.0237 64.4046 51.6666 64.1665 51.1904 64.0474C51.0713 64.0474 50.9523 63.9284 50.8332 63.9284C50.8332 63.6903 50.7142 63.3331 50.7142 63.095C50.7142 62.8569 50.7142 62.7379 50.7142 62.4998C50.7142 62.2617 50.7142 62.1427 50.7142 61.9046C50.8332 59.4046 52.1428 57.2617 54.0475 56.3093C54.1666 56.1903 54.4047 56.1903 54.5237 56.0712C54.6427 56.0712 54.7618 55.9522 54.8808 55.9522C54.9999 55.9522 54.9999 55.9522 55.1189 55.9522C55.357 55.9522 55.5951 55.8331 55.9523 55.8331C56.0713 55.8331 56.0713 55.8331 56.1904 55.8331C56.3094 55.8331 56.5475 55.8331 56.6666 55.8331C56.7856 55.8331 56.9047 55.8331 57.0237 55.9522C59.2856 56.5474 61.0713 59.0474 61.0713 62.1427C61.0713 62.2617 61.0713 62.2617 61.0713 62.3808C61.0713 62.4998 61.0713 62.6188 61.0713 62.7379C61.0713 62.8569 61.0713 63.095 61.0713 63.2141C61.0713 63.4522 61.0713 63.5712 60.9523 63.8093C60.7142 63.9284 60.4761 63.9284 60.238 64.0474C58.3332 64.8808 56.7856 66.6665 56.0713 68.9284C56.0713 68.9284 56.0713 68.9284 55.9523 68.9284C55.8332 68.9284 55.7142 68.9284 55.7142 68.9284C55.1189 67.2617 53.9285 65.7141 52.3808 64.6427ZM57.2618 54.1665C57.857 51.4284 59.8808 49.4046 62.1428 49.4046C62.738 49.4046 63.3332 49.5236 63.9285 49.7617C64.9999 50.2379 65.8332 51.0712 66.4285 52.2617C66.7856 52.8569 67.0237 53.4522 67.1428 54.1665C65.1189 54.7617 63.3332 56.5474 62.4999 58.6903C61.4285 56.4284 59.5237 54.6427 57.2618 54.1665ZM63.8094 62.1427C63.9285 59.5236 65.357 57.2617 67.2618 56.4284C67.6189 56.3093 67.9761 56.1903 68.3332 56.0712C68.5713 56.0712 68.6904 56.0712 68.9285 56.0712C69.0475 56.0712 69.1666 56.0712 69.4047 56.0712C69.7618 56.0712 70.1189 56.1903 70.4761 56.3093C71.6666 56.7855 72.738 57.8569 73.3332 59.1665C73.8094 60.1188 74.0475 61.3093 74.0475 62.4998C74.0475 63.095 73.9285 63.5712 73.9285 64.0474V64.1665C73.6904 65.1189 73.3332 65.9522 72.857 66.6665C72.0237 67.976 70.8332 68.8093 69.4047 68.9284C68.9285 67.6189 68.3332 66.5474 67.4999 65.7141C66.6666 64.8808 65.7142 64.2855 64.6427 63.9284C64.4047 63.8093 64.1666 63.8093 63.8094 63.6903C63.8094 63.4522 63.8094 63.3331 63.6904 63.095C63.6904 62.8569 63.6904 62.6188 63.6904 62.4998C63.8094 62.3808 63.8094 62.2617 63.8094 62.1427ZM60.357 12.976C60.357 12.8569 60.4761 12.7379 60.5951 12.6189C60.7142 12.4998 60.8332 12.3808 61.0713 12.2617C61.1904 12.1427 61.4285 12.1427 61.7856 12.1427C61.9047 12.1427 62.1427 12.1427 62.2618 12.1427C62.3808 12.1427 62.4999 12.2617 62.6189 12.2617C62.738 12.3808 62.857 12.4998 62.857 12.6189C62.9761 12.7379 62.9761 12.8569 62.9761 13.095C62.9761 13.2141 62.9761 13.4522 62.857 13.5712C62.857 13.6903 62.738 13.8093 62.6189 13.9284C62.4999 14.0474 62.3808 14.1665 62.1428 14.1665C62.0237 14.2855 61.7856 14.2855 61.5475 14.2855C61.1904 14.2855 60.8332 14.1665 60.5951 14.0474C60.357 13.8093 60.238 13.5712 60.238 13.2141C60.357 13.3331 60.357 13.2141 60.357 12.976ZM43.6904 16.1903C43.6904 15.595 43.8094 15.1189 43.8094 14.6427C43.8094 14.4046 43.9285 14.1665 44.0475 13.9284C44.1666 13.6903 44.1666 13.5712 44.2856 13.4522C44.4047 13.3331 44.5237 13.3331 44.6428 13.2141C44.7618 13.2141 44.8808 13.095 44.9999 13.095C45.1189 13.095 45.238 13.095 45.238 13.095C45.357 13.095 45.357 13.095 45.4761 13.095C45.5951 13.095 45.5951 13.2141 45.5951 13.2141C45.5951 13.2141 45.7142 13.4522 45.7142 13.5712C45.7142 13.6903 45.8332 13.9284 45.8332 14.2855C45.8332 14.6427 45.8332 14.9998 45.8332 15.476C45.8332 15.9522 45.8332 16.4284 45.8332 16.9046C45.8332 17.3808 45.8332 17.976 45.8332 18.4522C45.8332 18.9284 45.8332 19.5236 45.9523 19.9998C45.9523 20.476 46.0713 20.9522 46.1904 21.3093C46.3094 21.6665 46.4285 21.9046 46.5475 22.2617C46.6666 22.4998 46.7856 22.7379 46.9047 22.976C47.0237 23.2141 47.2618 23.3331 47.3808 23.3331C47.4999 23.4522 47.738 23.4522 47.857 23.3331C48.0951 23.3331 48.2142 23.2141 48.3332 22.976C48.4523 22.8569 48.5713 22.6188 48.6904 22.3808C48.8094 22.1427 48.9285 21.9046 49.0475 21.5474C49.1666 21.1903 49.1666 20.9522 49.2856 20.595C49.4047 20.2379 49.4047 19.8808 49.4047 19.5236C49.4047 19.1665 49.5237 18.8093 49.5237 18.3331C49.6427 17.0236 49.5237 15.476 49.5237 13.8093C49.5237 13.5712 49.5237 13.3331 49.5237 13.095C49.5237 12.8569 49.6428 12.7379 49.6428 12.6189C49.7618 12.4998 49.8808 12.3808 49.9999 12.2617C50.1189 12.1427 50.238 12.1427 50.4761 12.0236C50.5951 12.0236 50.8332 11.9046 50.9523 11.9046C51.0713 11.9046 51.1904 11.9046 51.3094 12.0236C51.4285 12.0236 51.4285 12.1427 51.5475 12.1427C51.5475 12.2617 51.6666 12.2617 51.6666 12.3808C51.6666 12.3808 51.6666 12.4998 51.6666 12.7379C51.6666 12.976 51.6666 13.3331 51.7856 13.6903C51.7856 14.0474 51.9047 14.5236 51.9047 14.9998C51.9047 15.476 52.0237 15.9522 52.0237 16.4284C52.1428 16.9046 52.1428 17.3808 52.2618 17.976C52.3808 18.4522 52.3808 18.9284 52.4999 19.2855C52.6189 19.6427 52.738 20.1189 52.857 20.3569C52.9761 20.7141 53.0951 20.9522 53.2142 21.1903C53.3332 21.4284 53.4523 21.5474 53.5713 21.6665C53.6904 21.7855 53.9285 21.7855 54.0475 21.7855C54.2856 21.6665 54.5237 21.5474 54.7618 21.1903C54.9999 20.9522 55.1189 20.595 55.238 20.1188C55.357 19.6427 55.357 19.1665 55.4761 18.6903C55.4761 18.095 55.4761 17.4998 55.4761 16.5474C55.4761 15.7141 55.357 15.2379 55.357 15.2379C55.357 15.2379 55.357 14.7617 55.238 13.9284C55.1189 12.976 54.9999 12.3808 54.9999 12.0236C54.9999 11.6665 54.8808 11.4284 54.8808 11.1903C54.8808 10.9522 54.8808 10.8331 54.8808 10.7141C54.8808 10.595 54.9999 10.476 55.1189 10.3569C55.238 10.2379 55.357 10.2379 55.4761 10.1188C55.5951 9.9998 55.8332 9.9998 55.9523 9.9998C56.0713 9.9998 56.1904 9.9998 56.3094 9.9998C56.4285 9.9998 56.5475 9.9998 56.5475 9.9998C56.6666 9.9998 56.6666 10.1189 56.7856 10.2379C56.9047 10.3569 56.9047 10.476 56.9047 10.595C57.0237 10.9522 57.0237 11.4284 57.1428 12.0236C57.1428 12.4998 57.2618 13.095 57.2618 13.5712C57.2618 14.0474 57.2618 14.6427 57.3808 15.1188C57.4999 15.595 57.4999 16.0712 57.3808 16.5474C57.3808 17.0236 57.2618 17.3808 57.2618 17.7379C57.2618 18.095 57.2618 18.2141 57.2618 18.3331C57.2618 18.5712 57.3808 18.6903 57.4999 18.9284C57.6189 19.0474 57.738 19.1665 57.857 19.2855C57.9761 19.4046 58.0951 19.4046 58.2142 19.4046C58.3332 19.4046 58.4523 19.4046 58.5713 19.4046C58.6904 19.4046 58.8094 19.2855 58.9285 19.1665C59.0475 19.0474 59.1666 18.9284 59.2856 18.8093C59.4047 18.6903 59.4047 18.5712 59.5237 18.4522C59.6428 18.2141 59.7618 17.8569 59.8808 17.1427C59.9999 16.5474 60.1189 16.1903 60.238 16.0712C60.238 15.9522 60.357 15.8331 60.4761 15.7141C60.5951 15.595 60.7142 15.595 60.8332 15.476C60.9523 15.476 61.0713 15.3569 61.1904 15.3569C61.3094 15.3569 61.4285 15.3569 61.5475 15.3569C61.7856 15.3569 61.9047 15.3569 61.9047 15.476C62.0237 15.595 62.0237 15.595 62.0237 15.7141C62.0237 15.8331 62.0237 15.9522 61.9047 16.1903C61.9047 16.4284 61.7856 16.5474 61.7856 16.7855C61.7856 17.0236 61.6666 17.3808 61.5475 17.7379C61.4285 18.095 61.3094 18.4522 61.3094 18.6903C61.3094 18.9284 61.1904 19.2855 61.1904 19.5236C61.0713 19.7617 61.0713 19.9998 61.0713 20.2379C61.0713 20.476 61.0713 20.595 61.1904 20.7141C61.1904 20.8331 61.3094 20.9522 61.4285 20.9522C61.5475 20.9522 61.7856 20.8331 62.0237 20.7141C62.2618 20.595 62.3808 20.476 62.6189 20.2379C62.857 20.1189 62.9761 19.8808 63.2142 19.7617C63.3332 19.7617 63.3332 19.6427 63.3332 19.6427C63.4523 19.2855 63.4523 18.8093 63.5713 18.4522C63.6904 17.976 63.8094 17.4998 63.9285 17.1427C64.0475 16.7855 64.1666 16.4284 64.2856 16.1903C64.4047 15.9522 64.5237 15.8331 64.6427 15.7141C64.7618 15.595 64.9999 15.476 65.238 15.595C65.4761 15.595 65.7142 15.7141 65.7142 15.8331C65.8332 15.9522 65.8332 16.1903 65.8332 16.4284C65.8332 16.5474 65.8332 16.5474 65.8332 16.6665C65.8332 16.7855 65.7142 16.9046 65.7142 17.0236C65.7142 17.1427 65.5951 17.2617 65.5951 17.4998C65.5951 17.6188 65.4761 17.8569 65.4761 17.976C65.4761 18.2141 65.357 18.3331 65.357 18.4522C65.357 18.5712 65.357 18.5712 65.357 18.6903H65.4761C65.4761 18.6903 65.5951 18.5712 65.5951 18.4522C65.7142 18.3331 65.7142 18.2141 65.8332 17.976C65.9523 17.7379 66.0713 17.6189 66.1904 17.3808C66.3094 17.2617 66.4285 17.0236 66.5475 16.9046C66.6666 16.7855 66.7856 16.6665 66.7856 16.5474C66.9047 16.4284 66.9047 16.3093 66.9047 16.3093C67.1428 16.0712 67.2618 15.9522 67.4999 15.8331C67.738 15.7141 67.9761 15.7141 68.2142 15.7141C68.4523 15.7141 68.5713 15.8331 68.6904 16.0712C68.8094 16.3093 68.8094 16.5474 68.8094 16.9046C68.8094 16.9046 68.8094 17.0236 68.6904 17.1427C68.6904 17.2617 68.5713 17.3808 68.5713 17.6188C68.5713 17.7379 68.4523 17.976 68.3332 18.2141C68.2142 18.4522 68.2142 18.6903 68.0951 18.9284C68.0951 19.1665 67.9761 19.2855 67.9761 19.5236C67.9761 19.7617 67.857 19.8808 67.857 20.1188C67.857 20.3569 67.857 20.595 67.857 20.8331C67.857 21.0712 67.9761 21.1903 68.2142 21.1903C68.2142 21.1903 68.3332 21.1903 68.4523 21.1903C68.5713 21.1903 68.6904 21.0712 68.8094 21.0712C69.0475 20.9522 69.1666 20.8331 69.1666 20.8331C69.1666 20.8331 69.4047 20.7141 69.6428 20.595H69.7618C69.7618 20.476 69.7618 20.2379 69.8808 20.1188C69.9999 19.8808 70.1189 19.5236 70.238 19.2855C70.4761 18.9284 70.5951 18.6903 70.8332 18.4522C70.9523 18.2141 71.1904 17.976 71.4285 17.7379C71.6666 17.4998 71.9047 17.3808 72.1427 17.2617C72.3808 17.1427 72.6189 17.0236 72.9761 17.0236C73.2142 17.0236 73.5713 17.0236 73.9285 17.0236C74.1666 17.1427 74.4047 17.1427 74.6428 17.3808C74.8809 17.4998 74.9999 17.7379 75.1189 17.8569C75.238 18.095 75.357 18.2141 75.357 18.4522C75.357 18.6903 75.357 18.9284 75.357 19.1665C75.238 19.4046 75.1189 19.7617 74.8809 19.9998C74.6428 20.2379 74.2856 20.476 74.0475 20.7141C73.6904 20.9522 73.3332 21.0712 72.9761 21.1903C72.2618 21.4284 71.7856 21.4284 71.4285 21.4284C71.4285 21.5474 71.5475 21.6665 71.5475 21.7855C71.5475 21.9046 71.6666 21.9046 71.6666 22.0236C71.6666 22.1427 71.7856 22.1427 71.9047 22.1427C72.0237 22.1427 72.0237 22.2617 72.1427 22.2617C72.3808 22.3808 72.738 22.3808 73.0951 22.3808C73.4523 22.3808 73.8094 22.2617 74.0475 22.2617C74.4047 22.1427 74.6428 22.0236 74.9999 21.9046C75.357 21.7855 75.5951 21.6665 75.8332 21.5474L76.4285 22.6189C75.9523 22.976 75.357 23.2141 74.8809 23.4522C74.6428 23.5712 74.4047 23.5712 74.1666 23.6903C73.8094 23.8093 73.5713 23.8093 73.3332 23.9284C73.0951 23.9284 72.738 23.9284 72.4999 23.9284C72.2618 23.9284 71.9047 23.9284 71.6666 23.8093C71.1904 23.6903 70.8332 23.5712 70.5951 23.3331C70.357 23.095 70.1189 22.8569 69.9999 22.4998C69.9999 22.3808 69.8808 22.2617 69.8808 22.1427C69.2856 22.3808 68.8094 22.4998 68.6904 22.6189C68.3332 22.7379 68.0951 22.8569 67.9761 22.8569C67.738 22.8569 67.4999 22.8569 67.2618 22.8569C67.0237 22.8569 66.7856 22.6189 66.6666 22.2617C66.5475 21.9046 66.5475 21.3093 66.5475 20.595C66.5475 20.3569 66.6666 19.9998 66.6666 19.6427C66.7856 19.2855 66.7856 18.9284 66.9047 18.5712H66.7856L64.5237 22.0236C64.4047 22.2617 64.2856 22.3808 64.1666 22.3808C64.0475 22.3808 63.9285 22.4998 63.6904 22.3808C63.4523 22.3808 63.3332 22.2617 63.2142 22.2617C63.0951 22.1427 62.9761 22.0236 62.9761 21.9046C62.9761 21.7855 62.857 21.5474 62.857 21.4284V21.3093C62.6189 21.5474 62.3808 21.6665 62.0237 21.7855C61.7856 21.9046 61.4285 22.0236 61.0713 22.1427C60.7142 22.2617 60.4761 22.2617 60.238 22.2617C59.9999 22.2617 59.7618 22.2617 59.6427 22.1427C59.5237 22.0236 59.2856 22.0236 59.2856 21.9046C59.1666 21.7855 59.0475 21.6665 59.0475 21.4284C59.0475 21.3093 58.9285 21.0712 58.9285 20.8331C58.9285 20.7141 58.9285 20.476 58.9285 20.3569C58.6904 20.595 58.4523 20.7141 58.0951 20.8331C57.9761 20.8331 57.738 20.8331 57.6189 20.8331C57.4999 20.8331 57.3808 20.8331 57.2618 20.7141C57.1427 20.595 57.0237 20.595 56.9047 20.3569C56.7856 20.2379 56.6666 20.1189 56.6666 19.8808C56.5475 20.3569 56.4285 20.7141 56.1904 21.0712C55.9523 21.4284 55.8332 21.7855 55.5951 22.0236C55.357 22.2617 55.1189 22.6189 54.7618 22.7379C54.5237 22.976 54.1666 23.095 53.8094 23.2141C53.3332 23.3331 52.9761 23.3331 52.6189 23.095C52.2618 22.976 51.9047 22.7379 51.6666 22.3808C51.4285 22.0236 51.0713 21.5474 50.9523 21.0712C50.7142 20.595 50.5951 19.9998 50.357 19.4046C50.357 19.1665 50.238 18.9284 50.238 18.8093C50.238 18.5712 50.238 18.4522 50.1189 18.3331C50.238 19.4046 50.238 20.3569 50.1189 21.0712C49.9999 21.7855 49.8808 22.4998 49.6428 22.976C49.4047 23.4522 49.0475 23.9284 48.6904 24.1665C48.3332 24.4046 47.857 24.6427 47.2618 24.7617C46.9047 24.8808 46.6666 24.7617 46.3094 24.6427C45.9523 24.5236 45.7142 24.2855 45.357 23.9284C44.9999 23.5712 44.7618 23.095 44.5237 22.6189C44.2856 22.0236 44.0475 21.4284 43.8094 20.595C43.6904 20.1188 43.5713 19.6427 43.5713 19.0474C43.4523 18.5712 43.4523 17.976 43.4523 17.4998C43.5713 17.2617 43.5713 16.6665 43.6904 16.1903ZM41.7856 56.1903C42.1427 56.0712 42.4999 56.0712 42.857 56.0712C43.2142 56.0712 43.5713 56.0712 43.9285 56.1903C44.6428 56.4284 45.357 56.7855 45.9523 57.3808C46.1904 57.6188 46.4285 57.976 46.6666 58.2141C47.4999 59.2855 47.9761 60.7141 47.9761 62.3808C47.9761 62.4998 47.9761 62.4998 47.9761 62.6188C47.9761 62.8569 47.9761 63.2141 47.9761 63.4522C47.9761 63.5712 47.9761 63.6903 47.9761 63.8093C47.6189 63.9284 47.2618 63.9284 46.7856 64.1665C44.7618 64.9998 43.0951 66.7855 42.3808 69.1665C39.7618 68.8093 37.738 66.0712 37.738 62.6188C37.738 59.4046 39.4047 56.7855 41.7856 56.1903ZM33.9285 27.8569L34.7618 26.3093L35.5951 27.8569L37.3808 28.095L36.0713 29.2855L36.4285 31.0712L34.7618 30.2379L33.0951 31.0712L33.4523 29.2855L32.1428 28.095L33.9285 27.8569ZM23.9285 38.095L24.7618 36.5474L25.5951 38.095L27.3808 38.3331L26.0713 39.5236L26.4285 41.3093L24.7618 40.476L23.0951 41.3093L23.4523 39.5236L22.1428 38.3331L23.9285 38.095ZM18.8094 50.8331L19.6428 49.2855L20.4761 50.8331L22.2618 51.0712L20.9523 52.2617L21.3094 54.0474L19.6428 53.2141L17.9761 54.0474L18.3332 52.2617L17.0237 51.0712L18.8094 50.8331ZM14.8808 58.6903L16.5475 58.5712V59.2855L21.9047 59.0474V58.3331L23.5713 58.2141L23.8094 62.2617C23.9285 65.1188 22.738 65.7141 21.3094 65.8331C19.6428 65.9522 18.8094 64.4046 18.6904 62.7379V61.7855L16.6666 61.9046V62.6188L14.9999 62.7379L14.8808 58.6903ZM17.1428 74.5236C16.6666 72.976 17.3808 72.0236 18.6904 71.5474C19.7618 71.1903 19.9999 71.0712 19.7618 69.9998L17.857 70.595L18.0951 71.3093L16.5475 71.7855L15.4761 67.8569L17.0237 67.3807L17.2618 68.095L22.4999 66.6665L22.2618 65.9522L23.8094 65.476L24.8808 69.4046C25.5951 72.1427 24.6428 72.976 23.3332 73.4522C22.3808 73.6903 21.5475 73.095 21.0713 72.1427C21.1904 72.976 20.7142 73.9284 19.7618 74.1665C19.2856 74.2855 18.9285 74.4046 19.0475 74.6427C19.0475 74.8808 19.2856 74.8808 19.5237 74.7617L19.8808 74.6427L20.1189 75.476L19.4047 75.7141C18.5713 76.0712 17.4999 75.9522 17.1428 74.5236ZM59.7618 98.6903L59.0475 98.5712L58.0951 103.928L58.8094 104.047L58.5713 105.595L54.6428 105L54.8808 103.452L55.5951 103.571L56.3094 99.5236L56.4285 98.8093C56.1904 99.4046 55.9523 100.119 55.8332 100.357L53.6904 104.881L51.0713 104.405L50.4761 99.2855C50.4761 99.0474 50.357 98.3331 50.4761 97.7379L49.6428 102.619L50.357 102.738L50.1189 104.286L46.7856 103.69L47.0237 102.143L47.738 102.262L48.6904 96.9046L48.0951 96.7855L48.2142 96.3093L47.9761 96.4284L47.3808 96.1903L46.0713 98.9284C44.8808 101.547 43.0951 102.262 41.0713 101.309C38.8094 100.119 38.2142 98.4522 39.4047 95.8331L40.7142 93.095L40.1189 92.8569L40.7142 91.6665L40.1189 92.6189L39.2856 92.0236L36.1904 96.4284L36.7856 96.9046L35.8332 98.2141L32.4999 95.8331L33.4523 94.5236L34.0475 94.9998L37.1428 90.595L36.5475 90.1188L37.1428 89.2855L36.0713 90.2379L35.5951 89.7617L31.5475 93.4522L32.0237 93.9284L30.8332 94.9998L28.2142 92.1427L29.4047 91.0712L29.8808 91.5474L32.9761 88.6903L33.5713 88.2141C33.0951 88.5712 32.3808 88.9284 32.1428 89.0474L27.738 91.3093L25.9523 89.4046L28.6904 84.9998C28.8094 84.7617 29.1666 84.1665 29.6428 83.8093L26.0713 87.1427L26.5475 87.6188L25.357 88.6903L23.0951 86.1903L24.2856 85.1189L24.7618 85.595L28.8094 81.9046L28.3332 81.4284L29.0475 80.7141L27.3808 81.5474L26.1904 79.7617L27.1428 79.2855L26.1904 77.4998L24.6428 78.3331L25.7142 80.476L24.2856 81.1903L23.2142 79.0474L21.4285 79.9998L22.3808 81.7855L23.4523 81.1903L24.4047 83.095L21.9047 84.4046L18.4523 77.7379L19.8808 77.0236L20.238 77.7379L24.9999 75.2379L24.6428 74.5236L26.0713 73.8093L29.5237 80.476L29.2856 80.595L32.3808 83.9284L29.7618 87.976L34.0475 85.7141L37.2618 89.1665L37.4999 88.8093L40.8332 91.1903L40.7142 91.3093L44.2856 92.976L43.5713 94.4046L42.9761 94.1665L41.7856 96.5474C40.9523 98.3331 41.1904 98.9284 41.9047 99.2855C42.6189 99.6427 43.2142 99.5236 44.0475 97.6189L45.1189 95.2379L44.5237 94.9998L45.238 93.5712L48.5713 95.1189L48.4523 95.2379L52.738 95.9522L53.2142 100.714L55.1189 96.3093L59.7618 97.1427V98.6903ZM55.9523 88.5712C53.0951 88.5712 50.8332 85.595 50.8332 82.0236C50.8332 81.5474 50.8332 81.0712 50.9523 80.595C51.0713 80.1188 51.0713 79.7617 51.3094 79.4046C51.9047 77.6188 53.2142 76.1903 54.6428 75.7141C54.9999 75.595 55.4761 75.476 55.8332 75.476H55.9523H56.0713C56.4285 75.476 56.9047 75.595 57.2618 75.7141C58.8094 76.1903 59.9999 77.6188 60.5951 79.4046C60.7142 79.7617 60.8332 80.2379 60.9523 80.595C61.0713 81.0712 61.0713 81.5474 61.0713 82.0236C61.0713 85.595 58.6904 88.5712 55.9523 88.5712ZM62.6189 78.8093C61.7856 76.3093 59.9999 74.4046 57.738 73.6903C57.6189 73.2141 57.6189 72.7379 57.6189 72.2617C57.6189 71.7855 57.6189 71.3093 57.738 70.9522C57.857 70.476 57.857 70.1188 58.0951 69.7617C58.3332 69.0474 58.6904 68.4522 59.0475 67.976C59.2856 67.6188 59.5237 67.2617 59.8808 67.0236C60.357 66.5474 60.9523 66.1903 61.5475 65.9522C61.7856 65.8331 62.0237 65.8331 62.2618 65.8331C62.3808 65.8331 62.4999 65.8331 62.738 65.8331C62.738 65.8331 62.738 65.8331 62.857 65.8331C63.0951 65.8331 63.2142 65.8331 63.4523 65.8331C63.9285 65.9522 64.4047 66.0712 64.7618 66.3093C64.8808 66.4284 64.9999 66.4284 65.1189 66.5474C65.5951 66.7855 66.0713 67.2617 66.4285 67.6188C66.6666 67.976 66.9047 68.3331 67.1428 68.6903C67.3808 69.0474 67.4999 69.5236 67.6189 69.9998C67.738 70.3569 67.857 70.7141 67.857 71.0712C67.857 71.4284 67.9761 71.9046 67.9761 72.2617C67.9761 75.8331 65.7142 78.8093 62.857 78.8093C62.738 78.8093 62.6189 78.8093 62.6189 78.8093ZM71.4285 105.357C70.4761 105.595 69.6428 105 69.2856 104.405C69.0475 104.524 68.6904 104.643 68.3332 104.643C65.8332 105.119 63.9285 104.047 63.3332 101.071C62.857 98.5712 64.1666 96.5474 66.6666 96.0712C69.5237 95.476 71.1904 97.0236 71.6666 99.6427C71.9047 100.952 71.7856 102.024 71.1904 102.857C71.3094 103.214 71.5475 103.571 71.9047 103.571C72.1428 103.571 72.1428 103.214 72.0237 102.976L71.9047 102.619L72.738 102.5L72.857 103.095C73.0951 104.047 72.6189 105.119 71.4285 105.357ZM78.8094 101.547C76.4285 102.5 74.7618 101.905 73.5713 99.2855L72.2618 96.4284L71.6666 96.6665L71.0713 95.2379L74.6428 93.5712L75.357 94.9998L74.7618 95.2379L75.8332 97.7379C76.6666 99.5236 77.2618 99.7617 77.9761 99.4046C78.6904 99.0474 79.0475 98.5712 78.0951 96.6665L77.0237 94.2855L76.4285 94.5236L75.7142 92.976L79.0475 91.4284L79.7618 92.8569L79.1666 93.095L80.357 95.8331C81.5475 98.8093 80.9523 100.595 78.8094 101.547ZM87.9761 95.7141L86.9047 94.4046L87.857 93.6903L87.1427 93.2141L85.1189 94.7617L85.4761 95.595L86.1904 94.9998L87.1427 96.3093L84.0475 98.6903L83.0951 97.3808L83.8094 96.9046L81.7856 91.5474L81.4285 91.9046L80.4761 90.595L84.2856 87.7379L90.357 92.0236L91.0713 91.5474L92.0237 92.8569L87.9761 95.7141ZM92.9761 91.4284L91.6666 90.3569L92.1428 89.8808L87.9761 86.4284L87.4999 86.9046L86.1904 85.8331L88.6904 82.7379L89.9999 83.8093L89.5237 84.2855L93.6904 87.7379L94.7618 86.5474L93.5713 85.595L94.8808 83.9284L97.3809 85.9522L92.9761 91.4284ZM104.524 68.6903L102.976 68.4522L103.095 67.7379L101.667 67.4998L97.3809 69.2855V69.6427L98.8094 70.2379L98.2142 71.9046L96.6666 71.4284L96.3094 72.3808L101.309 74.2855L101.667 73.3331L103.214 73.9284L101.548 78.2141L99.9999 77.6188L100.357 76.6665L95.357 74.7617L94.9999 75.7141L96.5475 76.3093L95.9523 77.976L93.2142 77.0236L94.1666 77.6188L93.8094 78.3331L98.4523 81.0712L98.8094 80.3569L100.238 81.1903L98.0951 84.7617L96.6666 83.9284L97.0237 83.2141L92.3808 80.476L92.0237 81.1903L90.5951 80.3569L92.738 76.7855L92.857 76.9046L95.7142 69.4046L96.3094 65.595L97.857 65.8331L97.738 66.4284L99.1666 65.9522C99.4047 65.9522 99.9999 65.7141 100.238 65.7141C99.9999 65.595 99.5237 65.2379 99.2856 65.1188L98.0951 64.2855L97.9761 64.9998L96.4285 64.7617L96.9047 61.4284L98.4523 61.6665L98.3332 62.3808L102.024 65.2379L103.452 65.476L103.571 64.7617L105.119 64.9998L104.524 68.6903Z" fill="#FF543D"/>
<path d="M66.9047 97.7378C66.1904 97.8568 65.7142 99.0473 65.9523 100.476C65.9523 100.714 66.0714 100.952 66.0714 101.19C66.3095 100.833 66.6666 100.476 67.3809 100.357C67.8571 100.238 68.4523 100.357 68.8095 100.595C68.8095 100.476 68.8095 100.238 68.6904 100.119C68.6904 98.6902 67.8571 97.6187 66.9047 97.7378Z" fill="#FF543D"/>
<path d="M67.7378 101.429C67.3807 101.548 67.1426 101.905 67.1426 102.5C67.3807 102.738 67.7378 102.857 68.095 102.738C68.3331 102.738 68.5711 102.5 68.6902 102.381C68.3331 101.786 68.095 101.309 67.7378 101.429Z" fill="#FF543D"/>
<path d="M60 0C26.9048 0 0 26.9048 0 60C0 93.0952 26.9048 120 60 120C93.0952 120 120 93.0952 120 60C120 26.9048 93.0952 0 60 0ZM108.69 87.9762C103.69 96.5476 96.6667 103.69 88.0952 108.571C79.6429 113.452 70 116.071 60.119 116.071H59.881C50 116.071 40.3571 113.452 31.9048 108.571C23.3333 103.69 16.3095 96.5476 11.3095 87.9762C6.42857 79.5238 3.80952 69.7619 3.80952 59.881C3.80952 50 6.42857 40.3571 11.3095 31.7857C13.8095 27.5 16.7857 23.5714 20.2381 20.119C23.6905 16.6667 27.619 13.6905 31.9048 11.1905C40.3571 6.30952 50 3.69048 59.881 3.69048H60.119C70 3.69048 79.6429 6.30952 88.0952 11.1905C96.6667 16.0714 103.69 23.2143 108.69 31.7857C113.571 40.2381 116.19 49.881 116.19 59.7619V59.881C116.19 69.7619 113.571 79.5238 108.69 87.9762Z" fill="#FF543D"/>
</svg>
