<svg width="120" height="120" viewBox="0 0 120 120" fill="none" xmlns="http://www.w3.org/2000/svg">
<g opacity="0.2">
<path d="M9.63418 83.5353C10.7317 86.0377 12.8049 87.2294 15.3659 86.1569C17.561 85.2036 18.1708 83.1778 16.9513 80.7944L14.7561 76.147L13.2927 76.7428L13.6586 77.6961L6.09759 81.0328C5.73174 81.1519 5.60979 81.0328 5.36588 80.7944L5.12198 80.3178L3.78052 80.9136L5.85369 85.5611L7.3171 84.8461L6.70735 83.2969L9.14637 82.2244L9.63418 83.5353ZM14.6342 79.7219L15.122 80.6753C15.8537 82.2244 15.9756 83.4161 14.2683 84.1311C12.8049 84.7269 11.8293 84.0119 11.2195 82.5819L10.7317 81.3903L14.6342 79.7219Z" fill="#FF543D"/>
<path d="M17.805 95.9286C18.1709 95.3328 18.1709 94.9753 18.0489 94.4986C19.0245 95.0944 20.488 95.4519 21.9514 94.3794C23.9026 92.9494 23.6587 91.0428 22.0733 88.8978L19.1465 84.9653L17.927 85.9187L18.5367 86.7528L11.7075 91.7578C11.2197 91.877 10.9758 91.7578 10.7319 91.5195L10.366 91.0428L9.14648 91.8769L11.8294 95.4519L13.0489 94.4986L12.4392 93.5453L15.0001 91.6386L15.9758 92.9494C16.3416 93.4261 16.3416 93.7836 15.9758 94.3794L15.0001 96.1669C14.7562 96.5244 14.6343 96.5244 14.2684 96.2861L13.9026 95.9286L12.6831 96.7627L15.366 100.338L16.5855 99.3844L15.9758 98.5502L17.805 95.9286ZM19.5123 88.5403L20.366 89.6128C21.3416 90.8045 21.7075 91.7578 20.366 92.7111C19.2684 93.4261 18.2928 93.3069 17.4392 92.1153L16.4636 90.8045L19.5123 88.5403Z" fill="#FF543D"/>
<path d="M24.0247 104.747C23.7808 104.985 23.6588 105.105 23.293 104.866L21.0979 102.96L23.4149 100.457L26.5857 103.198L27.8052 101.887L24.6345 99.1463L26.7076 96.8821L28.7808 98.6696C29.1467 99.0271 29.0247 99.1463 28.7808 99.3846L28.293 99.9804L29.7564 101.053L31.8296 98.7888L25.4881 93.3071L24.3906 94.4988L25.1223 95.2138L19.5125 101.291C19.2686 101.53 19.0247 101.53 18.7808 101.291L18.293 100.934L17.3174 102.006L23.7808 107.726L25.9759 105.343L24.6345 104.032L24.0247 104.747Z" fill="#FF543D"/>
<path d="M42.3166 106.891C42.5605 106.415 42.8044 106.415 43.0483 106.534L43.658 106.772L44.3897 105.461L41.219 103.793L34.5117 109.632L35.6092 101.052L32.3166 99.384L31.5849 100.695L32.5605 101.291L28.1702 108.441C28.0483 108.679 27.8044 108.798 27.5605 108.679L26.8288 108.441L26.097 109.751L29.9995 111.658L30.7312 110.347L29.7556 109.751L33.1702 104.032L32.3166 111.539L33.9019 112.373L39.7556 107.249L37.0727 113.088C36.9507 113.446 36.7068 113.446 36.4629 113.326L35.8531 113.088L35.1214 114.399L39.0239 116.425L39.7556 115.114L38.9019 114.399L42.3166 106.891Z" fill="#FF543D"/>
<path d="M45.1223 105.343L44.7564 106.773L45.732 107.13L43.415 115.114C43.293 115.591 43.0491 115.591 42.6833 115.591L42.0735 115.472L41.7076 116.782L45.9759 117.974L46.3418 116.544L45.3662 116.187L47.6833 108.203C47.8052 107.845 48.0491 107.726 48.415 107.845L49.0247 107.964L49.3906 106.534L45.1223 105.343Z" fill="#FF543D"/>
<path d="M56.3411 109.037L57.4387 109.156L56.707 115.71C56.585 117.14 55.6094 117.736 54.146 117.617C52.6826 117.498 51.8289 116.902 51.9509 115.114L52.5606 109.156C52.5606 108.679 52.8045 108.679 53.1704 108.679H53.7801L53.9021 107.249L49.5118 106.773L49.3899 108.322L50.4875 108.441L49.7557 114.995C49.5118 117.855 50.8533 119.166 53.9021 119.404C56.707 119.643 58.6582 118.57 58.9021 116.187L59.6338 109.871C59.6338 109.514 59.8777 109.394 60.2436 109.394H60.8533L60.9753 107.964L56.585 107.488L56.3411 109.037Z" fill="#FF543D"/>
<path d="M75.4878 116.306L73.6585 108.322C73.5366 107.845 73.7805 107.726 74.0244 107.607L74.6341 107.488L74.3902 105.938L70.8536 106.534L69.0244 114.995L64.6341 107.488L60.9756 108.083L61.2195 109.633L62.317 109.513L63.1707 117.855C63.1707 118.093 63.0488 118.332 62.8049 118.451L62.1951 118.57L62.439 120L66.7073 119.285L66.4634 117.736L65.2439 117.855L64.5122 111.182L68.4146 117.736L70.1219 117.498L71.7073 109.99L73.0488 116.187C73.1707 116.544 72.9268 116.663 72.6829 116.663L72.0731 116.783L72.3171 118.213L76.7073 117.498L76.4634 115.948L75.4878 116.306Z" fill="#FF543D"/>
<path d="M100.366 102.006L94.634 95.9287C94.3901 95.5712 94.3901 95.3329 94.634 95.2137L94.9998 94.737L94.0242 93.6646L90.7315 96.6437L91.0974 97.1204L87.5608 99.1462L88.4145 100.457L89.2681 99.9803L91.8291 107.249L85.8535 101.291L83.7803 102.483L86.3413 110.348H86.2193L81.2193 105.224C80.8535 104.866 80.9754 104.628 81.3413 104.389L81.8291 104.032L81.0974 102.84L77.1949 105.104L78.0486 106.415L79.0242 105.939L86.5852 113.565L88.7803 112.254L86.2193 104.509L92.073 110.348L94.2681 109.037L91.0974 99.5037C90.9754 99.1462 90.9754 98.9079 91.2193 98.6695L91.7071 98.312L90.9754 97.1204L91.5852 97.7162L92.4389 97.0012L98.1706 103.079C98.5364 103.436 98.4145 103.555 98.1706 103.913L97.8047 104.389L98.7803 105.462L102.073 102.483L101.219 101.41L100.366 102.006Z" fill="#FF543D"/>
<path d="M102.439 85.7994L102.805 85.2035L101.586 84.3694L98.9026 87.8252L100.122 88.7785L100.854 87.8252L106.342 91.7577L96.4635 90.9235L94.5123 93.5452L95.7318 94.4985L96.3416 93.6643L103.171 98.6693C103.415 98.9076 103.415 99.146 103.293 99.3843L102.927 99.9801L104.146 100.814L106.829 97.2393L105.61 96.286L104.878 97.2393L99.2684 93.1877L109.268 94.0218L110.61 92.3535L102.561 86.3952C102.317 86.1569 102.317 85.9185 102.439 85.7994Z" fill="#FF543D"/>
<path d="M112.439 81.5093L113.292 81.8668C113.658 81.986 113.78 82.1051 113.658 82.5818L112.439 85.2035L109.268 83.8926L110.975 80.0793L109.268 79.3643L107.561 83.1776L104.634 81.986L105.731 79.6027C105.975 79.126 106.097 79.2452 106.463 79.3643L107.195 79.6027L107.804 77.9343L105 76.7427L101.585 84.2501L103.048 84.846L103.536 83.8926L111.341 87.2293C111.707 87.3484 111.707 87.5868 111.585 87.9443L111.341 88.5401L112.683 89.1359L116.219 81.3901L113.292 79.841L112.439 81.5093Z" fill="#FF543D"/>
<path d="M32.1951 21.2115L28.9025 15.8491L29.7561 15.3724C30.122 15.1341 30.3659 15.1341 30.6098 15.1341C30.8537 15.1341 31.2195 15.6108 31.7073 16.3257C33.1708 18.7091 33.9025 19.9007 34.1464 20.0199L35.4878 19.1857C35.3659 19.0666 34.8781 18.4707 34.2683 17.3982C33.6586 16.3257 33.0488 15.6108 32.6829 15.1341C32.3171 14.6574 31.9512 14.2999 31.7073 14.1808C31.4634 14.0616 31.0976 14.0616 30.8537 14.1808C31.2195 13.8233 31.2195 13.4658 31.2195 12.9891C31.0976 12.5124 30.8537 12.0358 30.6098 11.4399C30.2439 10.8441 30 10.4866 29.7561 10.2483C29.2683 9.65246 28.7805 9.29496 28.4146 9.17579C27.9268 9.05663 27.439 9.17579 26.7073 9.65246L24.3903 11.0824L31.2195 22.0457L32.1951 21.2115ZM25.9756 11.3208L26.8293 10.7249C27.0732 10.6058 27.439 10.4866 27.6829 10.4866C27.9268 10.4866 28.2927 10.9633 28.7805 11.7974V11.9166C29.1464 12.5124 29.3903 12.9891 29.5122 13.2274C29.6342 13.5849 29.6342 13.7041 29.6342 13.9424C29.6342 14.0616 29.3903 14.2999 29.1464 14.4191L28.2927 14.8958L25.9756 11.3208Z" fill="#FF543D"/>
<path d="M40.3663 17.0408L39.8785 15.9683L37.6834 16.9216L35.6102 12.6317L37.6834 11.6783L37.1956 10.6058L35.1224 11.5592L33.1712 7.50753L35.3663 6.55421L34.8785 5.36255L31.22 7.03087L36.8297 18.7091L40.3663 17.0408Z" fill="#FF543D"/>
<path d="M44.0243 15.7299C44.9999 15.3724 45.4877 14.8958 45.7317 14.2999C45.9756 13.5849 45.8536 12.6316 45.3658 11.44L43.5365 6.07749C43.1707 5.005 42.6829 4.29 42.1951 3.81334C41.5853 3.33667 40.8536 3.33667 39.878 3.57501L37.5609 4.29L41.7073 16.4449L44.0243 15.7299ZM40.2438 4.76667C40.6097 4.6475 40.9756 4.6475 41.3414 5.005C41.5853 5.24333 41.9512 5.83916 42.1951 6.55415L44.1463 12.155C44.5121 13.2274 44.5121 13.9424 44.2682 14.2999C44.1463 14.4191 43.9024 14.5383 43.6585 14.6574L42.9268 14.8958L39.5121 5.005L40.2438 4.76667Z" fill="#FF543D"/>
<path d="M52.1952 6.79257C51.7074 7.50757 51.2196 8.22256 50.9757 8.93756C50.7318 9.65256 50.6098 10.3676 50.7318 11.3209C50.8537 12.155 51.0976 12.87 51.5854 13.2275C52.0732 13.7042 52.683 13.8234 53.2927 13.7042C53.9025 13.585 54.3903 13.4659 54.7562 13.1084C55.122 12.87 55.3659 12.3934 55.6098 11.9167C55.9757 12.5125 56.2196 12.87 56.3415 13.1084L57.683 12.9892C57.683 12.87 57.0732 12.0359 56.0976 10.4867C56.4635 9.29506 56.8293 8.4609 57.1952 7.98423L56.3415 7.03091C55.9757 7.62674 55.6098 8.34173 55.244 9.29506C54.6342 8.22257 54.0245 7.3884 53.6586 6.79257C54.1464 5.95841 54.5123 5.36258 54.7562 4.76675C55.0001 4.17092 55.122 3.45593 55.0001 2.74093C54.8781 2.02594 54.6342 1.43011 54.2684 1.07261C53.9025 0.715113 53.2927 0.595947 52.561 0.595947C51.8293 0.715113 51.2196 0.953445 50.9757 1.43011C50.6098 1.90677 50.4879 2.5026 50.6098 3.33676C50.7318 3.93259 51.2196 5.12425 52.1952 6.79257ZM54.7562 10.725C54.5123 11.2017 54.3903 11.6784 54.1464 11.9167C53.9025 12.155 53.6586 12.3934 53.4147 12.3934C52.683 12.5125 52.1952 12.0359 52.0732 11.2017C51.9513 10.2484 52.1952 9.17589 52.9269 7.98423C53.4147 8.69923 54.0245 9.65256 54.7562 10.725ZM52.0732 2.02594C52.1952 1.78761 52.4391 1.66844 52.683 1.66844C53.0488 1.66844 53.2927 1.66844 53.4147 1.90677C53.6586 2.02594 53.7806 2.38344 53.7806 2.8601C53.9025 3.69426 53.6586 4.52842 53.0488 5.48175C52.4391 4.29009 52.0732 3.57509 51.9513 3.09843C51.9513 2.8601 51.9513 2.62177 51.9513 2.5026C51.9513 2.38344 52.0732 2.1451 52.0732 2.02594Z" fill="#FF543D"/>
<path d="M64.7557 13.1082L67.0727 3.69414L67.5605 13.3466L69.1459 13.4657L71.8288 0.834161L70.3654 0.714995L68.5362 10.3674L67.9264 0.476664L66.7069 0.357498L64.2679 10.0099L64.024 0.119166L62.6825 0L63.1703 12.9891L64.7557 13.1082Z" fill="#FF543D"/>
<path d="M73.2924 14.2998L74.7558 8.22239L76.829 8.69905L75.2436 14.7765L76.829 15.134L79.8778 2.62159L78.4144 2.26409L77.0729 7.50739L75.1217 7.03073L76.3412 1.78743L74.8778 1.42993L71.707 13.9424L73.2924 14.2998Z" fill="#FF543D"/>
<path d="M80.1237 16.2654L84.4951 4.12524L82.9996 3.61108L78.6283 15.7513L80.1237 16.2654Z" fill="#FF543D"/>
<path d="M82.561 17.1598L84.0245 17.7557L88.7806 7.14989L90.0001 7.74572L90.4879 6.55406L86.5854 4.88574L86.0976 6.0774L87.3171 6.55406L82.561 17.1598Z" fill="#FF543D"/>
<path d="M89.6342 20.6158L90.244 19.5433L88.1708 18.4708L90.4879 14.3L92.4391 15.3725L93.0489 14.3L91.0977 13.2275L93.2928 9.41422L95.3659 10.4867L95.9757 9.41422L92.5611 7.50757L86.0977 18.8283L89.6342 20.6158Z" fill="#FF543D"/>
<path d="M5.24391 70.0694L8.65854 74.0019L9.87805 68.9969L14.7561 67.0903L10.2439 64.3495L9.87805 59.2253L5.85366 62.6812L0.731708 61.3703L2.80488 66.137L0 70.5461L5.24391 70.0694Z" fill="#FF543D"/>
<path d="M114.146 62.6812L110.121 59.2253L109.755 64.3495L105.243 67.0903L110.121 68.9969L111.341 74.0019L114.755 70.0694L119.999 70.5461L117.194 66.137L119.268 61.3703L114.146 62.6812Z" fill="#FF543D"/>
<path d="M91.0976 46.594L92.3171 44.449C92.3171 44.449 90.6098 45.2831 87.9269 45.164C85.4878 45.0448 83.9025 48.8581 83.5366 49.6923C83.7805 49.6923 84.0244 49.9306 84.0244 50.1689V50.2881V54.2206C84.6342 53.3864 85.4878 52.7906 86.5854 52.6714C86.7074 52.6714 86.8293 52.6714 86.9513 52.6714C88.7805 52.6714 90.2439 54.1014 90.6098 56.1272C92.561 56.2464 94.1464 58.0339 94.2683 60.1789C94.2683 60.298 94.2683 60.4172 94.2683 60.4172C94.2683 60.8939 94.2683 61.2514 94.1464 61.6089L97.0732 62.8005L97.561 63.0389L95.6098 58.7489L97.4391 59.3447L95.8537 55.7697L97.3171 55.0547L93.4147 51.2414L94.2683 50.4073L93.1708 49.8114L96.3415 47.4281L91.0976 46.594Z" fill="#FF543D"/>
<path d="M83.049 54.5781V50.4073C83.049 50.2881 83.049 50.2881 83.049 50.1689C82.1954 50.5264 80.1222 51.5989 79.2686 53.0289C79.5125 52.9098 79.8783 52.9098 80.1222 52.9098C81.2198 52.9098 82.3173 53.5056 83.049 54.5781Z" fill="#FF543D"/>
<path d="M93.7807 63.2771L93.6587 63.0388C93.6587 63.0388 93.6587 63.158 93.5367 63.158L93.7807 63.2771Z" fill="#FF543D"/>
<path d="M77.5612 56.3655C78.049 56.4847 78.4148 56.6038 78.7807 56.8422C79.1465 57.0805 79.5124 57.438 79.8782 57.9147C80.1221 58.153 80.2441 58.5105 80.366 58.868C80.366 58.7488 80.488 58.6296 80.488 58.5105C80.9758 57.5572 81.8295 56.723 82.6831 56.4847C82.4392 55.0547 81.3416 53.9822 80.1221 53.9822C79.6343 53.9822 79.1465 54.1013 78.7807 54.4588C78.1709 54.8163 77.6831 55.5313 77.5612 56.3655Z" fill="#FF543D"/>
<path d="M89.5123 56.4847C89.3904 56.1272 89.2684 55.7697 89.1465 55.5313C88.7806 54.9355 88.4148 54.4588 87.805 54.2205C87.5611 54.1013 87.1953 53.9822 86.8294 53.9822C85.6099 53.9822 84.6343 55.0547 84.2684 56.3655C85.4879 56.6038 86.4636 57.5572 86.9514 58.7488C87.5611 57.6763 88.5367 56.723 89.5123 56.4847Z" fill="#FF543D"/>
<path d="M76.8287 57.3188C76.5848 57.3188 76.4628 57.3189 76.3409 57.438C75.1214 57.7955 74.1458 59.1063 74.1458 60.6555C74.1458 62.3238 75.2433 63.7538 76.5848 63.9921C76.9506 62.8005 77.8043 61.8472 78.9018 61.4897C79.1458 61.3705 79.2677 61.3705 79.5116 61.3705C79.5116 61.2513 79.5116 61.2513 79.5116 61.1322C79.5116 61.013 79.5116 60.8938 79.5116 60.7747V60.6555C79.5116 59.8213 79.2677 59.1063 78.7799 58.5105C78.6579 58.3913 78.536 58.153 78.4141 58.0338C78.0482 57.7955 77.8043 57.5572 77.3165 57.438C77.1945 57.438 77.0726 57.3188 76.8287 57.3188Z" fill="#FF543D"/>
<path d="M84.1466 57.438C84.0246 57.438 84.0246 57.438 83.9027 57.438H83.7807C83.6588 57.438 83.5368 57.438 83.4149 57.438H83.2929C83.171 57.438 83.1709 57.438 83.1709 57.438C83.049 57.438 83.049 57.5572 82.927 57.5572C81.9514 58.0338 81.3417 59.1063 81.2197 60.4171C81.2197 60.5363 81.2197 60.6555 81.2197 60.6555C81.2197 60.7746 81.2197 60.8938 81.2197 60.8938C81.2197 61.013 81.2197 61.1321 81.2197 61.3705H81.3417C81.5856 61.4896 81.7075 61.6088 81.9514 61.728C82.6831 62.2046 83.2929 63.0388 83.6588 63.9921H83.7807C84.1466 62.8005 85.0002 61.9663 85.9758 61.4896C86.0978 61.4896 86.2197 61.3705 86.3417 61.3705C86.3417 61.2513 86.3417 61.1321 86.3417 61.1321C86.3417 61.013 86.3417 61.013 86.3417 60.8938C86.3417 60.7746 86.3417 60.7746 86.3417 60.6555V60.5363C86.3417 58.9871 85.3661 57.6763 84.1466 57.438Z" fill="#FF543D"/>
<path d="M92.5607 62.8005C92.8046 62.443 93.0485 61.9663 93.0485 61.4897C93.0485 61.4897 93.0485 61.4897 93.0485 61.3705C93.0485 61.1322 93.1704 60.7747 93.1704 60.5363C93.1704 59.9405 93.0485 59.3447 92.8046 58.868C92.4387 58.153 91.9509 57.6763 91.3412 57.438C91.2192 57.3189 90.9753 57.3188 90.7314 57.3188C90.6094 57.3188 90.6094 57.3188 90.4875 57.3188C90.3655 57.3188 90.2436 57.3188 90.1216 57.3188C89.8777 57.3188 89.7558 57.438 89.5119 57.438C88.5363 57.9147 87.8046 58.9872 87.6826 60.4172C87.6826 60.5363 87.6826 60.5363 87.6826 60.6555C87.6826 60.7747 87.6826 60.8938 87.6826 61.013C87.6826 61.1322 87.6826 61.2513 87.6826 61.2513C87.8046 61.2513 87.9265 61.3705 88.0485 61.3705C88.6582 61.6088 89.146 61.8472 89.5119 62.3238C89.9997 62.8005 90.2436 63.3963 90.4875 63.9921C91.4631 63.873 92.0729 63.5155 92.5607 62.8005Z" fill="#FF543D"/>
<path d="M80.1224 68.997C80.6102 67.6862 81.5858 66.7328 82.8053 66.3753C82.8053 66.137 82.9273 65.8987 82.9273 65.6603C82.9273 65.422 82.9273 65.1837 82.8053 64.9454C82.8053 64.707 82.6834 64.4687 82.6834 64.3495C82.4395 63.6345 81.9516 63.0387 81.3419 62.6812C81.2199 62.562 81.098 62.562 80.976 62.562C80.8541 62.562 80.6102 62.4429 80.4882 62.4429H80.3663H80.2443C80.1224 62.4429 80.0004 62.4429 79.8785 62.4429C79.6346 62.4429 79.3907 62.562 79.1468 62.6812C78.659 62.9195 78.1712 63.3962 77.9273 63.8729C77.8053 64.1112 77.6834 64.3495 77.6834 64.5879C77.6834 64.8262 77.5614 64.9454 77.5614 65.1837C77.5614 65.422 77.5614 65.5412 77.5614 65.7795C77.4394 67.4478 78.659 68.997 80.1224 68.997Z" fill="#FF543D"/>
<path d="M87.3174 68.997C88.7809 68.997 90.0004 67.4479 90.0004 65.6604C90.0004 65.4221 90.0004 65.3029 90.0004 65.0646C90.0004 64.8262 89.8784 64.7071 89.8784 64.4687C89.7565 64.2304 89.7565 63.9921 89.6345 63.7537C89.5126 63.5154 89.3906 63.3962 89.2687 63.1579C89.0248 62.9196 88.9028 62.6813 88.6589 62.5621C88.537 62.5621 88.537 62.4429 88.415 62.4429C88.1711 62.3238 87.9272 62.2046 87.6833 62.2046C87.5614 62.2046 87.4394 62.2046 87.3174 62.2046C87.1955 62.2046 87.1955 62.2046 87.0735 62.2046C86.9516 62.2046 86.8296 62.2046 86.7077 62.3238C86.3418 62.4429 86.0979 62.5621 85.854 62.8004C85.7321 62.9196 85.6101 63.1579 85.3662 63.2771C85.1223 63.5154 85.0004 63.8729 84.8784 64.2304C84.7565 64.4687 84.7565 64.5879 84.7565 64.8262C84.7565 65.0646 84.7565 65.3029 84.7565 65.5412C84.7565 65.7796 84.7565 66.0179 84.8784 66.2562C85.854 66.7329 86.7077 67.6862 87.3174 68.997C87.1955 68.997 87.1955 68.997 87.3174 68.997Z" fill="#FF543D"/>
<path d="M83.6585 73.8828C85.1219 73.8828 86.3414 72.3336 86.3414 70.5461C86.3414 70.3078 86.3414 70.0695 86.3414 69.8311C86.3414 69.5928 86.2195 69.3545 86.2195 69.2353C85.8536 68.282 85.2439 67.567 84.5122 67.3286C84.2683 67.2095 84.1463 67.2095 83.9024 67.2095H83.7805H83.6585C83.4146 67.2095 83.2927 67.2095 83.0488 67.3286C82.317 67.567 81.5853 68.282 81.3414 69.2353C81.2195 69.4736 81.2195 69.5928 81.2195 69.8311C81.2195 70.0695 81.0975 70.3078 81.0975 70.5461C80.9756 72.4528 82.1951 73.8828 83.6585 73.8828Z" fill="#FF543D"/>
<path d="M23.0487 62.4428L25.9755 61.2511C26.0975 61.6086 26.2195 61.9661 26.3414 62.2044L26.2195 62.6811L26.5853 62.5619C27.1951 63.5152 28.0487 64.1111 29.0243 64.2302C29.0243 64.4686 29.0243 64.5877 29.0243 64.8261C29.0243 67.0902 30.6097 68.9969 32.439 68.9969C32.439 69.116 32.439 69.3544 32.439 69.4735C32.439 71.8569 34.0243 73.6443 36.0975 73.6443C38.0487 73.6443 39.756 71.7377 39.756 69.4735C39.756 69.3544 39.756 69.116 39.756 68.9969C41.7073 68.9969 43.2926 67.0902 43.2926 64.8261C43.2926 64.5877 43.2926 64.4686 43.2926 64.2302C45.1219 63.9919 46.4634 62.2044 46.4634 60.0594C46.4634 57.9145 44.9999 56.127 43.2926 55.8886C42.9268 54.2203 41.8292 53.0286 40.4878 52.6712C39.6341 51.3603 37.6829 50.407 36.8292 50.0495V50.1687V54.3395C36.7073 54.5778 36.5853 54.8161 36.4634 55.1736C36.3414 54.697 36.0975 54.3395 35.7317 53.982V50.2878V50.1687C35.7317 49.9303 35.9756 49.692 36.2195 49.692C35.7317 48.8578 34.1463 45.1637 31.8292 45.2829C29.2682 45.402 27.5609 44.5679 27.5609 44.5679L28.7804 46.5937L23.7804 47.3087L26.9512 49.5728L25.9755 50.1687L26.7073 51.0028L22.6829 54.8161L24.1463 55.5311L22.6829 59.1061L24.5121 58.5103L22.5609 62.6811L23.0487 62.4428ZM32.5609 68.1627C31.0975 68.1627 29.878 66.7327 29.878 64.9452C29.878 64.7069 29.878 64.4686 29.878 64.3494C29.878 64.2302 29.9999 63.9919 29.9999 63.8727C30.1219 63.6344 30.1219 63.5152 30.2438 63.2769C30.3658 63.0386 30.4877 62.8002 30.6097 62.6811C30.8536 62.4428 31.0975 62.2044 31.3414 62.0853C31.4634 62.0853 31.4634 61.9661 31.5853 61.9661C31.8292 61.8469 31.9512 61.8469 32.1951 61.8469C32.317 61.8469 32.439 61.8469 32.439 61.8469C32.439 61.8469 32.439 61.8469 32.5609 61.8469H32.6829C32.8048 61.8469 32.9268 61.8469 33.0487 61.9661C33.2926 62.0853 33.5365 62.2044 33.7804 62.3236C34.0243 62.5619 34.3902 62.8003 34.5121 63.1577C34.6341 63.3961 34.756 63.6344 34.878 63.8727C34.878 63.9919 34.9999 64.2302 34.9999 64.4686C34.9999 64.7069 35.1219 64.9452 35.1219 65.1836C35.1219 65.4219 35.1219 65.6602 35.1219 65.7794C33.9024 65.8986 33.0487 66.8519 32.5609 68.1627ZM35.9756 72.9294C34.5121 72.9294 33.2926 71.4994 33.2926 69.7119C33.2926 69.4735 33.2926 69.2352 33.2926 69.116C33.2926 68.8777 33.4146 68.7585 33.4146 68.5202C33.5365 68.2819 33.5365 68.0436 33.6585 67.8052C33.9024 67.3286 34.2682 66.9711 34.6341 66.7327C34.878 66.6136 35.1219 66.4944 35.3658 66.3752C35.4877 66.3752 35.7317 66.2561 35.8536 66.2561H35.9756C36.2195 66.2561 36.3414 66.2561 36.5853 66.3752C36.8292 66.4944 37.0731 66.6136 37.317 66.7327C37.5609 66.9711 37.8048 67.2094 37.9268 67.4477C38.0487 67.6861 38.1707 67.9244 38.2926 68.1627C38.2926 68.4011 38.4146 68.5202 38.4146 68.7585C38.4146 68.9969 38.4146 69.2352 38.4146 69.4735C38.6585 71.3802 37.439 72.9294 35.9756 72.9294ZM39.5121 68.1627H39.3902C39.0243 66.8519 38.0487 65.8986 36.9512 65.5411C36.9512 65.3027 36.9512 65.0644 36.9512 64.8261C36.9512 64.5877 36.9512 64.3494 37.0731 64.1111C37.0731 63.8727 37.1951 63.7536 37.1951 63.5152C37.317 63.1577 37.439 62.9194 37.5609 62.6811C37.6829 62.4428 37.8048 62.3236 38.0487 62.0853C38.1707 61.9661 38.1707 61.9661 38.2926 61.8469C38.2926 61.8469 38.2926 61.8469 38.4146 61.8469C38.5365 61.7278 38.7804 61.7278 38.9024 61.6086C39.0243 61.6086 39.2682 61.4894 39.3902 61.4894C39.3902 61.4894 39.3902 61.4894 39.5121 61.4894H39.6341C39.756 61.4894 39.878 61.4894 39.878 61.4894C40.1219 61.4894 40.2439 61.6086 40.4878 61.6086C41.0975 61.8469 41.5853 62.3236 41.8292 62.9194C41.9512 63.1577 41.9512 63.2769 42.0731 63.5152C42.0731 63.6344 42.1951 63.8727 42.1951 63.9919C42.1951 64.2302 42.1951 64.3494 42.1951 64.5877C42.1951 66.7327 40.9756 68.1627 39.5121 68.1627ZM42.6829 56.842C42.8048 56.842 43.0487 56.842 43.1707 56.842C44.3902 57.0803 45.3658 58.5103 45.3658 60.0594C45.3658 61.7278 44.2682 63.1577 42.9268 63.2769C42.5609 62.0853 41.7073 61.1319 40.6097 60.7744C40.3658 60.7744 40.2438 60.7744 39.9999 60.7744C39.9999 60.6553 39.9999 60.6553 39.9999 60.5361C39.9999 60.4169 39.9999 60.2978 39.9999 60.1786C39.9999 60.1786 39.9999 60.1786 39.9999 60.0594C39.9999 59.3444 40.2438 58.6294 40.6097 58.0336C40.7317 57.9145 40.8536 57.6761 40.9756 57.557C41.3414 57.1995 41.7073 56.9611 42.1951 56.842C42.317 56.842 42.439 56.842 42.6829 56.842ZM39.5121 53.5053C39.878 53.5053 40.3658 53.6245 40.6097 53.8628C41.3414 54.2203 41.8292 55.0545 41.9512 55.8886C41.4634 56.0078 40.9756 56.127 40.6097 56.4845C40.2438 56.7228 39.878 57.0803 39.6341 57.4378C39.3902 57.6761 39.2682 58.0336 39.1463 58.3911C39.0243 58.1528 39.0243 58.0336 38.9024 57.9144C38.4146 56.9611 37.6829 56.3653 36.8292 56.0078C37.1951 54.5778 38.2926 53.5053 39.5121 53.5053ZM35.4877 56.842C35.6097 56.842 35.7317 56.842 35.8536 56.842C35.8536 56.842 35.8536 56.842 35.9756 56.842C36.0975 56.842 36.2195 56.842 36.3414 56.842C36.3414 56.842 36.3414 56.842 36.4634 56.842H36.5853C36.7073 56.842 36.8292 56.9611 36.9512 56.9611C37.9268 57.4378 38.6585 58.5103 38.6585 59.8211C38.6585 59.9403 38.6585 59.9403 38.6585 60.0594C38.6585 60.1786 38.6585 60.2978 38.6585 60.2978C38.6585 60.4169 38.6585 60.5361 38.6585 60.7744C38.4146 60.8936 38.1707 61.0128 37.9268 61.1319C37.1951 61.6086 36.7073 62.3236 36.3414 63.2769H36.2195C36.2195 63.2769 36.2195 63.2769 36.0975 63.2769C35.7317 62.0853 34.878 61.2511 33.9024 60.7744C33.7804 60.7744 33.6585 60.6553 33.5365 60.6553C33.5365 60.5361 33.5365 60.4169 33.5365 60.4169C33.5365 60.2978 33.5365 60.2978 33.5365 60.1786V60.0594C33.5365 60.0594 33.5365 60.0594 33.5365 59.9403C33.4146 58.5103 34.2682 57.1995 35.4877 56.842ZM30.6097 54.9353C30.9756 54.3395 31.3414 53.982 31.8292 53.7436C32.0731 53.6245 32.439 53.5053 32.8048 53.5053C34.0243 53.5053 34.9999 54.5778 35.3658 55.8886C34.1463 56.127 33.1707 57.0803 32.6829 58.2719C32.1951 57.0803 31.3414 56.2461 30.2438 55.8886C30.3658 55.6503 30.4877 55.2928 30.6097 54.9353ZM27.1951 58.3911C27.5609 57.6761 28.0487 57.1995 28.6585 56.9611C28.9024 56.842 29.0243 56.842 29.2682 56.842H29.3902C29.5121 56.842 29.6341 56.842 29.756 56.842C29.878 56.842 30.1219 56.9611 30.2438 56.9611C31.2195 57.3186 32.0731 58.5103 32.0731 59.9403V60.0594C32.0731 60.1786 32.0731 60.2978 32.0731 60.4169C32.0731 60.5361 32.0731 60.6553 32.0731 60.7744C31.9512 60.7744 31.8292 60.7744 31.7073 60.8936C31.0975 61.0128 30.4877 61.4894 30.1219 61.9661C29.756 62.4428 29.3902 62.9194 29.2682 63.5152C28.5365 63.3961 27.9268 63.0386 27.439 62.3236C27.0731 61.7278 26.8292 61.0128 26.8292 60.1786C26.7073 59.4636 26.9512 58.8678 27.1951 58.3911Z" fill="#FF543D"/>
<path d="M66.7076 98.6697C66.8296 98.6697 66.9515 98.5505 66.9515 98.5505C68.293 98.0739 69.1466 97.2397 69.6345 96.4055C70.2442 95.4522 70.3662 94.3797 69.8784 93.6647C58.293 82.4631 63.0491 70.6657 63.0491 70.6657H63.171C63.293 70.6657 63.4149 70.5465 63.4149 70.4274V70.3082C63.4149 70.3082 63.4149 70.3082 63.4149 70.189C63.4149 70.189 63.4149 70.189 63.4149 70.0699C63.293 69.9507 63.171 69.8315 63.0491 69.8315H61.7076H60.0003H56.9515C56.7076 69.8315 56.5857 70.0699 56.5857 70.189C56.5857 70.4274 56.8296 70.5465 56.9515 70.5465C56.9515 70.5465 61.5857 82.2248 50.1222 93.5456C49.3905 94.8564 50.2442 97.2397 53.0491 98.4314C53.171 98.4314 53.171 98.5505 53.293 98.5505C53.4149 98.5505 53.4149 98.5505 53.5369 98.6697C53.6588 98.6697 53.6588 98.6697 53.7808 98.6697C53.7808 99.2655 56.5857 99.8614 60.1223 99.8614C63.6588 99.8614 66.4637 99.3847 66.4637 98.6697C66.5857 98.6697 66.5857 98.6697 66.7076 98.6697C66.5857 98.7889 66.5857 98.6697 66.7076 98.6697ZM65.0003 97.0014C65.0003 97.0014 64.8784 97.0014 64.8784 97.1205H64.7564C64.2686 97.2397 63.7808 97.3589 63.171 97.478C62.3174 97.5972 61.2198 97.7164 60.1223 97.7164C60.0003 97.7164 59.8784 97.7164 59.7564 97.7164C58.7808 97.7164 57.8052 97.5972 57.0735 97.5972C56.4637 97.5972 55.9759 97.478 55.4881 97.2397H55.3662C55.2442 97.2397 55.2442 97.2397 55.2442 97.1205C53.171 96.2864 52.5613 94.4989 53.0491 93.5456C55.732 90.9239 57.1954 88.1831 58.0491 85.7998H62.1954C62.9271 88.1831 64.3905 90.9239 67.1954 93.5456C67.6832 94.3797 67.0735 96.1672 65.0003 97.0014Z" fill="#FF543D"/>
<path d="M53.0491 50.7646C53.0491 51.2413 56.2198 51.5988 60.0003 51.5988C63.7808 51.5988 66.9515 51.2413 66.9515 50.7646C66.9515 50.288 64.1466 49.9305 60.4881 49.9305V36.4647C63.5369 36.1072 65.9759 32.4131 66.2198 27.6465C66.2198 27.289 66.2198 26.9315 66.2198 26.574C66.2198 26.2165 66.2198 25.859 66.2198 25.5015V22.0457H53.6588V27.6465C53.7808 30.0298 54.5125 32.0556 55.4881 33.6047C56.3418 34.9156 57.5613 35.9881 58.7808 36.2264C59.0247 36.2264 59.1466 36.3456 59.3905 36.3456V49.8113C55.854 49.9305 53.0491 50.288 53.0491 50.7646Z" fill="#FF543D"/>
<path d="M90.3655 90.0893L60.7314 61.132L90.3655 32.1747L89.6338 31.5789L59.9997 60.5362L30.3655 31.5789L29.6338 32.1747L59.3899 61.132L29.6338 90.0893L30.3655 90.8043L59.9997 61.847L89.6338 90.8043L90.3655 90.0893Z" fill="#FF543D"/>
<path d="M7.43911 53.267C9.26838 42.8996 14.1464 33.2471 21.7074 25.5013L20.9757 24.9055C13.2928 32.6513 8.29277 42.4229 6.4635 53.0287L7.43911 53.267Z" fill="#FF543D"/>
<path d="M19.1465 22.88L18.4148 22.2842C10.1221 30.8641 4.63433 41.4699 2.56116 53.029L3.53677 53.1481C5.60994 41.8274 10.9758 31.3408 19.1465 22.88Z" fill="#FF543D"/>
<path d="M113.537 53.0289C111.708 42.4232 106.708 32.6516 99.0252 24.7866L98.2935 25.3825C105.732 33.1282 110.732 42.6615 112.562 53.1481L113.537 53.0289Z" fill="#FF543D"/>
<path d="M117.439 53.029C115.366 41.4699 109.878 30.8641 101.586 22.2842L100.854 22.88C109.025 31.3408 114.391 41.8274 116.464 53.1481L117.439 53.029Z" fill="#FF543D"/>
</g>
</svg>
