<svg width="120" height="120" viewBox="0 0 120 120" fill="none" xmlns="http://www.w3.org/2000/svg">
<g opacity="0.2">
<path d="M115.658 59.9549L119.638 57.6686C119.879 57.5483 120 57.3076 120 57.0669C120 56.8263 119.879 56.5856 119.638 56.5856L115.417 54.6603L119.156 52.013C119.397 51.8927 119.397 51.652 119.397 51.4114C119.397 51.1707 119.156 51.0504 119.035 50.9301L114.693 49.3658L118.191 46.3575C118.312 46.2372 118.432 45.9965 118.432 45.7558C118.432 45.5152 118.191 45.3948 117.95 45.2745L113.367 44.3119L116.503 40.9426C116.623 40.8223 116.744 40.5816 116.623 40.3409C116.503 40.1003 116.382 39.9799 116.141 39.9799L111.558 39.3783L114.452 35.7684C114.573 35.648 114.573 35.4074 114.573 35.1667C114.452 34.926 114.332 34.8057 114.09 34.8057L109.508 34.5651L112.04 30.7145C112.161 30.4738 112.161 30.2331 112.04 30.1128C111.92 29.8721 111.678 29.7518 111.437 29.7518L106.854 29.9925L109.025 25.9012C109.146 25.6606 109.146 25.4199 109.025 25.2996C108.905 25.0589 108.663 25.0589 108.422 25.0589L103.719 25.5402L105.407 21.3287C105.528 21.088 105.407 20.8473 105.286 20.727C105.166 20.4863 104.925 20.4863 104.683 20.4863L100.221 21.5693L101.548 17.1171C101.668 16.8764 101.548 16.6357 101.427 16.5154C101.307 16.3951 101.065 16.2748 100.824 16.3951L96.4824 17.9594L97.3266 13.3868C97.3266 13.1462 97.3266 12.9055 97.0854 12.7852C96.8442 12.6648 96.7236 12.6648 96.4824 12.6648L92.2613 14.5901L92.7437 10.0175C92.7437 9.77689 92.6231 9.53622 92.5025 9.41589C92.2613 9.29556 92.0201 9.29556 91.8995 9.41589L87.9196 11.7022V7.24994C87.9196 7.00928 87.799 6.76861 87.5578 6.76861C87.3166 6.64828 87.0754 6.64828 86.9548 6.76861L83.2161 9.41589L82.6131 4.84332C82.6131 4.60266 82.4925 4.48233 82.2513 4.362C82.01 4.24166 81.7688 4.362 81.6482 4.48233L78.1508 7.4906L77.3065 2.91802C77.3065 2.67736 77.0653 2.55703 76.8241 2.4367C76.5829 2.31637 76.3417 2.4367 76.2211 2.55703L73.0854 5.9263L71.7588 1.47405C71.6382 1.23339 71.5176 1.11306 71.2764 0.99273C71.0352 0.99273 70.794 0.99273 70.6734 1.23339L67.7789 4.84332L66.0904 0.631737C65.9698 0.391075 65.8492 0.270745 65.608 0.270745C65.3668 0.270745 65.1256 0.391075 65.005 0.511406L62.4724 4.362L60.3015 0.270745C60.0603 -0.0902482 59.4573 -0.0902482 59.2161 0.270745L57.0452 4.362L54.5126 0.511406C54.392 0.270745 54.1508 0.270745 53.9095 0.270745C53.6683 0.270745 53.5477 0.391075 53.4271 0.631737L51.7387 4.84332L48.8442 1.23339C48.7236 1.11306 48.4824 0.99273 48.2412 0.99273C48 0.99273 47.8794 1.23339 47.7588 1.47405L46.4322 5.9263L43.2965 2.55703C43.5377 2.4367 43.2965 2.31637 43.0553 2.4367C42.8141 2.55703 42.6935 2.67736 42.5729 2.91802L41.7286 7.4906L38.2312 4.48233C38.1106 4.362 37.8693 4.24166 37.6281 4.362C37.3869 4.362 37.2663 4.60266 37.2663 4.84332L36.7839 9.41589L33.0452 6.76861C32.804 6.64828 32.5628 6.64828 32.4422 6.76861C32.201 6.88894 32.0804 7.12961 32.0804 7.24994V11.8225L28.1005 9.53622C27.8593 9.41589 27.6181 9.41589 27.4975 9.53622C27.2563 9.65656 27.2563 9.89722 27.2563 10.1379L27.7387 14.7105L23.5176 12.7852C23.2764 12.6648 23.0352 12.6648 22.9146 12.9055C22.794 13.0258 22.6734 13.2665 22.6734 13.5071L23.5176 18.0797L19.1759 16.5154C18.9347 16.3951 18.6935 16.5154 18.5729 16.6357C18.4523 16.7561 18.3317 16.9967 18.4523 17.2374L19.7789 21.6896L15.196 20.4863C14.9548 20.4863 14.7136 20.4863 14.593 20.727C14.4724 20.8473 14.3518 21.088 14.4724 21.3287L16.1608 25.5402L11.5779 24.9386C11.3367 24.9386 11.0955 25.0589 10.9749 25.1792C10.8543 25.4199 10.8543 25.6606 10.9749 25.7809L13.1457 29.8721L8.56281 29.6315C8.32161 29.6315 8.0804 29.7518 7.9598 29.9925C7.8392 30.2331 7.8392 30.4738 7.9598 30.5941L10.4925 34.4447L5.90955 34.6854C5.66834 34.6854 5.42714 34.8057 5.42714 35.0464C5.30653 35.287 5.30653 35.5277 5.54774 35.648L8.44221 39.258L3.8593 39.8596C3.61809 39.8596 3.49749 40.1003 3.37688 40.2206C3.25628 40.4613 3.37688 40.7019 3.49749 40.8223L6.63317 44.1915L2.17085 45.2745C1.92965 45.2745 1.80905 45.5152 1.68844 45.7558C1.68844 45.9965 1.68844 46.2372 1.92965 46.3575L5.30653 49.3658L0.964824 50.9301C0.723618 51.0504 0.603015 51.1707 0.603015 51.4114C0.603015 51.652 0.723618 51.8927 0.844221 52.013L4.58291 54.6603L0.361809 56.5856C0.120603 56.5856 0 56.8263 0 57.0669C0 57.3076 0.120603 57.5483 0.361809 57.6686L4.34171 59.9549L0.361809 62.2412C0.120603 62.3615 0 62.4818 0 62.7225C0 62.9631 0.120603 63.2038 0.361809 63.2038L4.58291 65.1291L0.844221 67.7764C0.603015 67.8967 0.603015 68.1374 0.603015 68.378C0.603015 68.6187 0.844221 68.739 0.964824 68.8594L5.30653 70.3033L1.80905 73.4319C1.68844 73.5523 1.56784 73.7929 1.56784 74.0336C1.56784 74.2743 1.80905 74.3946 2.05025 74.5149L6.51256 75.5979L3.37688 78.9672C3.25628 79.0875 3.13568 79.3281 3.25628 79.5688C3.37688 79.8095 3.49749 79.9298 3.73869 79.9298L8.32161 80.5315L5.42714 84.1414C5.30653 84.2617 5.30653 84.5024 5.30653 84.743C5.42714 84.9837 5.54774 85.104 5.78894 85.104L10.3719 85.3447L7.8392 89.1953C7.71859 89.4359 7.71859 89.6766 7.8392 89.7969C7.9598 90.0376 8.201 90.1579 8.44221 90.0376L13.0251 89.7969L10.8543 93.8882C10.7337 94.1289 10.7337 94.3695 10.8543 94.4898C10.9749 94.7305 11.2161 94.7305 11.4573 94.7305L16.0402 94.1289L14.4724 98.4608C14.3518 98.7014 14.4724 98.9421 14.593 99.0624C14.7136 99.1828 14.9548 99.3031 15.196 99.3031L19.6583 98.2201L18.3317 102.672C18.2111 102.913 18.3317 103.154 18.4523 103.274C18.5729 103.394 18.8141 103.515 19.0553 103.394L23.397 101.83L22.5528 106.403C22.5528 106.643 22.5528 106.884 22.794 107.004C22.9146 107.125 23.1558 107.125 23.397 107.125L27.6181 105.199L27.1357 109.772C27.1357 110.013 27.2563 110.253 27.3769 110.374C27.6181 110.494 27.8593 110.494 27.9799 110.374L31.9598 108.087V112.66C31.9598 112.9 32.0804 113.141 32.3216 113.141C32.5628 113.261 32.804 113.261 32.9246 113.141L36.6633 110.494L37.1457 115.066C37.1457 115.307 37.2663 115.427 37.5075 115.548C37.7487 115.668 37.9899 115.548 38.1106 115.427L41.608 112.419L42.4523 116.992C42.4523 117.232 42.6935 117.353 42.9347 117.473C43.1759 117.593 43.4171 117.473 43.5377 117.353L46.6734 113.983L48 118.436C48.1206 118.676 48.2412 118.797 48.4824 118.917C48.7236 118.917 48.9648 118.917 49.0854 118.676L51.9799 115.066L53.6683 119.278C53.7889 119.519 53.9095 119.639 54.1508 119.639C54.392 119.639 54.6332 119.519 54.7538 119.398L57.2864 115.548L59.4573 119.639C59.5779 119.88 59.8191 120 59.9397 120C60.1809 120 60.4221 119.88 60.4221 119.639L62.593 115.548L65.1256 119.398C65.2462 119.639 65.4874 119.639 65.7286 119.639C65.9698 119.639 66.0905 119.519 66.2111 119.278L67.8995 115.066L70.794 118.676C70.9146 118.797 71.1558 118.917 71.397 118.917C71.6382 118.917 71.7588 118.676 71.8794 118.436L73.206 113.983L76.3417 117.353C76.4623 117.473 76.7035 117.593 76.9447 117.473C77.1859 117.353 77.3065 117.232 77.4271 116.992L78.2714 112.419L81.7688 115.427C81.8895 115.548 82.1307 115.668 82.3719 115.548C82.6131 115.427 82.7337 115.307 82.7337 115.066L83.2161 110.494L86.8342 113.141C87.0754 113.261 87.3166 113.261 87.4372 113.141C87.6784 113.021 87.799 112.78 87.799 112.66V108.087L91.7789 110.374C92.0201 110.494 92.2613 110.494 92.3819 110.374C92.6231 110.253 92.6231 110.013 92.6231 109.772L92.1407 105.199L96.4824 107.125C96.7236 107.245 96.9648 107.245 97.0854 107.004C97.206 106.884 97.3266 106.643 97.3266 106.403L96.4824 101.83L100.824 103.394C101.065 103.515 101.307 103.394 101.427 103.274C101.548 103.154 101.668 102.913 101.548 102.672L100.221 98.2201L104.683 99.3031C104.925 99.3031 105.166 99.3031 105.286 99.0624C105.407 98.9421 105.528 98.7014 105.407 98.4608L103.719 94.2492L108.302 94.8508C108.543 94.8508 108.784 94.7305 108.905 94.6102C109.025 94.3695 109.025 94.1289 108.905 94.0085L106.734 89.9173L111.317 90.1579C111.558 90.1579 111.799 90.0376 111.92 89.9173C112.04 89.6766 112.04 89.4359 111.92 89.3156L109.387 85.465L113.97 85.2244C114.211 85.2244 114.452 85.104 114.452 84.8634C114.573 84.6227 114.573 84.382 114.332 84.2617L111.437 80.6518L116.02 80.0501C116.261 80.0501 116.382 79.8095 116.503 79.6891C116.623 79.4485 116.503 79.2078 116.382 79.0875L113.367 75.5979L117.829 74.5149C118.07 74.5149 118.191 74.2743 118.312 74.0336C118.312 73.7929 118.312 73.5523 118.07 73.4319L114.573 70.4237L118.915 68.9797C119.156 68.8594 119.276 68.739 119.276 68.4984C119.276 68.2577 119.156 68.0171 119.035 67.8967L115.296 65.2494L119.518 63.3241C119.759 63.2038 119.879 63.0835 119.879 62.8428C119.879 62.6022 119.759 62.3615 119.518 62.2412L115.658 59.9549ZM59.9397 108.809C32.9246 108.809 10.9749 86.909 10.9749 59.9549C10.9749 33.0008 32.9246 11.1005 59.9397 11.1005C86.9548 11.1005 108.905 33.0008 108.905 59.9549C109.025 86.909 87.0754 108.809 59.9397 108.809Z" fill="#FF543D"/>
<path d="M59.9398 12.3037C33.6484 12.3037 12.181 33.7226 12.181 59.9547C12.181 86.1869 33.6484 107.606 59.9398 107.606C86.2313 107.606 107.699 86.1869 107.699 59.9547C107.699 33.6023 86.3519 12.3037 59.9398 12.3037ZM59.9398 106.523C34.2514 106.523 13.2665 85.5852 13.2665 59.9547C13.2665 34.2039 34.2514 13.2664 59.9398 13.2664C85.6283 13.2664 106.613 34.2039 106.613 59.8344C106.734 85.5852 85.7489 106.523 59.9398 106.523Z" fill="#FF543D"/>
<path d="M22.6734 47.3201L24.3619 47.9218L24.0001 48.8844C23.397 50.6894 23.8795 52.2537 25.6885 52.8554C27.2563 53.3367 28.4624 52.6147 29.0654 50.8097L30.2714 47.4405L29.3066 47.0795L28.9448 47.8015L23.397 45.8762C23.1558 45.7558 23.1558 45.6355 23.1558 45.3948L23.2764 45.0338L22.3116 44.6729L21.2262 48.0421L22.191 48.4031L22.6734 47.3201ZM25.2061 49.1251L25.4473 48.2828L28.3418 49.2454L28.1006 49.9674C27.7388 51.1707 27.2563 51.7724 26.0503 51.4114C24.9649 50.9301 24.8443 50.0877 25.2061 49.1251Z" fill="#FF543D"/>
<path d="M20.1412 59.5938L22.1915 58.8718C22.6739 58.7515 22.9151 58.5108 23.0357 58.2701C23.2769 58.9921 23.8799 59.8344 25.0859 59.9548C26.7744 60.1954 27.498 58.9921 27.7392 57.1872L28.101 53.8179L27.0156 53.6976L26.895 54.4196L21.106 53.8179C20.8648 53.8179 20.7442 53.5772 20.7442 53.4569V53.0959L19.7794 52.9756L19.4176 56.1042L20.503 56.2245L20.6236 55.3822L22.7945 55.6229L22.6739 56.7058C22.6739 57.1872 22.4327 57.3075 22.0709 57.4278L20.7442 57.9092C20.503 58.0295 20.3824 57.9092 20.3824 57.6685V57.3075L19.297 57.1872L18.9352 60.1954L20.0206 60.3158L20.1412 59.5938ZM24.0005 55.7432L26.6538 55.9839L26.5332 56.9465C26.4126 58.0295 26.1714 58.6311 25.0859 58.5108C24.2417 58.3905 23.7593 57.9092 23.8799 56.8262L24.0005 55.7432Z" fill="#FF543D"/>
<path d="M21.8286 66.3324L21.2255 66.4527C20.9843 66.4527 20.8637 66.4527 20.7431 66.0917L20.5019 64.0461L22.914 63.8054L23.1552 66.6934L24.4818 66.573L24.12 63.6851L26.2909 63.4444L26.5321 65.2494C26.5321 65.6104 26.4115 65.6104 26.1703 65.6104H25.6879L25.9291 66.934L27.9793 66.6934L27.3763 60.9175L26.2909 61.0378V61.7598L20.5019 62.6021C20.2607 62.6021 20.1401 62.4818 20.1401 62.2411L20.0195 61.8801L19.0547 62.0005L19.6577 67.8967L21.9492 67.656L21.8286 66.3324Z" fill="#FF543D"/>
<path d="M29.3066 76.0791C29.6684 75.9588 29.789 76.0791 29.789 76.3198L29.9096 76.6808L30.8744 76.3198L30.1508 73.9132L24.1206 73.7928L28.7036 69.8219L27.8593 67.4153L26.8945 67.7763L27.1357 68.4983L21.4674 70.1829C21.2262 70.1829 21.1056 70.1829 20.985 69.9422L20.7438 69.5812L19.7789 69.9422L20.7438 72.7098L21.7086 72.3488L21.4674 71.5065L25.9297 70.1829L21.8292 73.6725L22.191 74.7555L27.6181 74.8758L23.5176 76.5604C23.2764 76.6808 23.1558 76.5604 23.1558 76.3198L22.9146 75.9588L21.9498 76.3198L23.0352 79.2077L24 78.8467V78.2451L29.3066 76.0791Z" fill="#FF543D"/>
<path d="M31.96 79.3282L32.2012 79.6891L33.0454 79.2078L31.4776 76.5605L30.5127 77.0419L30.8746 77.6435L25.9298 80.6518C25.6886 80.7721 25.568 80.7721 25.3268 80.5315L25.0856 80.1705L24.2414 80.6518L25.8092 83.2991L26.7741 82.6974L26.4122 82.0958L31.357 79.0875C31.7188 79.0875 31.8394 79.0875 31.96 79.3282Z" fill="#FF543D"/>
<path d="M37.0255 85.5851L37.3873 85.8257L38.1109 85.1037L36.1813 82.9378L35.3371 83.6598L35.8195 84.2614L32.322 87.2697C31.5984 87.9917 30.7542 87.751 30.0305 87.029C29.3069 86.307 29.1863 85.5851 30.1511 84.7427L33.2868 81.9751C33.528 81.7345 33.6486 81.8548 33.8898 81.9751L34.2516 82.2158L34.9753 81.4938L32.925 79.2075L32.0808 79.9295L32.5632 80.5312L29.0657 83.5394C27.6185 84.8631 27.6185 86.1867 29.0657 87.751C30.2717 89.195 31.8396 89.4356 33.1662 88.3527L36.5431 85.3444C36.7843 85.3444 36.9049 85.4647 37.0255 85.5851Z" fill="#FF543D"/>
<path d="M38.8342 92.6849L40.1608 86.7887L38.1106 85.3447L37.5075 86.187L38.1106 86.6684L34.6131 91.3613C34.4925 91.4816 34.3719 91.4816 34.1307 91.4816L33.7688 91.2409L33.1658 92.0833L35.6985 93.7679L36.3015 92.9256L35.6985 92.4443L38.4724 88.714L37.2663 93.8882L38.2312 94.4899L42.5729 91.3613L40.2814 95.2119C40.1608 95.4525 40.0402 95.4525 39.799 95.3322L39.5578 95.0915L38.9548 95.9338L41.4874 97.6185L42.0905 96.7762L41.4874 96.2948L44.3819 91.3613C44.5025 91.1206 44.7437 91.1206 44.9849 91.2409L45.3467 91.4816L45.9497 90.6393L43.7789 89.075L38.8342 92.6849Z" fill="#FF543D"/>
<path d="M52.101 92.2035C50.4126 91.7222 48.1211 92.3238 47.3975 95.4524C46.7945 97.9794 47.3975 99.5437 49.3271 100.266L48.8447 101.108C49.2065 101.108 49.5684 101.228 49.8096 101.228C51.1362 101.71 51.9804 103.274 53.7895 103.515L54.2719 102.432C52.5834 102.191 52.4628 101.108 50.895 100.627C52.704 100.627 53.9101 99.4233 54.5131 97.3777C55.2367 94.1288 53.9101 92.6848 52.101 92.2035ZM52.9452 96.8964C52.5834 98.3404 51.7392 99.664 50.1714 99.303C48.3623 98.8217 48.4829 97.1371 48.8447 95.6931C49.2065 94.2491 50.0508 92.9255 51.6186 93.2865C53.4276 93.8881 53.307 95.6931 52.9452 96.8964Z" fill="#FF543D"/>
<path d="M60.4224 94.3696H61.1461L61.0255 98.9422C61.0255 100.025 60.4224 100.507 59.337 100.507C58.3722 100.507 57.6486 100.146 57.7692 98.9422V94.7306C57.7692 94.3696 57.8898 94.3696 58.131 94.3696H58.4928V93.407H55.4777V94.49H56.2013L56.0807 99.0625C56.0807 100.988 57.0456 101.83 59.2164 101.95C61.1461 101.95 62.3521 100.988 62.4727 99.4235V94.9713C62.4727 94.7306 62.5933 94.6103 62.8345 94.6103H63.1963V93.6476H60.1812L60.4224 94.3696Z" fill="#FF543D"/>
<path d="M71.5173 98.9422L67.5374 92.4443L64.7635 93.046L65.0047 94.0086L65.8489 93.8883L65.1253 100.025C65.1253 100.266 65.0047 100.386 64.8841 100.507L64.5223 100.627L64.7635 101.589L67.658 100.988L67.0549 99.9048L66.3313 100.025L66.4519 98.8219L69.3464 98.2202L69.7082 98.9422C69.8288 99.1829 69.7082 99.3032 69.467 99.4235L68.9846 99.5439L69.2258 100.507L72.3615 99.7845L72.1203 98.7015L71.5173 98.9422ZM66.5725 97.7389L66.9343 94.0086L68.7434 97.2576L66.5725 97.7389Z" fill="#FF543D"/>
<path d="M77.1859 94.9713L77.5477 95.8136C77.6683 96.0542 77.6683 96.1746 77.4271 96.2949L75.4975 97.1372L73.206 92.0833C73.0854 91.8427 73.206 91.7223 73.3266 91.602L73.6884 91.3613L73.3266 90.3987L70.5527 91.602L71.0351 92.5646L71.7588 92.324L74.1708 97.6185C74.2914 97.8592 74.1708 97.9795 73.9296 98.0999L73.5678 98.3405L73.9296 99.3032L79.3568 96.8966L78.3919 94.6103L77.1859 94.9713Z" fill="#FF543D"/>
<path d="M82.1301 93.7677L78.9945 88.9544C78.8739 88.7138 78.8738 88.5934 79.1151 88.4731L79.4769 88.2325L78.8739 87.3901L76.3412 89.0748L76.9442 89.9171L77.5472 89.5561L80.6829 94.3693C80.8035 94.61 80.8035 94.7303 80.5623 94.971L80.2005 95.0913L80.8035 95.9336L83.3362 94.249L82.7331 93.4067L82.1301 93.7677Z" fill="#FF543D"/>
<path d="M92.2613 84.0213L90.5728 82.818L88.7638 78.9674C88.6432 78.7267 88.6432 78.6064 88.7638 78.3658L89.005 78.0048L88.0402 77.5234L86.4723 79.6894L87.3165 80.291L87.6783 79.8097L89.005 82.457L86.5929 81.9757C86.3517 81.9757 86.2311 81.735 86.3517 81.4944L86.5929 81.1334L85.6281 80.652L83.9397 82.9383L78.9949 87.2702L80.4422 88.8345L81.407 87.9922L81.0452 87.5109C80.9246 87.3906 80.804 87.1499 81.0452 87.0296L81.7688 86.4279L85.5075 90.6395C85.6281 90.8802 85.6281 91.0005 85.5075 91.1208L85.0251 91.6021L85.7487 92.3241L88.402 89.9175L87.6783 89.0752L86.9547 89.6769L82.9748 85.2246L83.5779 84.623C83.8191 84.3823 83.9397 84.5026 84.0603 84.623L84.4221 85.4653L85.2663 84.5026L84.5427 83.6603L84.9045 83.179L89.4874 83.901L90.9346 84.984C91.1758 85.1043 91.1758 85.3449 91.0552 85.4653L90.6934 86.0669L91.5376 86.6686L93.7085 83.7806L92.8643 83.2993L92.2613 84.0213Z" fill="#FF543D"/>
<path d="M99.6176 64.1664L93.8287 63.5647C93.4669 63.5647 93.4669 63.324 93.4669 63.2037V62.8427L92.3815 62.6021L92.0197 65.6103H92.5021L91.6578 68.3779L92.6227 68.7389L92.8639 68.1373L97.5674 70.7846L91.6578 70.3032L91.1754 71.8675L96.2408 74.8758L91.296 74.3945C90.9342 74.3945 90.9342 74.1538 90.9342 73.9132L91.0548 73.5522L90.09 73.1912L89.1252 76.1994L90.09 76.5604L90.3312 75.8385L97.8086 76.4401L98.4116 74.7555L93.4669 71.8675L99.2558 72.3489L99.7382 70.6642L93.7081 67.0543C93.4669 66.934 93.3463 66.8136 93.3463 66.573L93.4669 66.212L92.6227 65.9713H93.1051L93.2257 65.2493L99.0146 65.851C99.3764 65.851 99.3764 65.9713 99.3764 66.212V66.573L100.341 66.6933L100.703 63.685L99.6176 63.5647V64.1664Z" fill="#FF543D"/>
<path d="M93.1051 54.6603L92.9845 54.179L92.0197 54.2993L92.2609 57.3076L93.3463 57.1872V56.3449L98.0499 55.9839L92.5021 59.9548L92.6227 62.2411L93.7081 62.1208V61.3988L99.4971 60.9175C99.7383 60.9175 99.8589 61.0378 99.8589 61.1581L99.9795 61.6395L100.944 61.5191L100.703 58.3905L99.6177 58.5109V59.3532L94.9142 59.7142L100.462 55.6229L100.341 54.179L93.4669 54.6603C93.2257 54.9009 93.1051 54.7806 93.1051 54.6603Z" fill="#FF543D"/>
<path d="M94.7937 47.8015L93.5876 48.1625L94.4319 50.9301L92.3816 51.5318L91.7786 49.7268C91.658 49.3658 91.7786 49.3658 92.0198 49.2455L92.5022 49.1252L92.0198 47.9219L89.9695 48.5235L91.658 54.0588L92.6228 53.6978L92.5022 52.9758L98.0499 51.2911C98.2912 51.1708 98.4118 51.2911 98.5324 51.5318L98.653 51.8928L99.6178 51.6521L97.8087 45.9966L95.6379 46.5982L95.8791 47.8015L96.4821 47.5609C96.7233 47.4406 96.8439 47.4406 96.9645 47.8015L97.5675 49.7268L95.6379 50.5692L94.7937 47.8015Z" fill="#FF543D"/>
<path d="M40.6433 32.76L38.4725 29.1501L38.8343 28.9095C39.0755 28.7891 39.3167 28.6688 39.4373 28.7891C39.5579 28.9095 39.7991 29.0298 39.9197 29.3908C41.0051 31.1957 41.6081 32.0381 41.6081 32.1584L42.8142 31.4364C42.6936 31.4364 42.4524 30.8348 41.8493 29.8721C41.2463 28.9095 40.7639 28.3078 40.5227 28.0671C40.2815 27.8265 39.9197 27.7061 39.6785 27.8265C39.9197 27.5858 39.9197 27.3452 39.9197 26.9842C39.9197 26.6232 39.6785 26.2622 39.4373 25.7809C39.1961 25.2995 38.8343 24.9385 38.5931 24.6979C38.3519 24.4572 38.1106 24.3369 37.7488 24.2166C37.5076 24.2166 37.1458 24.3369 36.6634 24.5775L34.7338 25.7809L39.4373 33.482L40.6433 32.76ZM37.8694 28.1875L36.5428 25.9012L36.9046 25.6605C37.1458 25.5402 37.387 25.4199 37.5076 25.5402C37.6282 25.6605 37.8694 25.9012 38.1107 26.2622C38.3519 26.6232 38.4725 26.8638 38.4725 26.9842C38.5931 27.2248 38.5931 27.3452 38.5931 27.4655C38.5931 27.5858 38.4725 27.7061 38.3519 27.8265L37.8694 28.1875Z" fill="#FF543D"/>
<path d="M46.5532 29.6315L46.0708 28.6689L44.503 29.2705L43.2969 26.7436L44.7442 26.0216L44.2618 25.0589L42.8145 25.6606L41.7291 23.254L43.2969 22.6523L42.6939 21.5693L40.0406 22.7726L43.7793 30.9551L46.5532 29.6315Z" fill="#FF543D"/>
<path d="M49.2061 28.7891C49.8092 28.5485 50.2916 28.1875 50.4122 27.7062C50.5328 27.2248 50.5328 26.5029 50.171 25.6605L48.9649 21.81C48.7237 21.088 48.3619 20.6066 48.0001 20.2457C47.6383 20.005 47.0353 19.8847 46.4323 20.1253L44.6232 20.8473L47.3971 29.3908L49.2061 28.7891ZM46.5529 21.2083C46.7941 21.088 47.0353 21.2083 47.1559 21.3286C47.2765 21.449 47.5177 21.81 47.6383 22.1709L48.9649 26.3825C49.0855 26.7435 49.0855 27.1045 49.0855 27.3452C49.0855 27.5858 48.8443 27.7062 48.6031 27.7062L48.1207 27.8265L45.9499 21.3286L46.5529 21.2083Z" fill="#FF543D"/>
<path d="M54.2711 22.652C53.9093 23.1334 53.6681 23.6147 53.4269 24.2163C53.1857 24.6977 53.1857 25.179 53.1857 25.7806C53.3063 26.3823 53.4269 26.7433 53.7887 27.1043C54.1505 27.4653 54.5123 27.5856 55.1153 27.4653C55.7183 27.3449 56.0801 27.1043 56.442 26.5026C56.6832 26.8636 56.8038 26.984 56.8038 27.1043L58.0098 26.984C58.0098 26.8636 57.7686 26.623 57.5274 26.262C57.2862 25.901 57.045 25.54 56.9244 25.179V25.0587C57.1656 24.3367 57.4068 23.735 57.648 23.374L56.9244 22.5317C56.6832 22.8927 56.442 23.4944 56.0801 24.096C55.7183 23.374 55.3565 22.8927 55.2359 22.5317C55.5977 22.0504 55.8389 21.5691 55.9595 21.0877C56.0801 20.6064 56.2007 20.1251 56.0801 19.6438C55.9595 19.1624 55.8389 18.8014 55.4771 18.4405C55.1153 18.1998 54.7535 18.0795 54.2711 18.1998C53.7887 18.3201 53.3063 18.4405 53.0651 18.8014C52.8239 19.1624 52.7033 19.5234 52.8239 20.1251C53.3063 20.6064 53.6681 21.4487 54.2711 22.652ZM54.9947 19.1624C55.2359 19.1624 55.3565 19.1624 55.4771 19.2828C55.5977 19.4031 55.5977 19.6438 55.7183 19.8844C55.7183 20.2454 55.5977 20.8471 55.2359 21.4487C54.8741 20.7267 54.6329 20.2454 54.6329 20.0048C54.3917 19.5234 54.5123 19.1624 54.9947 19.1624ZM54.8741 23.735C55.2359 24.3367 55.5977 24.9383 55.9595 25.4196C55.8389 25.6603 55.7183 25.901 55.5977 26.0213C55.4771 26.1416 55.3565 26.262 55.2359 26.262C54.8741 26.1416 54.6329 25.901 54.3917 25.4196C54.3917 25.0587 54.5123 24.457 54.8741 23.735Z" fill="#FF543D"/>
<path d="M62.7138 26.984L64.0405 21.0878L64.4023 27.1043L65.7289 27.2247L67.4174 18.3202H66.2113L65.1259 24.5774L64.7641 18.1999L63.6787 18.0795L62.352 24.3367L62.2314 17.9592L61.0254 17.8389L61.3872 26.8637L62.7138 26.984Z" fill="#FF543D"/>
<path d="M68.8646 27.8263L69.8294 23.8554L71.0354 24.0961L69.95 28.1873L71.3973 28.428L73.4475 19.7642L72.1209 19.4032L71.2767 22.8928L70.0706 22.6521L70.9148 19.1625L69.5882 18.8015L67.4174 27.5857L68.8646 27.8263Z" fill="#FF543D"/>
<path d="M73.7164 29.316L76.7402 20.8101L75.4899 20.3676L72.4661 28.8735L73.7164 29.316Z" fill="#FF543D"/>
<path d="M75.3768 29.9924L76.5828 30.4738L79.8391 23.3742L80.6833 23.8556L81.1657 22.7726L78.03 21.3286L77.5476 22.4116L78.5124 22.8929L75.3768 29.9924Z" fill="#FF543D"/>
<path d="M80.6832 32.7601L81.2862 31.6771L79.839 30.8348L81.2862 28.4282L82.6128 29.1502L83.2158 28.1875L81.7686 27.3452L83.0952 25.1792L84.5425 25.9012L85.1455 24.9386L82.4922 23.3743L78.0299 31.1958L80.6832 32.7601Z" fill="#FF543D"/>
<path d="M27.0148 42.7476L30.1505 41.0629L33.2861 42.7476L32.6831 39.258L35.2158 36.8514L31.7183 36.2497L30.1505 33.1211L28.5826 36.2497L25.0851 36.8514L27.6178 39.258L27.0148 42.7476Z" fill="#FF543D"/>
<path d="M89.8487 33.1211L88.2809 36.2497L84.7834 36.8514L87.316 39.258L86.713 42.7476L89.8487 41.0629L92.9844 42.7476L92.3814 39.258L94.914 36.8514L91.4166 36.2497L89.8487 33.1211Z" fill="#FF543D"/>
<path d="M43.7789 84.5021C43.7789 84.9834 46.9146 85.3444 50.7739 85.3444C54.6332 85.3444 57.7689 84.9834 57.7689 84.5021C57.7689 84.0208 54.8744 83.6598 51.2563 83.6598V69.7014C53.4272 68.9794 54.995 64.1662 54.995 58.27V49.3655H53.4272H46.4322V58.27C46.4322 62.2409 47.1558 65.7305 48.2412 67.7761C48.6031 68.4981 49.0855 69.0998 49.5679 69.4607C49.8091 69.5811 49.9297 69.7014 50.1709 69.7014V83.5395C46.6734 83.6598 43.7789 84.0208 43.7789 84.5021ZM50.1709 66.8135C49.9297 66.5728 49.6885 66.3321 49.4473 65.8508C48.8443 64.6475 48.3618 62.6019 48.3618 60.3156V55.1414H53.3066V60.3156C53.3066 60.5563 53.3066 60.7969 53.3066 61.0376C53.186 63.8052 52.4623 66.0915 51.4975 66.8135C51.2563 66.9338 51.1357 67.0541 50.8945 67.0541C50.5327 67.0541 50.4121 67.0541 50.1709 66.8135Z" fill="#FF543D"/>
<path d="M56.683 52.735V72.7099V75.1165V81.1331C56.683 83.7804 58.8538 85.9463 61.5071 85.9463H65.0046C67.6579 85.9463 69.8287 83.7804 69.8287 81.1331V75.1165V73.0709V52.735C69.8287 52.013 69.7081 51.4113 69.4669 50.8097C69.1051 49.847 68.6227 48.8844 67.8991 48.1624C67.8991 48.1624 67.8991 48.1624 67.7785 48.0421C67.296 47.5607 66.8136 47.1998 66.3312 46.9591V37.3326C66.3312 36.9716 66.3312 36.731 66.2106 36.4903C66.2106 36.4903 66.2106 36.4903 66.2106 36.37C66.2106 36.2496 66.2106 36.2496 66.2106 36.1293V33.7227C66.2106 33.6024 66.2106 33.482 66.2106 33.482C66.2106 33.3617 66.09 33.3617 66.09 33.2414C66.09 33.121 65.9694 33.121 65.8488 33.121C65.7282 33.121 65.7282 33.0007 65.6076 33.0007V32.8804C65.6076 32.399 65.2458 31.9177 64.6428 31.9177H62.7131H61.9895C61.5071 31.9177 61.0247 32.2787 61.0247 32.8804V33.0007C60.9041 33.0007 60.9041 33.0007 60.7835 33.121C60.6629 33.121 60.6629 33.2414 60.5423 33.2414C60.5423 33.3617 60.4217 33.3617 60.4217 33.482C60.4217 33.6024 60.4217 33.7227 60.4217 33.7227V36.009C60.4217 36.1293 60.4217 36.1293 60.4217 36.2496C60.4217 36.2496 60.4217 36.2496 60.4217 36.37C60.3011 36.6106 60.3011 36.9716 60.3011 37.2123V46.8388C59.8187 47.0794 59.4569 47.3201 58.9744 47.6811C58.0096 48.5234 57.4066 49.486 57.0448 50.6893C56.8036 51.4113 56.683 52.013 56.683 52.735ZM57.4066 74.9962C57.4066 73.6726 57.4066 72.5896 57.4066 72.5896V62.4818H67.296H69.2257V72.9506C69.2257 72.9506 69.2257 73.7929 69.2257 74.9962V78.0045H67.296H57.4066V74.9962Z" fill="#FF543D"/>
<path d="M67.2962 71.0253L68.3816 71.5066L68.6228 71.627L67.658 69.822L68.3816 70.0627L67.7786 68.6187L68.3816 68.378L67.2962 67.1747L66.9344 66.8137L67.2962 66.4527L66.9344 66.2121L67.4168 65.8511L68.1404 65.2494L67.2962 65.0088L65.9696 64.7681L66.452 63.9258C66.452 63.9258 65.849 64.2868 64.7636 64.2868C63.7987 64.2868 63.1957 65.7307 63.0751 66.0917C63.1957 66.0917 63.3163 66.2121 63.3163 66.3324V67.656C63.1957 67.7764 63.0751 67.8967 63.0751 68.017C63.0751 67.8967 62.9545 67.8967 62.9545 67.7764V66.3324C62.9545 66.3324 62.9545 66.3324 62.9545 66.2121C62.7133 66.3324 61.9897 66.6934 61.6279 67.1747C61.0249 67.295 60.4218 67.7764 60.3012 68.4984C59.5776 68.6187 58.9746 69.461 58.9746 70.3033C58.9746 71.266 59.5776 71.988 60.3012 72.1083V72.2286C60.3012 73.1913 60.9043 74.0336 61.7485 74.0336C61.7485 74.0336 61.7485 74.0336 61.7485 74.1539C61.7485 75.2369 62.4721 76.0792 63.3163 76.0792C64.1605 76.0792 64.8842 75.2369 64.8842 74.1539V74.0336C65.6078 73.9132 66.3314 73.1913 66.3314 72.2286V72.1083C66.6932 71.988 67.055 71.7473 67.2962 71.3863C67.055 71.266 67.1756 71.1456 67.2962 71.0253ZM64.2811 67.8967C64.6429 67.8967 65.0048 68.2577 65.1254 68.739C64.7636 68.8593 64.5223 69.1 64.2811 69.461C64.0399 69.1 63.7987 68.8593 63.3163 68.739C63.5575 68.1374 63.9193 67.8967 64.2811 67.8967ZM62.7133 69.3407C62.8339 69.2203 62.8339 69.2203 62.7133 69.3407C62.8339 69.3407 62.8339 69.3407 62.8339 69.3407H62.9545H63.0751C63.1957 69.3407 63.1957 69.3407 63.3163 69.461C63.5575 69.5813 63.7987 69.9423 63.9193 70.3033C63.9193 70.3033 63.9193 70.4237 63.9193 70.544V70.6643C63.9193 70.6643 63.9193 70.6643 63.9193 70.7846C63.7987 70.7846 63.6781 70.905 63.5575 70.905C63.3163 71.0253 63.0751 71.3863 62.9545 71.627C62.8339 71.266 62.5927 71.0253 62.3515 70.905C62.3515 70.905 62.3515 70.905 62.2309 70.905C62.1103 70.905 62.1103 70.7846 61.9897 70.7846V70.6643C61.9897 70.6643 61.9897 70.6643 61.9897 70.544C61.9897 70.4237 61.9897 70.3033 61.9897 70.183C62.1103 69.9423 62.1103 69.7017 62.3515 69.5813C62.5927 69.3407 62.5927 69.3407 62.7133 69.3407ZM61.1455 68.017C61.2661 67.8967 61.3867 67.8967 61.6279 67.8967C61.9897 67.8967 62.3515 68.2577 62.4721 68.739C62.2309 68.8593 61.8691 69.1 61.7485 69.3407V69.461C61.7485 69.461 61.7485 69.3407 61.6279 69.3407C61.5073 69.1 61.3867 68.9797 61.1455 68.8594C61.0249 68.739 60.9043 68.739 60.7837 68.6187C60.9043 68.378 61.0249 68.1374 61.1455 68.017ZM60.1806 71.627C59.6982 71.5066 59.457 71.0253 59.457 70.4237C59.457 69.9423 59.6982 69.461 60.06 69.3407C60.1806 69.3407 60.3012 69.2203 60.4218 69.2203C60.5424 69.2203 60.6631 69.2203 60.7837 69.3407C60.9043 69.3407 61.0249 69.461 61.0249 69.5813C61.0249 69.5813 61.0249 69.7017 61.1455 69.7017C61.2661 69.822 61.3867 70.0627 61.3867 70.3033C61.3867 70.4237 61.3867 70.4237 61.3867 70.544V70.6643C61.2661 70.6643 61.1455 70.7846 61.0249 70.7846C60.5424 70.905 60.3012 71.266 60.1806 71.627ZM61.6279 73.5523C61.1455 73.5523 60.7837 72.9506 60.7837 72.3489V72.2286C60.7837 72.1083 60.7837 71.988 60.9043 71.8676C61.0249 71.5066 61.2661 71.266 61.5073 71.266H61.6279C61.7485 71.266 61.7485 71.266 61.8691 71.266C61.9897 71.266 61.9897 71.266 62.1103 71.3863C62.2309 71.5066 62.3515 71.627 62.4721 71.8676C62.5927 71.988 62.5927 72.1083 62.5927 72.3489C62.5927 72.4693 62.5927 72.4693 62.5927 72.5896V72.7099C62.1103 72.7099 61.7485 73.0709 61.6279 73.5523ZM63.0751 75.5979C62.5927 75.5979 62.1103 75.1166 62.1103 74.3946C62.1103 74.2742 62.1103 74.2742 62.1103 74.2742C62.1103 74.1539 62.1103 73.9132 62.2309 73.7929C62.3515 73.5523 62.4721 73.4319 62.5927 73.3116C62.7133 73.3116 62.8339 73.1913 62.8339 73.1913C62.8339 73.1913 62.8339 73.1913 62.9545 73.1913C63.0751 73.1913 63.1957 73.1913 63.1957 73.3116C63.4369 73.4319 63.5575 73.5523 63.6781 73.9133C63.6781 74.0336 63.7987 74.1539 63.7987 74.3946V74.5149C63.9193 74.9962 63.5575 75.5979 63.0751 75.5979ZM64.5223 73.5523C64.2811 73.0709 63.9193 72.7099 63.5575 72.4693V72.3489C63.5575 72.2286 63.5575 72.2286 63.5575 72.1083C63.5575 71.988 63.6781 71.7473 63.6781 71.627C63.7987 71.3863 63.9193 71.266 64.1605 71.1456C64.1605 71.1456 64.2811 71.1456 64.2811 71.0253C64.2811 71.0253 64.4017 71.0253 64.5223 71.0253C64.5223 71.0253 64.5223 71.0253 64.6429 71.0253H64.7636C65.0048 71.1456 65.246 71.3863 65.3666 71.627C65.3666 71.7473 65.4872 71.8676 65.4872 71.988V72.1083C65.3666 73.0709 65.0048 73.5523 64.5223 73.5523ZM66.3314 71.266C66.2108 71.5066 66.0902 71.627 65.849 71.627C65.7284 71.3863 65.6078 71.1456 65.4872 71.0253C65.3666 70.905 65.246 70.7846 65.1254 70.6643C65.0048 70.6643 64.8842 70.544 64.7636 70.544C64.7636 70.544 64.7636 70.544 64.7636 70.4237C64.7636 70.4237 64.7636 70.4237 64.7636 70.3033C64.7636 70.183 64.7636 70.0627 64.7636 69.9423C64.8842 69.7017 65.0048 69.461 65.1254 69.2203C65.246 69.1 65.3666 69.1 65.4872 69.1H65.6078C65.7284 69.1 65.7284 69.1 65.849 69.1C66.2108 69.2203 66.5726 69.7017 66.5726 70.3033C66.5726 70.7846 66.5726 71.0253 66.3314 71.266Z" fill="#FF543D"/>
</g>
</svg>
