<svg width="62" height="62" viewBox="0 0 62 62" fill="none" xmlns="http://www.w3.org/2000/svg">
<path d="M60.9999 53.2064H43.2915V29.5472H60.9999V53.2064Z" stroke="#FF543D" stroke-width="1.7" stroke-miterlimit="10" stroke-linecap="round" stroke-linejoin="round"/>
<path d="M55.4087 1.00003H48.8827C48.6474 1.00003 48.4217 1.07889 48.2553 1.21926C48.0888 1.35963 47.9954 1.55001 47.9954 1.74852V4.86925C47.9954 5.06776 48.0888 5.25814 48.2553 5.39851C48.4217 5.53888 48.6474 5.61774 48.8827 5.61774H55.4087C55.644 5.61774 55.8697 5.53888 56.0362 5.39852C56.2026 5.25815 56.2961 5.06777 56.2961 4.86925V1.74852C56.2961 1.33516 55.8987 1.00003 55.4087 1.00003Z" stroke="#FF543D" stroke-width="1.7" stroke-miterlimit="10" stroke-linecap="round" stroke-linejoin="round"/>
<path d="M57.7769 21.6034C56.1826 20.494 55.2199 18.8677 55.2199 17.1243V5.61771H49.0716V17.1243C49.0716 18.8677 48.109 20.494 46.5146 21.6034C44.5464 22.9732 43.2915 25.0462 43.2915 27.3668V58.4997C43.2915 59.8805 44.6186 61 46.2557 61H58.0358C59.6729 61 61.0001 59.8805 61.0001 58.4997V27.3668C61.0001 25.0462 59.7452 22.9732 57.7769 21.6034Z" stroke="#FF543D" stroke-width="1.7" stroke-miterlimit="10" stroke-linecap="round" stroke-linejoin="round"/>
<path d="M52.1457 18.7026C53.2706 18.7038 54.367 18.4041 55.2772 17.8465C55.2397 17.607 55.2205 17.3658 55.2198 17.1243V5.61769H49.0716V17.1243C49.0716 17.3678 49.0508 17.6086 49.0142 17.8465C49.9244 18.4041 51.0208 18.7038 52.1457 18.7026Z" stroke="#FF543D" stroke-width="1.7" stroke-miterlimit="10" stroke-linecap="round" stroke-linejoin="round"/>
<path d="M34.5536 0.999965H29.488C28.6243 0.999965 27.9242 1.59067 27.9242 2.31924V7.99328C27.9242 8.72186 28.6243 9.31244 29.488 9.31244H34.5536C35.4174 9.31244 36.1176 8.72186 36.1176 7.99328V2.31924C36.1176 1.59067 35.4174 0.999965 34.5536 0.999965Z" stroke="#FF543D" stroke-width="1.7" stroke-miterlimit="10" stroke-linecap="round" stroke-linejoin="round"/>
<path d="M39.0612 25.3529C37.1535 22.2211 35.2685 17.1599 35.0161 9.25381C34.8663 9.29278 34.7104 9.31256 34.5536 9.31248H29.488C29.3312 9.31256 29.1753 9.29278 29.0254 9.25381C28.7731 17.1599 26.8881 22.2211 24.9804 25.3529C22.2003 29.9165 20.7501 34.9734 20.7501 40.1043V59.052C20.7501 60.1279 21.784 61 23.0595 61H40.9821C42.2574 61 43.2914 60.1279 43.2914 59.052V40.1043C43.2915 34.9734 41.8413 29.9165 39.0612 25.3529Z" stroke="#FF543D" stroke-width="1.7" stroke-miterlimit="10" stroke-linecap="round" stroke-linejoin="round"/>
<path d="M37.5963 22.4774C36.2784 19.3735 35.2023 15.0894 35.0161 9.25369C34.8663 9.29276 34.7104 9.31258 34.5536 9.31249H29.488C29.327 9.31249 29.1715 9.29184 29.0254 9.25369C28.8392 15.0894 27.7631 19.3735 26.4453 22.4774C27.4849 24.1833 29.5904 25.3511 32.0207 25.3511C34.4511 25.3511 36.5567 24.1833 37.5963 22.4774Z" stroke="#FF543D" stroke-width="1.7" stroke-miterlimit="10" stroke-linecap="round" stroke-linejoin="round"/>
<path d="M20.7501 40.1044V59.0521C20.7501 60.1279 21.784 61 23.0595 61H40.9821C42.2574 61 43.2914 60.1279 43.2914 59.0521V40.1044C43.2914 39.6587 43.2797 39.2136 43.258 38.7693H20.7836C20.7619 39.2136 20.7501 39.6587 20.7501 40.1044Z" stroke="#FF543D" stroke-width="1.7" stroke-miterlimit="10" stroke-linecap="round" stroke-linejoin="round"/>
<path d="M13.8015 1.00003H7.9487C7.32471 1.00003 6.81421 1.43066 6.81421 1.95714V8.59697C6.81421 9.12333 7.32471 9.55396 7.9487 9.55396H13.8015C14.4254 9.55396 14.9361 9.12333 14.9361 8.59697V1.95714C14.9361 1.43066 14.4254 1.00003 13.8015 1.00003Z" stroke="#FF543D" stroke-width="1.7" stroke-miterlimit="10" stroke-linecap="round" stroke-linejoin="round"/>
<path d="M18.7856 29.9478C16.3198 21.6083 15.1302 14.3172 14.5566 9.30826C14.3495 9.46612 14.0805 9.55365 13.8014 9.55393H7.94875C7.66966 9.55363 7.40059 9.4661 7.19352 9.30826C6.61991 14.3172 5.43032 21.6083 2.96456 29.9478C1.64546 34.4095 1 38.994 1 43.5924V59.7002C1 60.4181 1.68997 61 2.54094 61H19.2092C20.0603 61 20.7501 60.4181 20.7501 59.7002V43.5924C20.7501 38.994 20.1048 34.4095 18.7856 29.9478Z" stroke="#FF543D" stroke-width="1.7" stroke-miterlimit="10" stroke-linecap="round" stroke-linejoin="round"/>
<path d="M1 43.5925V56.7573H20.7501V43.5925C20.7501 40.0826 20.3729 36.5811 19.6082 33.1357H2.14193C1.3774 36.5811 1 40.0826 1 43.5925Z" stroke="#FF543D" stroke-width="1.7" stroke-miterlimit="10" stroke-linecap="round" stroke-linejoin="round"/>
<path d="M15.3645 44.8658H6.38561C6.29764 44.8658 6.21053 44.8804 6.12926 44.9088C6.04799 44.9372 5.97414 44.9788 5.91195 45.0313C5.84975 45.0838 5.80042 45.1461 5.76676 45.2146C5.73311 45.2832 5.7158 45.3567 5.71582 45.4309V52.0719C5.7158 52.1461 5.73311 52.2196 5.76676 52.2882C5.80042 52.3567 5.84975 52.419 5.91195 52.4715C5.97414 52.524 6.04799 52.5656 6.12926 52.594C6.21053 52.6224 6.29764 52.637 6.38561 52.637H15.3645C15.4524 52.637 15.5395 52.6224 15.6208 52.594C15.7021 52.5656 15.7759 52.524 15.8381 52.4715C15.9003 52.419 15.9497 52.3567 15.9833 52.2882C16.017 52.2196 16.0343 52.1461 16.0343 52.0719V45.4309C16.0343 45.3567 16.017 45.2832 15.9833 45.2146C15.9497 45.1461 15.9003 45.0838 15.8381 45.0313C15.7759 44.9788 15.7021 44.9372 15.6208 44.9088C15.5395 44.8804 15.4524 44.8658 15.3645 44.8658Z" stroke="#FF543D" stroke-width="1.7" stroke-miterlimit="10" stroke-linecap="round" stroke-linejoin="round"/>
<path d="M8.94287 40.7605H12.807" stroke="#FF543D" stroke-width="1.7" stroke-miterlimit="10" stroke-linecap="round" stroke-linejoin="round"/>
<path d="M29.5162 42.391H25.7148C25.5368 42.391 25.3661 42.4506 25.2403 42.5568C25.1145 42.663 25.0437 42.8069 25.0437 42.957V49.6016C25.0437 49.7517 25.1145 49.8957 25.2403 50.0018C25.3661 50.108 25.5368 50.1676 25.7148 50.1677H38.3268C38.5048 50.1676 38.6754 50.108 38.8013 50.0018C38.9271 49.8957 38.9978 49.7517 38.9979 49.6016V42.957C38.9978 42.8069 38.9271 42.663 38.8013 42.5568C38.6754 42.4506 38.5048 42.391 38.3268 42.391H34.5253" stroke="#FF543D" stroke-width="1.7" stroke-miterlimit="10" stroke-linecap="round" stroke-linejoin="round"/>
<path d="M56.3535 41.1474V37.9739C56.3534 37.8043 56.2735 37.6417 56.1314 37.5218C55.9892 37.4019 55.7964 37.3345 55.5954 37.3345H48.6957C48.4947 37.3345 48.3019 37.4019 48.1597 37.5218C48.0175 37.6417 47.9377 37.8043 47.9376 37.9739V48.5462C47.9377 48.7158 48.0175 48.8784 48.1597 48.9983C48.3019 49.1182 48.4947 49.1855 48.6957 49.1855H55.5954C55.7964 49.1855 55.9892 49.1182 56.1314 48.9983C56.2735 48.8784 56.3534 48.7158 56.3535 48.5462V45.3727" stroke="#FF543D" stroke-width="1.7" stroke-miterlimit="10" stroke-linecap="round" stroke-linejoin="round"/>
</svg>
