<svg width="120" height="120" viewBox="0 0 120 120" fill="none" xmlns="http://www.w3.org/2000/svg">
<g opacity="0.2">
<path d="M115.658 59.9549L119.638 57.6686C119.879 57.5483 120 57.3076 120 57.0669C120 56.8263 119.879 56.5856 119.638 56.5856L115.417 54.6603L119.156 52.013C119.397 51.8927 119.397 51.652 119.397 51.4114C119.397 51.1707 119.156 51.0504 119.035 50.9301L114.693 49.3658L118.191 46.3575C118.312 46.2372 118.432 45.9965 118.432 45.7558C118.432 45.5152 118.191 45.3948 117.95 45.2745L113.367 44.3119L116.503 40.9426C116.623 40.8223 116.744 40.5816 116.623 40.3409C116.503 40.1003 116.382 39.9799 116.141 39.9799L111.558 39.3783L114.452 35.7684C114.573 35.648 114.573 35.4074 114.573 35.1667C114.452 34.926 114.332 34.8057 114.09 34.8057L109.508 34.5651L112.04 30.7145C112.161 30.4738 112.161 30.2331 112.04 30.1128C111.92 29.8721 111.678 29.7518 111.437 29.7518L106.854 29.9925L109.025 25.9012C109.146 25.6606 109.146 25.4199 109.025 25.2996C108.905 25.0589 108.663 25.0589 108.422 25.0589L103.719 25.5402L105.407 21.3287C105.528 21.088 105.407 20.8473 105.286 20.727C105.166 20.4863 104.925 20.4863 104.683 20.4863L100.221 21.5693L101.548 17.1171C101.668 16.8764 101.548 16.6357 101.427 16.5154C101.307 16.3951 101.065 16.2748 100.824 16.3951L96.4824 17.9594L97.3266 13.3868C97.3266 13.1462 97.3266 12.9055 97.0854 12.7852C96.9648 12.6648 96.7236 12.6648 96.4824 12.6648L92.2613 14.5901L92.7437 10.0175C92.7437 9.77689 92.6231 9.53622 92.5025 9.41589C92.2613 9.29556 92.0201 9.29556 91.8995 9.41589L87.9196 11.7022V7.12961C87.9196 6.88894 87.799 6.64828 87.5578 6.64828C87.3166 6.52795 87.0754 6.52795 86.9548 6.64828L83.2161 9.29556L82.6131 4.84332C82.6131 4.60266 82.4925 4.48233 82.2513 4.362C82.01 4.24166 81.7688 4.362 81.6482 4.48233L78.1508 7.4906L77.3065 2.91802C77.3065 2.67736 77.0653 2.55703 76.8241 2.4367C76.5829 2.31637 76.3417 2.4367 76.2211 2.55703L73.0854 5.9263L71.7588 1.47405C71.6382 1.23339 71.5176 1.11306 71.2764 0.99273C71.0352 0.99273 70.794 0.99273 70.6734 1.23339L67.7789 4.84332L66.0904 0.631737C65.9698 0.391075 65.8492 0.270745 65.608 0.270745C65.3668 0.270745 65.1256 0.391075 65.005 0.511406L62.4724 4.362L60.3015 0.270745C60.0603 -0.0902482 59.4573 -0.0902482 59.2161 0.270745L57.0452 4.362L54.5126 0.511406C54.392 0.270745 54.1508 0.270745 53.9095 0.270745C53.6683 0.270745 53.5477 0.391075 53.4271 0.631737L51.7387 4.84332L48.8442 1.23339C48.7236 1.11306 48.4824 0.99273 48.2412 0.99273C48 0.99273 47.8794 1.23339 47.7588 1.47405L46.4322 5.9263L43.2965 2.55703C43.5377 2.4367 43.2965 2.31637 43.0553 2.4367C42.8141 2.55703 42.6935 2.67736 42.5729 2.91802L41.7286 7.4906L38.2312 4.48233C38.1106 4.362 37.8693 4.24166 37.6281 4.362C37.3869 4.362 37.2663 4.60266 37.2663 4.84332L36.7839 9.41589L33.0452 6.76861C32.804 6.64828 32.5628 6.64828 32.4422 6.76861C32.201 6.88894 32.0804 7.12961 32.0804 7.24994V11.8225L28.1005 9.53622C27.8593 9.41589 27.6181 9.41589 27.4975 9.53622C27.2563 9.65656 27.2563 9.89722 27.2563 10.1379L27.7387 14.7105L23.5176 12.7852C23.2764 12.6648 23.0352 12.6648 22.9146 12.9055C22.794 13.0258 22.6734 13.2665 22.6734 13.5071L23.5176 18.0797L19.1759 16.5154C18.9347 16.3951 18.6935 16.5154 18.5729 16.6357C18.4523 16.7561 18.3317 16.9967 18.4523 17.2374L19.7789 21.6896L15.196 20.4863C14.9548 20.4863 14.7136 20.4863 14.593 20.727C14.4724 20.8473 14.3518 21.088 14.4724 21.3287L16.1608 25.5402L11.5779 24.9386C11.3367 24.9386 11.0955 25.0589 10.9749 25.1792C10.8543 25.4199 10.8543 25.6606 10.9749 25.7809L13.1457 29.8721L8.56281 29.6315C8.32161 29.6315 8.0804 29.7518 7.9598 29.9925C7.8392 30.2331 7.8392 30.4738 7.9598 30.5941L10.4925 34.4447L5.90955 34.6854C5.66834 34.6854 5.42714 34.8057 5.42714 35.0464C5.30653 35.287 5.30653 35.5277 5.54774 35.648L8.44221 39.258L3.8593 39.8596C3.61809 39.8596 3.49749 40.1003 3.37688 40.2206C3.25628 40.4613 3.37688 40.7019 3.49749 40.8223L6.63317 44.1915L2.17085 45.2745C1.92965 45.2745 1.80905 45.5152 1.68844 45.7558C1.68844 45.9965 1.68844 46.2372 1.92965 46.3575L5.30653 49.3658L0.964824 50.8097C0.723618 50.9301 0.603015 51.0504 0.603015 51.291C0.603015 51.5317 0.723618 51.7724 0.844221 51.8927L4.58291 54.54L0.361809 56.5856C0.120603 56.5856 0 56.8263 0 57.0669C0 57.3076 0.120603 57.5483 0.361809 57.6686L4.34171 59.9549L0.361809 62.2412C0.120603 62.3615 0 62.4818 0 62.7225C0 62.9631 0.120603 63.2038 0.361809 63.2038L4.58291 65.1291L0.844221 67.7764C0.603015 67.8967 0.603015 68.1374 0.603015 68.378C0.603015 68.6187 0.844221 68.739 0.964824 68.8594L5.30653 70.4237L1.80905 73.4319C1.68844 73.5523 1.56784 73.7929 1.56784 74.0336C1.56784 74.2743 1.80905 74.3946 2.05025 74.5149L6.51256 75.5979L3.37688 78.9672C3.25628 79.0875 3.13568 79.3281 3.25628 79.5688C3.37688 79.8095 3.49749 79.9298 3.73869 79.9298L8.32161 80.5315L5.42714 84.1414C5.30653 84.2617 5.30653 84.5024 5.30653 84.743C5.42714 84.9837 5.54774 85.104 5.78894 85.104L10.3719 85.3447L7.8392 89.1953C7.71859 89.4359 7.71859 89.6766 7.8392 89.7969C7.9598 90.0376 8.201 90.1579 8.44221 90.0376L13.0251 89.7969L10.8543 93.8882C10.7337 94.1289 10.7337 94.3695 10.8543 94.4898C10.9749 94.7305 11.2161 94.7305 11.4573 94.7305L16.0402 94.1289L14.4724 98.4608C14.3518 98.7014 14.4724 98.9421 14.593 99.0624C14.7136 99.1828 14.9548 99.3031 15.196 99.3031L19.6583 98.2201L18.3317 102.672C18.2111 102.913 18.3317 103.154 18.4523 103.274C18.5729 103.394 18.8141 103.515 19.0553 103.394L23.397 101.83L22.5528 106.403C22.5528 106.643 22.5528 106.884 22.794 107.004C22.9146 107.125 23.1558 107.125 23.397 107.125L27.6181 105.199L27.1357 109.772C27.1357 110.013 27.2563 110.253 27.3769 110.374C27.6181 110.494 27.8593 110.494 27.9799 110.374L31.9598 108.087V112.66C31.9598 112.9 32.0804 113.141 32.3216 113.141C32.5628 113.261 32.804 113.261 32.9246 113.141L36.6633 110.494L37.1457 115.066C37.1457 115.307 37.2663 115.427 37.5075 115.548C37.7487 115.668 37.9899 115.548 38.1106 115.427L41.608 112.419L42.4523 116.992C42.4523 117.232 42.6935 117.353 42.9347 117.473C43.1759 117.593 43.4171 117.473 43.5377 117.353L46.6734 113.983L48 118.436C48.1206 118.676 48.2412 118.797 48.4824 118.917C48.7236 118.917 48.9648 118.917 49.0854 118.676L51.9799 115.066L53.6683 119.278C53.7889 119.519 53.9095 119.639 54.1508 119.639C54.392 119.639 54.6332 119.519 54.7538 119.398L57.2864 115.548L59.4573 119.639C59.5779 119.88 59.8191 120 59.9397 120C60.1809 120 60.4221 119.88 60.4221 119.639L62.593 115.548L65.1256 119.398C65.2462 119.639 65.4874 119.639 65.7286 119.639C65.9698 119.639 66.0905 119.519 66.2111 119.278L67.8995 115.066L70.794 118.676C70.9146 118.797 71.1558 118.917 71.397 118.917C71.6382 118.917 71.7588 118.676 71.8794 118.436L73.206 113.983L76.3417 117.353C76.4623 117.473 76.7035 117.593 76.9447 117.473C77.1859 117.353 77.3065 117.232 77.4271 116.992L78.2714 112.419L81.7688 115.427C81.8895 115.548 82.1307 115.668 82.3719 115.548C82.6131 115.427 82.7337 115.307 82.7337 115.066L83.2161 110.494L86.8342 113.141C87.0754 113.261 87.3166 113.261 87.4372 113.141C87.6784 113.021 87.799 112.78 87.799 112.66V108.087L91.7789 110.374C92.0201 110.494 92.2613 110.494 92.3819 110.374C92.6231 110.253 92.6231 110.013 92.6231 109.772L92.1407 105.199L96.4824 107.125C96.7236 107.245 96.9648 107.245 97.0854 107.004C97.206 106.884 97.3266 106.643 97.3266 106.403L96.4824 101.83L100.824 103.394C101.065 103.515 101.307 103.394 101.427 103.274C101.548 103.154 101.668 102.913 101.548 102.672L100.221 98.2201L104.683 99.3031C104.925 99.3031 105.166 99.3031 105.286 99.0624C105.407 98.9421 105.528 98.7014 105.407 98.4608L103.719 94.2492L108.302 94.8508C108.543 94.8508 108.784 94.7305 108.905 94.6102C109.025 94.3695 109.025 94.1289 108.905 94.0085L106.734 89.9173L111.317 90.1579C111.558 90.1579 111.799 90.0376 111.92 89.9173C112.04 89.6766 112.04 89.4359 111.92 89.3156L109.387 85.465L113.97 85.2244C114.211 85.2244 114.452 85.104 114.452 84.8634C114.573 84.6227 114.573 84.382 114.332 84.2617L111.437 80.6518L116.02 80.0501C116.261 80.0501 116.382 79.8095 116.503 79.6891C116.623 79.4485 116.503 79.2078 116.382 79.0875L113.367 75.5979L117.829 74.5149C118.07 74.5149 118.191 74.2743 118.312 74.0336C118.312 73.7929 118.312 73.5523 118.07 73.4319L114.573 70.4237L118.915 68.8594C119.156 68.739 119.276 68.6187 119.276 68.378C119.276 68.1374 119.156 67.8967 119.035 67.7764L115.296 65.1291L119.518 63.2038C119.759 63.0835 119.879 62.9631 119.879 62.7225C119.879 62.4818 119.759 62.2412 119.518 62.1208L115.658 59.9549ZM59.9397 113.382C30.392 113.382 6.39196 89.4359 6.39196 59.9549C6.39196 30.4738 30.392 6.52795 59.9397 6.52795C89.4874 6.52795 113.487 30.4738 113.487 59.9549C113.487 89.4359 89.4874 113.382 59.9397 113.382Z" fill="#FF543D"/>
<path d="M59.9396 23.615C39.7989 23.615 23.5175 39.8597 23.5175 59.9549C23.5175 80.0502 39.7989 96.2949 59.9396 96.2949C80.0803 96.2949 96.3617 80.0502 96.3617 59.9549C96.3617 39.8597 80.0803 23.615 59.9396 23.615ZM87.9195 52.3741C87.9195 52.6147 87.6783 52.8554 87.437 52.8554H86.231V55.262H88.4019H90.2109C90.5727 55.262 90.8139 55.5027 90.8139 55.8637V57.789V60.7972C90.8139 61.1582 90.5727 61.3989 90.2109 61.3989H88.4019C88.0401 61.3989 87.7989 61.1582 87.7989 60.7972V58.3906H81.8893V73.1913C80.8039 73.793 79.5979 74.3946 78.3918 74.9963C77.3064 75.4776 76.221 75.8386 75.1355 76.3199V80.8925C75.1355 81.4942 74.6531 81.9755 74.0501 81.9755H72.1205C71.5174 81.9755 71.035 81.4942 71.035 80.8925V80.2908H44.3818V80.8925C44.3818 81.4942 43.8994 81.9755 43.2964 81.9755H41.3667C40.7637 81.9755 40.2813 81.4942 40.2813 80.8925V76.4403C39.0752 76.0793 37.8692 75.5979 36.7838 75.1166C35.5778 74.6353 34.3717 74.0336 33.2863 73.3117V44.5526C34.3717 43.9509 35.5778 43.3493 36.7838 42.7476C37.3868 42.5069 37.9898 42.2663 38.4722 42.0256C39.0752 41.785 39.6783 41.5443 40.1607 41.424C43.8994 40.1003 48.1205 39.258 52.5828 38.897V37.6937C52.5828 36.9717 53.1858 36.2497 54.03 36.2497H54.9948V34.2041C54.9948 33.7228 55.3566 33.2415 55.9597 33.2415H59.0953C59.5778 33.2415 60.0602 33.6025 60.0602 34.2041V36.2497H61.025C61.7486 36.2497 62.4722 36.8514 62.4722 37.6937V38.897C66.9345 39.258 71.1556 40.1003 74.8943 41.424C75.4973 41.6646 76.1004 41.785 76.5828 42.0256C77.1858 42.2663 77.7888 42.5069 78.2712 42.7476C79.4772 43.2289 80.6833 43.8306 81.7687 44.5526V55.3823H85.025V52.9757H83.819C83.5778 52.9757 83.3365 52.7351 83.3365 52.4944C83.3365 52.2537 83.5778 52.0131 83.819 52.0131H85.628H87.3164C87.6783 51.8928 87.9195 52.0131 87.9195 52.3741Z" fill="#FF543D"/>
<path d="M74.8945 52.6149H66.5729C64.8845 48.4033 61.2664 45.395 57.2865 45.395C53.186 45.395 49.6885 48.283 48.0001 52.6149H40.6433C39.9197 52.6149 39.3167 53.2165 39.3167 53.9385V63.204C39.3167 63.926 39.9197 64.5276 40.6433 64.5276H48.0001C49.6885 68.7392 53.3066 71.7475 57.2865 71.7475C61.387 71.7475 64.8845 68.8595 66.5729 64.5276H74.8945C75.6182 64.5276 76.2212 63.926 76.2212 63.204V53.9385C76.2212 53.2165 75.6182 52.6149 74.8945 52.6149ZM57.6483 59.7144C57.6483 59.8347 57.6483 59.8347 57.6483 59.9551C57.6483 60.0754 57.6483 60.0754 57.6483 60.1957V60.316C57.5277 60.316 57.4071 60.4364 57.2865 60.4364C56.6835 60.7974 56.2011 61.2787 55.9599 62.0007C55.7187 61.399 55.3569 60.9177 54.8744 60.5567C54.7538 60.4364 54.6332 60.4364 54.5126 60.316C54.392 60.316 54.392 60.3161 54.2714 60.1957C54.2714 60.0754 54.2714 59.9551 54.2714 59.9551V59.8347C54.2714 59.7144 54.2714 59.5941 54.2714 59.4737C54.392 58.7518 54.7538 58.1501 55.2362 57.9094C55.3569 57.7891 55.4775 57.7891 55.5981 57.7891H55.7187C55.8393 57.7891 55.9599 57.7891 55.9599 57.7891H56.0805H56.2011H56.3217C57.0453 58.0298 57.5277 58.7517 57.6483 59.7144ZM56.4423 56.9468C56.6835 56.1045 57.2865 55.5028 58.0101 55.5028C58.7337 55.5028 59.4574 56.1045 59.578 57.0671C58.9749 57.3078 58.3719 57.7891 58.0101 58.5111C57.7689 57.6688 57.1659 57.0671 56.4423 56.9468ZM55.5981 52.8555V52.9759V55.7435C55.1156 55.0215 54.392 54.5402 53.5478 54.5402C53.4272 54.5402 53.3066 54.5402 53.186 54.5402C53.789 53.6979 54.995 53.0962 55.5981 52.8555ZM52.7036 55.7435C52.9448 55.6231 53.186 55.5028 53.4272 55.5028C54.1508 55.5028 54.8744 56.2248 55.1156 57.0671C54.5126 57.3078 54.0302 57.6688 53.789 58.2704C53.789 58.3908 53.6684 58.5111 53.6684 58.5111C53.5478 58.3908 53.5478 58.1501 53.4272 58.0298C53.186 57.6688 52.9448 57.4281 52.7036 57.3078C52.4624 57.1874 52.2212 57.0671 51.98 56.9468C52.1006 56.3451 52.3418 55.9841 52.7036 55.7435ZM51.1357 62.121C50.2915 62.0007 49.6885 61.038 49.6885 59.9551C49.6885 58.9924 50.2915 58.1501 51.0151 57.9094C51.1357 57.9094 51.2564 57.7891 51.4976 57.7891C51.6182 57.7891 51.8594 57.7891 51.98 57.9094C52.2212 58.0298 52.4624 58.1501 52.583 58.3908C52.7036 58.5111 52.7036 58.5111 52.8242 58.6314C53.0654 58.9924 53.186 59.3534 53.186 59.8347C53.186 59.9551 53.186 59.9551 53.186 60.0754C53.186 60.1957 53.186 60.1957 53.186 60.316V60.4364C53.0654 60.4364 52.8242 60.5567 52.7036 60.5567C51.8594 60.7974 51.377 61.2787 51.1357 62.121ZM53.9096 64.648C53.789 64.8886 53.5478 65.1293 53.5478 65.4903C53.0654 65.4903 52.583 65.1293 52.2212 64.648C51.98 64.287 51.8594 63.8056 51.8594 63.3243C51.8594 63.204 51.8594 63.0837 51.8594 62.9633C51.8594 62.843 51.8594 62.6023 51.98 62.482C52.1006 62.2413 52.2212 62.0007 52.3418 61.76C52.4624 61.6397 52.4624 61.5194 52.583 61.5194C52.8242 61.399 53.0654 61.2787 53.3066 61.1584C53.4272 61.1584 53.4272 61.1584 53.5478 61.1584C53.6684 61.1584 53.6684 61.1584 53.789 61.1584C53.9096 61.1584 54.0302 61.1584 54.1508 61.2787C54.5126 61.5194 54.8744 61.8804 55.1156 62.3617C55.2363 62.482 55.2362 62.7227 55.2362 62.9633C55.2362 63.0837 55.2362 63.204 55.2362 63.4447C55.2362 63.565 55.2362 63.6853 55.2362 63.8056C54.7538 63.8056 54.2714 64.1666 53.9096 64.648ZM55.9599 68.7392C54.995 68.7392 54.2714 67.7766 54.2714 66.5733C54.2714 66.4529 54.2714 66.3326 54.2714 66.2123C54.2714 65.9716 54.392 65.8513 54.392 65.7309C54.5126 65.2496 54.7538 65.009 55.1156 64.7683C55.2363 64.7683 55.2363 64.648 55.3569 64.648C55.4775 64.5276 55.7187 64.5276 55.8393 64.5276C55.9599 64.5276 56.2011 64.5276 56.3217 64.648C56.4423 64.648 56.5629 64.7683 56.6835 64.7683C57.0453 65.009 57.2865 65.3699 57.4071 65.8513C57.4071 65.9716 57.5277 66.2123 57.5277 66.3326C57.5277 66.4529 57.5277 66.5733 57.5277 66.6936C57.6483 67.7766 56.9247 68.7392 55.9599 68.7392ZM59.578 64.648C59.2162 65.1293 58.8543 65.37 58.3719 65.4903C58.2513 65.2496 58.1307 64.8886 58.0101 64.648C57.6483 64.1666 57.1659 63.8056 56.6835 63.6853C56.6835 63.565 56.6835 63.4447 56.6835 63.3243C56.6835 63.204 56.6835 63.0837 56.6835 62.9633C56.6835 62.7227 56.8041 62.6023 56.8041 62.482C57.0453 61.8804 57.4071 61.5194 57.8895 61.399C58.0101 61.399 58.0101 61.399 58.1307 61.2787C58.2513 61.2787 58.2513 61.2787 58.3719 61.2787C58.4925 61.2787 58.4925 61.2787 58.6131 61.2787C58.8543 61.2787 59.0955 61.399 59.3368 61.6397C59.4574 61.76 59.4574 61.8804 59.578 61.8804C59.6986 62.121 59.8192 62.3617 59.9398 62.6023C59.9398 62.7227 60.0604 62.9633 60.0604 63.0837C60.0604 63.204 60.0604 63.3243 60.0604 63.4447C59.9398 63.8056 59.8192 64.287 59.578 64.648ZM61.7488 61.399C61.5076 61.76 61.1458 62.0007 60.6634 62.121C60.5428 61.76 60.3016 61.399 60.0604 61.038C59.8192 60.7974 59.4574 60.5567 59.2161 60.4364C59.0955 60.4364 58.9749 60.316 58.8543 60.316V60.1957V60.0754C58.8543 59.9551 58.8543 59.8347 58.8543 59.8347C58.9749 59.1127 59.3368 58.3908 59.8192 58.1501C59.9398 58.0298 60.0604 58.0298 60.3016 58.0298C60.4222 58.0298 60.4222 58.0298 60.5428 58.0298C60.6634 58.0298 60.6634 58.0298 60.784 58.0298C61.6282 58.1501 62.2312 59.1127 62.2312 60.1957C62.1106 60.4364 61.99 60.9177 61.7488 61.399ZM62.4724 61.6397C62.593 61.6397 62.593 61.6397 62.4724 61.6397V61.6397ZM64.7639 61.5194L62.8342 60.677C62.9548 60.4364 62.9548 60.0754 62.9548 59.8347C62.9548 58.1501 61.8694 56.9468 60.5428 56.8265C60.3016 55.5028 59.2161 54.5402 58.0101 54.5402C57.2865 54.5402 56.6835 54.9012 56.2011 55.3825V52.9759C56.2011 52.8555 56.0805 52.7352 55.9599 52.6149H55.8393C56.0805 52.0132 57.1659 49.4863 58.7337 49.4863C60.5428 49.6066 61.6282 49.0049 61.6282 49.0049L60.784 50.4489L64.2815 50.9302L62.1106 52.4945L62.2312 52.6149L62.7136 52.9759L62.2312 53.5775L64.8845 56.3451L63.9197 56.8265L65.0051 59.2331L63.7991 58.7517L65.1257 61.6397L64.7639 61.5194Z" fill="#FF543D"/>
<path d="M59.9398 21.3286C38.593 21.3286 21.2262 38.6563 21.2262 59.9548C21.2262 81.2534 38.593 98.5811 59.9398 98.5811C81.2865 98.5811 98.6533 81.2534 98.6533 59.9548C98.6533 38.6563 81.2865 21.3286 59.9398 21.3286ZM59.9398 97.3777C39.196 97.3777 22.3116 80.5314 22.3116 59.8345C22.3116 39.1376 39.196 22.2913 59.9398 22.2913C80.6835 22.2913 97.5679 39.1376 97.5679 59.8345C97.5679 80.6517 80.6835 97.3777 59.9398 97.3777Z" fill="#FF543D"/>
<path d="M18.0905 77.6436L16.5227 78.6062C16.0402 78.3655 15.4372 78.1249 14.9548 77.8842C15.0754 78.4859 15.196 79.0875 15.3166 79.5688L14.1106 80.8925C14.7136 80.8925 15.3166 81.0128 15.9196 81.0128C16.2815 81.4941 16.5227 81.9755 16.8845 82.4568C17.1257 81.8551 17.2463 81.3738 17.4875 80.7722L19.1759 80.2908C18.6935 79.9298 18.2111 79.6892 17.8493 79.3282C17.9699 78.7265 18.0905 78.2452 18.0905 77.6436Z" fill="#FF543D"/>
<path d="M14.3517 65.3698C14.5929 64.8885 14.8341 64.2868 15.0753 63.8055L13.2663 64.2868L11.9397 63.0835C11.9397 63.6852 11.8191 64.2868 11.8191 64.8885L10.2512 65.8511L11.9397 66.4528C12.0603 67.0544 12.3015 67.5357 12.4221 68.1374L13.5075 66.6934L15.3165 66.8138C14.9547 66.3324 14.7135 65.8511 14.3517 65.3698Z" fill="#FF543D"/>
<path d="M12.5425 52.9756C13.0249 52.6146 13.5073 52.2536 13.9897 52.0129L15.6781 52.6146C15.5575 52.1333 15.3163 51.5316 15.1957 51.0503C15.5575 50.569 15.9193 50.208 16.4018 49.847L14.5927 49.7267C14.2309 49.2453 13.9897 48.764 13.7485 48.1624C13.5073 48.6437 13.2661 49.2453 13.0249 49.847L11.3364 50.208C11.8188 50.569 12.3013 50.93 12.7837 51.291C12.6631 51.7723 12.6631 52.3739 12.5425 52.9756Z" fill="#FF543D"/>
<path d="M104.925 77.8842C104.442 78.1249 103.839 78.3655 103.357 78.6062L101.789 77.6436C101.91 78.2452 101.91 78.7265 102.03 79.3282C101.548 79.6892 101.065 80.0502 100.704 80.2908L102.392 80.7722C102.633 81.3738 102.754 81.8551 102.995 82.4568C103.357 81.9755 103.719 81.4941 103.96 81.0128C104.563 81.0128 105.166 81.0128 105.769 80.8925L104.563 79.5688C104.684 78.9672 104.804 78.3655 104.925 77.8842Z" fill="#FF543D"/>
<path d="M107.94 63.0835L106.613 64.2868L104.925 63.8055C105.166 64.2868 105.407 64.7681 105.648 65.3698C105.286 65.8511 105.045 66.3324 104.683 66.6934L106.492 66.5731L107.578 68.0171C107.698 67.4154 107.94 66.9341 108.06 66.3324L109.749 65.7308L108.181 64.7681C108.06 64.2868 107.94 63.6852 107.94 63.0835Z" fill="#FF543D"/>
<path d="M105.407 49.6065L103.598 49.7268C103.96 50.0878 104.322 50.5692 104.804 50.9301C104.683 51.5318 104.442 52.0131 104.322 52.4944L106.01 51.8928C106.492 52.2538 106.975 52.4945 107.457 52.8554C107.457 52.2538 107.457 51.6521 107.337 51.0505C107.819 50.6895 108.301 50.3285 108.784 49.9675L107.095 49.6065C106.854 49.0049 106.613 48.5235 106.372 47.9219C106.01 48.6439 105.648 49.1252 105.407 49.6065Z" fill="#FF543D"/>
<path d="M21.226 41.424L20.623 42.5069L19.0552 41.6646L19.5376 40.702C20.3818 39.0174 20.1406 37.453 18.4522 36.6107C17.0049 35.8887 15.6783 36.4904 14.8341 38.175L13.2662 41.3036L14.2311 41.785L14.5929 41.1833L19.7788 43.7103C20.02 43.8306 20.02 43.9509 19.8994 44.1916L19.7788 44.5526L20.623 45.0339L22.1909 41.9053L21.226 41.424ZM18.3316 40.341L17.9698 41.1833L15.3165 39.8597L15.6783 39.1377C16.1607 38.0547 16.7637 37.4531 17.8492 38.0547C18.814 38.536 18.814 39.3783 18.3316 40.341Z" fill="#FF543D"/>
<path d="M18.4525 33.9633L23.156 37.3326C23.3972 37.4529 23.2766 37.6935 23.2766 37.8139L22.9148 38.1749L23.759 38.7765L25.5681 36.2496L24.7238 35.6479L24.2414 36.2496L22.553 34.9259L23.2766 33.9633C23.5178 33.6023 23.759 33.6023 24.2414 33.7226L25.5681 33.9633C25.8093 33.9633 25.9299 34.0836 25.8093 34.4446L25.5681 34.8056L26.4123 35.4073L28.2213 32.8803L27.3771 32.2787L26.8947 32.8803L24.8444 32.399C24.362 32.2787 24.1208 32.2787 23.759 32.5193C24.0002 31.7973 23.8796 30.7144 22.9148 29.9924C21.5882 29.0297 20.3821 29.6314 19.2967 31.0753L17.2465 33.843L18.0907 34.4446L18.4525 33.9633ZM19.8997 32.038C20.5027 31.1957 20.9852 30.7144 21.95 31.4363C22.6736 31.9177 22.7942 32.6396 22.1912 33.482L21.5882 34.3243L19.4173 32.76L19.8997 32.038Z" fill="#FF543D"/>
<path d="M23.759 27.1044L27.8595 31.1957C27.9801 31.316 27.9801 31.5566 27.8595 31.677L27.6183 32.038L28.3419 32.76L32.563 28.6687L30.9952 27.1044L30.0304 27.9467L30.5128 28.428C30.6334 28.5484 30.754 28.6687 30.5128 28.9094L28.9449 30.233L27.2565 28.5484L29.3067 26.5027L28.4625 25.5401L26.4123 27.7061L24.965 26.1418L26.2917 24.8181C26.5329 24.5775 26.6535 24.6978 26.7741 24.8181L27.1359 25.1791L27.9801 24.2165L26.5329 22.8928L22.4324 26.8637L23.156 27.5857L23.759 27.1044Z" fill="#FF543D"/>
<path d="M29.548 21.6898L32.4424 26.7437C32.563 26.864 32.563 27.1047 32.3218 27.225L31.96 27.4656L32.563 28.308L34.9751 26.7437L34.3721 25.9013L33.7691 26.2623L31.4776 22.2914L35.6987 25.2997L36.6635 24.698L35.5781 19.5238L38.2314 23.0134C38.352 23.2541 38.352 23.3744 38.1108 23.4947L37.749 23.7354L38.352 24.5777L40.8846 22.8931L40.2816 22.0508L39.558 22.4117L36.1811 17.8392C35.9399 17.5985 36.0605 17.4782 36.3017 17.2375L36.6635 16.9969L36.0605 16.1545L34.0103 17.4782L35.3369 23.3744L30.5128 19.8848L28.4625 21.2084L29.0655 22.0508L29.548 21.6898Z" fill="#FF543D"/>
<path d="M38.9548 16.1545L41.2463 21.3288C41.3669 21.5694 41.2463 21.6898 41.1257 21.8101L40.7639 22.0508L41.1257 23.0134L43.8995 21.8101L43.4171 20.8474L42.8141 21.0881L40.5226 15.9139C40.402 15.6732 40.5227 15.5529 40.6433 15.4326L41.0051 15.1919L40.6433 14.2292L37.8694 15.4326L38.3518 16.3952L38.9548 16.1545Z" fill="#FF543D"/>
<path d="M43.0552 14.3493L44.3818 18.6813C44.9848 20.6065 46.1908 21.0879 48.1205 20.4862C49.9295 20.0049 50.8944 18.6813 50.4119 17.1169L49.2059 12.9054C49.0853 12.6647 49.2059 12.5444 49.4471 12.424L49.8089 12.3037L49.5677 11.3411L46.7939 12.1834L47.0351 13.146L47.7587 13.0257L49.0853 17.3576C49.3265 18.3203 48.9647 18.9219 47.9999 19.2829C47.0351 19.5236 46.3114 19.4032 45.9496 18.1999L44.7436 14.229C44.623 13.9883 44.7436 13.868 44.9848 13.7477L45.3466 13.6274L45.1054 12.6647L42.2109 13.507L42.4521 14.4697L43.0552 14.3493Z" fill="#FF543D"/>
<path d="M52.2211 12.0632L52.3417 17.8391C52.3417 18.0798 52.2211 18.2001 52.1005 18.2001L51.618 18.3204L51.7386 19.2831L54.6331 19.0424L54.5125 17.9594H53.6683L53.5477 13.3869L55.8391 18.0798L57.0452 17.9594L58.613 12.9056L59.216 17.2375C59.216 17.4781 59.0954 17.5985 58.9748 17.5985L58.4924 17.7188L58.613 18.6814L61.6281 18.4408L61.5075 17.3578H60.7839L60.0602 11.7022C60.0602 11.3412 60.1809 11.3412 60.4221 11.2209L60.7839 11.1006L60.6633 10.1379L58.2512 10.3786L56.5628 16.1545L54.0301 10.7396L51.4974 10.9803L51.618 12.0632H52.2211Z" fill="#FF543D"/>
<path d="M67.1757 19.4032L66.8139 20.2455C67.1757 20.2455 67.5375 20.2455 67.7787 20.3659C69.1053 20.7268 70.0701 22.1708 71.8792 22.4115L72.241 21.3285C70.5526 21.2082 70.432 20.1252 68.8641 19.7642C70.6732 19.6439 71.7586 18.4406 72.241 16.3949C72.844 13.2663 71.3968 11.8224 69.5877 11.4614C67.8993 11.1004 65.7284 11.8224 65.1254 14.951C64.5224 17.2373 65.3666 18.8016 67.1757 19.4032ZM66.5727 14.951C66.8139 13.507 67.6581 12.1834 69.2259 12.424C70.9144 12.785 70.9144 14.59 70.6732 15.7933C70.432 17.2373 69.7083 18.6812 68.1405 18.3202C66.3315 18.0796 66.3315 16.3949 66.5727 14.951Z" fill="#FF543D"/>
<path d="M75.2562 21.8102C77.0652 22.5321 78.5125 22.0508 79.1155 20.6068L80.8039 16.5156C80.9245 16.2749 81.0451 16.2749 81.2863 16.2749L81.6481 16.3953L82.01 15.4326L79.2361 14.3496L78.8743 15.3123L79.4773 15.6733L77.7889 19.8849C77.427 20.8475 76.7034 21.0882 75.7386 20.7272C74.7738 20.3662 74.412 19.7645 74.7738 18.6816L76.3416 14.831C76.4622 14.5903 76.5828 14.47 76.824 14.5903L77.1858 14.7106L77.5477 13.748L74.7738 12.5447L74.412 13.5073L75.015 13.748L73.4471 18.0799C72.7235 19.8849 73.3265 21.0882 75.2562 21.8102Z" fill="#FF543D"/>
<path d="M79.9599 22.1711C79.7187 22.2914 79.5981 22.4117 79.4775 22.2914L79.1157 22.0507L78.5127 22.893L80.9248 24.4573L81.5278 23.615L80.9248 23.1337L81.769 22.4117L84.181 23.976L83.9398 24.8183C83.8192 25.059 83.6986 25.059 83.4574 24.9387L83.2162 24.5777L82.7338 25.42L85.5077 27.1046L86.1107 26.2623L85.5077 25.9013L87.1961 18.4408L84.7841 16.9968L84.3016 17.8391L84.9047 18.3205L79.9599 22.1711ZM85.5077 19.1628L84.5428 22.7727L82.6132 21.5694L85.5077 19.1628Z" fill="#FF543D"/>
<path d="M86.955 26.7435C86.8344 26.9842 86.5932 26.8638 86.4726 26.7435L86.1108 26.5028L85.3872 27.2248L89.8495 31.0754L91.538 29.2705L90.6937 28.3078L90.0907 28.9095C89.9701 29.0298 89.8495 29.1501 89.6083 29.0298L88.0405 27.8265L91.6586 23.7352C91.8998 23.4946 92.0204 23.6149 92.141 23.7352L92.5028 23.9759L93.2264 23.2539L90.9349 21.3286L90.2113 22.1709L90.6937 22.6523L86.955 26.7435Z" fill="#FF543D"/>
<path d="M95.6382 26.8638L96.1206 27.4655L91.8995 31.3161C91.6583 31.5567 91.5377 31.4364 91.2965 31.3161L91.0553 31.0754L90.3317 31.7974L92.3819 34.0837L93.2261 33.3617L92.7437 32.76L96.9648 28.9095C97.206 28.6688 97.3266 28.7891 97.4472 28.9095L97.6884 29.1501L98.4121 28.4281L96.3618 26.1418L95.6382 26.8638Z" fill="#FF543D"/>
<path d="M98.1708 31.6772L98.6532 31.3162C98.7738 31.1958 99.015 31.0755 99.1356 31.3162L99.7386 32.1585L95.1557 35.4074C94.9145 35.5277 94.7939 35.5277 94.6733 35.2871L94.3115 34.8058L93.4673 35.4074L95.5175 38.2954L96.3618 37.6937L95.8793 36.8514L100.703 33.4821L101.186 34.2041C101.427 34.4448 101.306 34.5651 101.065 34.6854L100.462 34.9261L101.306 35.8887L102.995 34.6854L99.2562 29.3909L97.5678 30.5942L98.1708 31.6772Z" fill="#FF543D"/>
<path d="M102.995 36.8513L100.342 40.4612L98.7738 41.1832C98.5326 41.3036 98.412 41.1832 98.2914 41.0629L97.9295 40.4612L96.9647 40.9426L98.5326 44.0712L99.4974 43.5899L99.1356 42.7475L100.945 41.9052L105.166 42.0256C105.407 42.0256 105.528 42.0255 105.648 42.2662L105.889 42.6272L106.854 42.1459L105.648 39.7393L104.683 40.2206L104.925 40.8222L102.03 40.7019L103.477 38.7766C103.598 38.536 103.839 38.536 103.96 38.7766L104.201 39.1376L105.166 38.6563L103.718 35.8887L102.754 36.37L102.995 36.8513Z" fill="#FF543D"/>
<path d="M31.96 97.0166C31.96 96.7759 31.96 96.5353 31.7188 96.4149C31.96 96.5353 32.3218 96.5353 32.563 96.2946C32.8042 96.1743 33.166 95.8133 33.4072 95.4523C33.6484 95.0913 33.8896 94.8506 34.0102 94.61C34.2514 94.1287 34.372 93.7677 34.372 93.4067C34.372 93.0457 34.1308 92.805 33.6484 92.444L32.2012 91.2407L26.6534 98.3402L27.4977 98.9419L30.1509 95.4523L30.6333 95.8133C30.8745 95.9336 30.9952 96.1743 30.9952 96.2946C30.9952 96.4149 30.8745 96.7759 30.5127 97.2573C29.3067 98.8216 28.7037 99.5436 28.7037 99.6639L29.5479 100.266C29.5479 100.145 29.9097 99.6639 30.3921 99.0622C30.8745 98.3402 31.357 97.8589 31.4776 97.4979C31.8394 97.4979 31.96 97.2573 31.96 97.0166ZM30.7539 95.0913L32.563 92.6847L33.0454 93.0457C33.2866 93.166 33.2866 93.2863 33.4072 93.527C33.4072 93.6473 33.2866 94.0083 32.8042 94.61C32.563 94.971 32.3218 95.2116 32.0806 95.4523C31.96 95.5726 31.7188 95.693 31.5982 95.693C31.4776 95.693 31.357 95.693 31.1158 95.4523L30.7539 95.0913Z" fill="#FF543D"/>
<path d="M35.4572 99.544L35.9396 98.8221L34.613 97.9797L36.3014 95.3325L37.628 96.2951L38.1104 95.4528L35.819 94.1292L30.9949 101.71L33.4069 103.154L33.7687 102.432L32.4421 101.469L34.1305 98.7017L35.4572 99.544Z" fill="#FF543D"/>
<path d="M40.4016 96.6558L38.8338 95.9338L34.8539 103.996L36.3011 104.718C36.9041 104.959 37.3865 105.079 37.869 104.838C38.3514 104.598 38.7132 104.116 39.1956 103.274L41.0046 99.7844C41.3664 99.0624 41.4871 98.4608 41.4871 97.9795C41.3664 97.3778 41.0046 97.0168 40.4016 96.6558ZM40.0398 99.1828L38.2308 102.913C37.869 103.635 37.5071 103.996 37.2659 103.996C37.1453 103.996 36.9041 103.996 36.7835 103.876L36.1805 103.755L39.4368 97.2575L39.9192 97.4981C40.1604 97.6185 40.281 97.8591 40.4016 98.0998C40.4016 98.3405 40.281 98.7015 40.0398 99.1828Z" fill="#FF543D"/>
<path d="M46.794 99.0624C46.3116 98.9421 45.8292 98.9421 45.4673 99.1828C45.1055 99.4234 44.8643 99.7844 44.7437 100.266C44.6231 100.627 44.6231 101.589 44.7437 102.913C44.2613 103.274 43.7789 103.635 43.2965 103.996C42.9347 104.357 42.5729 104.838 42.4523 105.44C42.3317 106.042 42.3317 106.523 42.4523 106.884C42.5729 107.245 42.9347 107.606 43.2965 107.726C43.6583 107.847 44.0201 107.847 44.3819 107.726C44.6231 107.606 44.9849 107.486 45.2261 107.245C45.3467 107.726 45.3467 108.087 45.3467 108.208L46.191 108.448C46.191 108.448 46.0704 107.726 45.9498 106.403C46.5528 105.801 47.0352 105.32 47.397 105.079L47.1558 104.237C46.6734 104.477 46.3116 104.838 45.8292 105.32C45.7085 104.477 45.5879 103.755 45.5879 103.274C46.0704 102.913 46.4322 102.672 46.794 102.311C47.1558 101.95 47.397 101.589 47.5176 101.108C47.6382 100.627 47.6382 100.145 47.5176 99.7844C47.6382 99.5438 47.2764 99.3031 46.794 99.0624ZM44.5025 106.884C44.2613 107.004 44.1407 107.004 43.8995 107.004C43.4171 106.884 43.1759 106.403 43.4171 105.801C43.6583 105.199 44.1407 104.598 44.8643 103.996C44.9849 104.598 44.9849 105.32 45.2261 106.282C44.9849 106.523 44.7437 106.764 44.5025 106.884ZM46.9146 100.988C46.794 101.469 46.3116 101.95 45.7086 102.432C45.5879 101.469 45.7086 100.867 45.7086 100.627C45.7086 100.506 45.8292 100.386 45.8292 100.266C45.8292 100.145 45.9498 100.025 46.0704 99.9048C46.191 99.7844 46.3116 99.7844 46.5528 99.9048C46.794 100.025 46.9146 100.025 46.9146 100.266C47.0352 100.386 47.0352 100.627 46.9146 100.988Z" fill="#FF543D"/>
<path d="M55.1156 107.846L54.8744 100.867L53.9096 100.747L52.2212 107.486V100.506L51.2563 100.386L51.3769 109.531L52.4624 109.651L54.1508 103.154L54.392 109.892H55.4775L57.5277 101.108L56.5629 100.988L55.1156 107.846Z" fill="#FF543D"/>
<path d="M60.5428 100.988L60.6634 104.718L59.2162 104.838L59.0956 100.988H58.0101L58.2513 110.013H59.3368L59.2162 105.681L60.6634 105.56L60.784 110.013L61.7488 109.892L61.6282 100.988H60.5428Z" fill="#FF543D"/>
<path d="M62.7737 100.734L63.7931 109.701L64.8716 109.579L63.8522 100.612L62.7737 100.734Z" fill="#FF543D"/>
<path d="M67.5377 100.988L67.4171 100.146L64.5226 100.627L64.6432 101.469L65.608 101.349L67.0552 109.291L68.1407 109.17L66.6934 101.108L67.5377 100.988Z" fill="#FF543D"/>
<path d="M71.0353 107.485L70.1911 104.357L71.759 103.996L71.5177 103.154L69.9499 103.515L69.2263 100.506L70.7941 100.145L70.5529 99.303L67.8997 100.025L70.1911 108.689L72.8444 107.967L72.6032 107.124L71.0353 107.485Z" fill="#FF543D"/>
<path d="M77.9096 96.2948L80.3216 102.793L76.4623 97.0168L75.6181 97.3778L77.6684 103.996L74.0503 98.0998L73.0854 98.4608L78.0302 106.162L78.995 105.681L77.0654 99.3031L80.6834 104.838L81.6483 104.477L78.8744 95.8135L77.9096 96.2948Z" fill="#FF543D"/>
<path d="M79.3949 95.3307L84.0803 103.051L85.0088 102.49L80.3234 94.7697L79.3949 95.3307Z" fill="#FF543D"/>
<path d="M83.5777 92.5645L85.628 95.4525L87.3164 97.4981L82.0099 93.7679L81.2863 94.2492L86.5928 101.469L87.437 100.867L85.1455 97.7388L83.6983 95.9338L89.0048 99.7844L89.6079 99.3031L84.3013 91.9629L83.5777 92.5645Z" fill="#FF543D"/>
<path d="M91.2965 96.6559L89.1257 94.2493L90.3317 93.1663L89.7287 92.5647L88.5226 93.5273L86.4724 91.241L87.6784 90.1581L87.0754 89.5564L85.1458 91.3614L91.1759 97.9796L93.2262 96.1746L92.6231 95.5729L91.2965 96.6559Z" fill="#FF543D"/>
</g>
</svg>
