<svg width="124" height="120" viewBox="0 0 124 120" fill="none" xmlns="http://www.w3.org/2000/svg">
<g opacity="0.2">
<path d="M6.73243 70.2819C4.3122 70.1595 2.37602 68.9357 1.16591 66.6104C-0.0442083 64.4075 -0.286231 62.0822 0.318826 59.5122C1.52894 59.3898 2.37602 59.757 2.98108 60.6136C2.86006 60.4913 3.34411 61.3479 4.43321 63.0613C4.79625 62.8165 5.03827 62.2046 5.15928 61.4703C5.28029 60.3689 5.52231 59.757 5.64333 59.5122C3.34411 59.145 1.77096 57.5541 0.923883 54.4945C0.0768031 51.5573 0.197814 48.9873 1.52894 46.9067C3.10209 47.641 4.07018 49.232 4.55422 51.6797C4.43321 51.9245 5.15928 50.2111 6.97445 46.662C8.06355 44.7039 9.51569 43.7248 11.5729 43.8472C11.6939 46.2948 10.9678 48.6201 9.03164 50.9454C6.97445 53.393 5.88535 55.4736 5.64333 57.0645C4.91726 56.8198 4.19119 55.1064 3.2231 52.2916C2.61804 53.1483 2.61804 54.2497 3.46512 55.5959C3.58613 55.7183 4.3122 56.6974 5.64333 58.2884C5.76434 58.2884 6.36939 57.3093 7.33748 55.5959C8.06355 54.4945 9.03164 54.005 10.3628 54.1273C10.6048 56.575 10.4838 58.7779 9.87872 60.736C9.15265 63.3061 7.70052 64.6523 5.64333 64.897C6.36939 67.5895 6.73243 68.8133 6.85344 68.4462C6.24838 68.2014 5.64333 67.5895 5.03827 66.488C4.3122 65.2642 3.82816 64.5299 3.34411 64.2851C2.73905 65.1418 3.2231 66.1209 4.55422 67.2223C5.88535 68.4462 6.73243 69.5476 6.73243 70.2819ZM10.3628 81.0516C8.06355 81.6635 6.00636 80.8068 3.94917 78.4816C2.01298 76.1563 1.28692 73.831 2.01298 71.3833C1.52894 71.3833 3.34411 72.4848 7.33748 74.4429C7.21647 71.3833 7.33748 69.1805 7.70052 67.8342C8.18456 65.7537 9.27367 64.6523 10.9678 64.2851C12.0569 65.8761 12.42 68.079 11.9359 70.7714C11.4519 73.7086 10.3628 75.2996 8.5476 75.5444C8.5476 76.0339 9.15266 77.013 10.3628 78.6039C9.6367 79.2159 8.91063 78.9711 7.94254 77.8696C6.85344 76.5234 6.00636 75.7891 5.52231 75.6668C5.52231 76.8906 6.24838 77.8697 7.57951 78.7263C9.15266 79.4606 10.1207 80.3173 10.3628 81.0516ZM6.12737 47.5187C5.03827 47.5187 4.07018 46.9068 3.46512 45.8053C2.86006 44.7039 2.49703 43.3576 2.49703 41.7667C2.49703 40.1757 2.73905 38.8295 3.2231 37.6056C3.82816 36.3818 4.55422 35.6475 5.64333 35.4027C5.64333 36.0147 5.88535 36.749 6.36939 37.728C6.73243 38.5847 6.85344 39.4414 6.85344 40.1757C7.21647 39.6862 7.70052 38.9519 8.30558 37.9728C8.91063 36.8713 9.39468 36.2594 9.75771 35.7699C10.9678 34.1789 12.541 33.4446 14.5982 33.4446C13.3881 38.8295 10.8468 41.889 6.85344 42.501V46.0501C6.24838 45.8053 5.88535 44.9486 5.76434 43.6024C5.64333 42.0114 5.52231 41.0324 5.15928 40.6652C4.19119 41.7667 4.19119 42.8681 4.79625 44.2143C5.76434 46.0501 6.12737 47.1515 6.12737 47.5187ZM7.94254 47.5187C7.82153 48.0082 7.33748 48.9873 6.24838 50.4559C5.4013 51.6797 5.15928 52.414 5.52231 52.9035L7.70052 50.3335C8.5476 49.232 9.03164 48.7425 9.03164 48.7425C9.03164 48.7425 8.66861 48.3753 7.94254 47.5187ZM7.33748 58.2884C7.4585 59.145 6.97445 60.3689 6.12737 62.0822C5.52231 63.3061 5.28029 63.7956 5.52231 63.6732C6.36939 63.0613 7.21647 62.0822 7.82153 60.9808C8.5476 59.6346 8.42659 58.6555 7.33748 58.2884ZM13.5091 85.8245C15.3242 89.1289 16.2923 90.8422 16.2923 91.2094C9.99973 91.4542 6.49041 88.8841 5.64333 83.4993C6.61142 82.765 7.70052 82.765 9.03164 83.4993C9.27367 83.6216 9.87872 83.9888 10.6048 84.4783C11.2098 84.8455 11.6939 85.0902 12.0569 85.2126C11.2098 83.3769 10.8468 81.4188 10.9678 79.2159C10.9678 76.6458 11.8149 75.0548 13.267 74.4429C14.9612 74.6877 15.8083 76.5234 15.9293 79.9502C15.9293 83.4993 15.2032 85.4574 13.5091 85.8245C13.3881 85.7022 13.267 85.4574 13.267 85.335C13.267 84.6007 13.3881 83.6217 13.7511 82.3978C13.9931 81.2964 14.1141 80.1949 13.9931 79.2159C12.299 80.9292 12.1779 83.0097 13.3881 85.335C13.3881 85.7022 13.3881 85.8245 13.3881 85.8245C13.146 85.8245 13.267 85.8245 13.5091 85.8245ZM8.5476 36.749C6.73243 35.5251 6.24838 33.3222 6.85344 30.0179C7.57951 26.7136 8.91063 24.8778 10.9678 24.7554C10.8468 25.6121 10.8468 26.9583 11.0888 28.6717C11.3309 30.1403 11.3309 30.997 10.9678 31.3641C14.2351 28.5493 15.8083 27.3255 15.6873 27.815C16.0503 28.4269 14.8402 29.1612 12.1779 30.2627C11.9359 29.0388 12.662 27.815 14.3561 26.5912C15.8083 25.4897 17.5024 24.7554 19.3176 24.2659C19.5596 26.1016 18.7126 27.9374 16.6554 29.8955C14.4772 31.8536 12.42 32.5879 10.4838 32.0984C10.6048 33.1999 10.4838 34.1789 9.99973 34.9132C9.87872 35.158 9.75771 35.4027 9.39468 35.8923C8.91063 36.137 8.66861 36.5042 8.5476 36.749ZM9.15266 29.6507C8.06355 32.3432 8.06355 34.0565 9.15266 35.0356C8.91063 34.3013 9.03164 33.1999 9.39468 31.7313C9.6367 30.5074 9.51569 29.7731 9.15266 29.6507ZM9.15266 69.0581C9.15266 68.9357 8.91063 69.67 8.5476 71.3833C8.30558 72.3624 8.42659 73.0967 9.15266 73.3415C9.15266 73.0967 9.39468 72.7296 9.6367 72.1177C9.87872 71.5057 9.99973 71.1386 10.1207 70.7714C10.2418 69.7924 9.99973 69.1805 9.15266 69.0581ZM10.3628 37.3609C10.1207 40.4204 9.51569 41.6443 8.5476 40.91C8.42659 41.2771 8.91063 40.6652 10.2418 39.1966C10.9678 38.4623 10.9678 37.8504 10.3628 37.3609ZM10.3628 86.4365C10.3628 87.4155 10.9678 88.2722 12.0569 89.0065C13.267 89.7408 14.2351 89.6184 15.0822 88.7617C14.4772 88.7617 12.904 87.9051 10.3628 86.4365ZM34.081 104.427C34.323 105.773 33.96 106.752 32.7499 107.364C31.6608 107.853 30.3296 108.098 28.5145 107.976C24.1581 107.609 21.7378 106.507 21.0118 104.427C21.0118 103.203 21.7378 102.469 22.948 102.224C23.553 102.101 24.7631 101.979 26.9413 101.979C27.4254 101.734 27.1833 101.245 26.4573 100.51C25.6102 99.6538 25.1262 98.9195 25.1262 98.43C23.19 100.511 20.5277 100.878 17.0184 99.7762C13.5091 98.5524 11.9359 96.5942 12.0569 93.6571C14.7192 93.5347 16.6554 93.7794 17.9865 94.269C17.9865 94.5137 17.5024 92.8004 16.6554 89.0065C16.0503 86.1917 16.5343 84.3559 17.9865 83.4993C19.9227 83.6216 21.1328 85.335 21.8589 88.517C22.5849 91.6989 22.1009 93.9018 20.4067 94.8809C20.5277 95.248 21.1328 95.6152 22.2219 96.1047C23.069 96.4719 23.432 97.0838 23.311 97.9405C22.8269 97.6957 21.8588 97.4509 20.2857 97.0838C18.9546 96.839 17.9865 96.5942 17.5024 96.1047C17.7445 97.3285 18.5915 98.0629 20.0437 98.3076C20.8908 98.43 22.3429 98.5524 24.6421 98.5524C24.1581 94.5137 24.1581 92.0661 24.6421 91.3318C26.9413 91.3318 28.6355 92.678 29.6036 95.1256C30.5717 97.3285 30.6927 99.6538 29.9666 102.101C30.2086 102.591 30.6927 102.958 31.5398 103.203C32.6289 103.448 33.2339 103.692 33.4759 103.937C32.9919 104.427 32.0238 104.672 30.2086 104.672C28.6355 104.549 27.5464 104.304 26.9413 103.937C26.3363 105.039 27.1833 105.651 29.4826 105.651C31.6608 105.528 33.1129 105.161 34.081 104.427ZM16.7764 22.4301C17.0184 22.1854 16.5343 22.9197 15.0822 24.8778C14.3561 25.8569 13.6301 26.4688 12.662 26.5912C12.42 23.654 12.904 21.0839 13.9931 18.881C15.2032 16.6781 16.7764 15.5767 18.5915 15.8215C18.5915 16.311 18.2285 17.6572 17.3814 19.9825C17.3814 20.1049 17.5024 20.2273 17.7445 20.472C17.8655 20.7168 17.9865 20.9616 17.9865 21.0839C19.1966 20.8392 20.7697 20.2273 22.7059 19.3706C22.2219 18.7587 21.6168 18.7587 20.5277 19.493C19.3176 20.3496 18.4705 20.7168 17.9865 20.5944C18.2285 19.8601 19.1966 19.1258 21.0118 18.1467C19.9227 16.1886 20.2857 14.1081 22.1009 11.7828C23.916 9.45755 26.0942 8.23372 28.6355 7.98895C28.0304 9.45755 27.1834 10.9261 26.2153 12.2724C26.8203 12.2724 27.4254 12.0276 28.2725 11.5381C28.9985 11.0485 29.7246 10.9261 30.4507 11.0485C29.8456 8.72325 30.6927 6.76512 32.9919 5.17415C34.9281 3.82793 37.4693 2.97125 40.4946 2.72649C40.3736 3.09363 38.9215 4.43985 36.2592 6.88751C36.3802 7.13227 37.1063 7.00989 38.0744 6.52036C39.4055 5.90844 40.3736 5.66368 40.9786 5.78606C41.3417 3.95031 43.0358 2.48172 46.3031 1.25789C49.4494 0.0340596 52.2327 -0.210706 54.7739 0.156443C52.9588 1.99219 49.5704 3.46078 44.73 4.31746C45.4561 3.46078 46.6662 2.84887 48.2393 2.6041C47.0292 1.99219 46.0611 2.23695 45.214 3.3384C44.246 4.68461 43.2779 5.17415 42.3098 4.92938C42.6728 5.41891 43.6409 5.66368 45.214 5.66368C46.7872 5.66368 47.7553 5.78606 48.2393 6.15321C47.1502 7.62181 44.488 8.3561 40.4946 8.3561C35.8962 8.3561 33.1129 8.60087 32.2658 9.0904C32.5079 8.60087 32.9919 7.98895 33.718 7.25466C34.444 6.64274 34.9281 6.03083 35.1701 5.54129C34.202 5.78606 33.3549 6.52036 32.6289 7.74419C31.9028 8.96802 31.2977 9.57993 31.0557 9.8247C31.5398 10.3142 32.3868 10.4366 33.597 10.1918C34.9281 9.8247 35.7752 9.94708 36.3802 10.4366C35.5331 12.15 33.2339 13.3738 29.7246 14.1081C25.8522 14.9648 23.432 15.6991 22.7059 16.4334C22.2219 16.1886 22.3429 15.4543 23.069 14.4753C24.1581 12.7619 24.6421 12.0276 24.5211 12.2724C23.674 12.3947 22.948 13.0067 22.4639 13.9857C22.3429 14.2305 22.1009 15.2096 21.6168 17.0453C21.8588 17.4124 22.4639 17.2901 23.674 16.8005C25.0051 16.311 26.0942 16.1886 26.9413 16.4334C26.2153 18.2691 24.8841 19.8601 22.8269 21.0839C20.6487 22.4301 18.7126 22.7973 16.7764 22.4301ZM18.5915 88.2722C18.4705 89.0065 18.4705 89.6184 18.7126 90.2303C18.9546 90.9646 19.1966 91.4542 19.1966 91.8213C19.1966 93.4123 19.1966 94.1466 19.4386 94.1466C19.5596 94.1466 19.8017 93.6571 19.9227 92.5556C20.4067 89.7408 19.9227 88.2722 18.5915 88.2722ZM26.3363 95.9823C26.3363 96.1047 26.8203 97.3285 27.5464 99.7762C28.0304 101.367 28.6355 101.979 29.2405 101.367C29.1195 101.245 28.8775 100.143 28.2725 98.1852C27.9094 96.839 27.3044 96.1047 26.3363 95.9823ZM38.1954 109.812C39.1635 111.035 40.6156 111.28 42.4308 110.668C45.5771 109.689 47.1502 109.2 47.0292 109.2C46.9082 111.77 44.609 113.238 40.3736 113.605C36.1382 113.973 33.4759 113.116 32.2658 111.035C32.6289 109.689 33.718 108.833 35.6541 108.465C39.2845 107.609 40.9786 107.364 40.6156 107.486C40.3736 107.119 39.8895 106.507 39.5265 105.651C38.9215 104.672 38.5584 103.937 38.3164 103.692C37.4693 102.224 36.6222 101.49 35.7752 101.49C35.5331 101.979 36.0172 102.836 37.2273 104.06C38.5584 105.406 39.2845 106.63 39.4055 107.486C34.8071 105.773 32.6289 102.469 32.8709 97.3285C35.6541 97.3285 37.8323 98.43 39.5265 100.633C41.0997 102.713 41.7047 104.916 41.2207 107.486C41.0997 106.997 42.5518 107.242 45.3351 108.098C44.1249 109.444 41.8257 110.056 38.1954 109.812ZM53.4428 110.424C52.2327 108.221 50.1755 106.018 47.0292 103.815C46.4242 104.794 46.9082 105.895 48.4813 106.997C48.9654 107.242 49.6915 107.731 50.7806 108.343C51.8697 108.955 52.5957 109.444 52.9588 109.689C50.6595 110.179 48.6024 109.567 46.5452 107.976C44.488 106.262 43.3989 104.182 43.3989 101.367C45.8191 101.122 48.1183 101.734 50.4175 103.203C52.7167 104.672 54.1689 106.752 54.7739 109.2C54.895 109.934 54.4109 110.301 53.4428 110.424ZM65.544 112.382C67.7222 111.28 69.6583 111.28 72.3206 112.137C74.8618 112.994 76.798 114.34 78.2501 116.298C76.1929 118.134 73.8937 118.746 71.2315 118.134C68.6902 117.644 66.8751 116.42 65.786 114.34C66.27 114.462 67.1171 114.707 68.2062 115.196C69.4163 115.686 70.1424 115.931 70.7474 116.053C72.5626 116.543 73.7727 116.176 74.1358 115.074C70.3844 114.095 67.3591 113.85 64.9389 114.34C64.4548 113.605 64.9389 112.749 65.544 112.382ZM80.1863 4.43985C79.3393 4.56223 75.8299 3.46078 69.5373 0.890741C72.3206 -0.455472 75.3459 -0.0883234 78.8552 1.99219C83.2116 4.68461 85.8739 6.15321 86.5999 6.27559C84.6637 3.3384 83.5746 2.11457 83.5746 2.72649C86.3579 2.84887 88.6571 3.70555 90.7143 5.17415C92.8925 6.76512 93.8606 8.47849 93.6186 10.4366C93.8606 10.8038 94.4657 11.1709 95.3128 11.4157C96.2808 11.6604 96.8859 11.9052 97.1279 12.2724C97.491 11.6604 95.9178 11.4157 92.4085 11.6604C92.7715 12.6395 93.7396 13.2514 95.1917 13.2514C97.2489 13.3738 98.217 13.3738 98.338 13.4962C98.217 12.8843 97.612 12.0276 96.7649 10.9261C96.0388 9.94708 95.5548 8.96802 95.5548 7.98895C98.096 8.23372 100.032 9.33517 101.726 11.2933C103.299 13.2514 103.905 15.3319 103.299 17.6572C103.421 18.1467 103.905 18.6363 104.631 19.0034C105.478 19.493 106.083 19.8601 106.204 20.1049C105.72 20.7168 105.115 20.5944 104.026 19.9825C102.815 19.2482 101.968 18.881 101.484 18.881C101.726 19.6153 102.452 20.2273 103.663 20.5944C105.115 21.0839 105.962 21.5735 106.204 21.8182C106.688 21.4511 106.688 20.7168 106.325 19.3706C105.72 17.7796 105.599 16.311 105.72 15.2096C107.777 15.9438 109.35 17.4124 110.439 19.6153C111.649 21.9406 111.891 24.2659 111.044 26.5912C110.802 26.4688 110.439 26.1016 109.955 25.8569C109.471 25.6121 109.108 25.245 108.987 25.1226C108.261 24.3883 107.898 23.5316 108.019 22.5525C105.841 23.0421 103.663 22.6749 101.484 21.4511C99.3061 20.2273 97.975 18.6363 97.3699 16.5558C98.5801 16.311 100.153 16.6781 102.089 17.7796C102.573 17.5348 102.21 17.0453 101.242 16.311C100.153 15.5767 99.5481 14.8424 99.6692 14.1081C98.096 15.2096 96.0388 15.2096 93.2556 14.2305C90.8353 13.3738 89.0202 12.0276 87.81 10.559C88.4151 9.94708 89.2622 9.8247 90.2303 10.0695C91.6824 10.4366 92.6505 10.559 93.1345 10.559C92.0454 9.21278 89.3832 8.60087 85.1478 8.60087C80.5494 8.60087 77.5241 8.11134 75.9509 7.00989C76.0719 6.15321 76.798 5.78606 78.2501 5.78606C80.9124 5.78606 82.1225 5.78606 81.8805 5.90844C81.5174 5.66368 81.1544 5.29653 80.5494 4.68461C79.9443 4.0727 79.5813 3.70555 79.2182 3.46078C78.1291 2.6041 76.798 2.23695 75.4669 2.23695C75.8299 2.72649 76.556 3.09363 77.7661 3.58317C78.9762 3.70555 79.8233 4.0727 80.1863 4.43985ZM71.3525 110.424C71.7155 109.689 72.9256 108.71 74.9828 107.364C76.677 106.262 77.4031 105.283 77.2821 104.427C76.314 104.182 75.1039 104.916 73.6517 106.63C71.2315 109.2 70.1424 110.546 70.1424 110.424C69.0533 108.343 69.7794 106.263 72.4416 104.182C74.6198 102.469 77.2821 101.367 80.1863 100.755C81.0334 103.325 80.4284 105.528 78.3712 107.364C76.556 108.955 74.2568 109.934 71.3525 110.424ZM51.8697 117.767C49.2074 117.889 47.2712 116.787 46.0611 114.217C48.6024 112.504 51.2646 111.525 54.0479 111.28C57.3152 110.913 59.2514 111.892 59.8564 114.217C59.8564 114.217 58.1623 114.095 54.6529 113.85C52.4747 113.605 51.1436 113.973 50.5385 114.829C51.0226 115.564 52.2327 115.808 54.1689 115.319C56.4681 114.829 58.0412 114.829 58.8883 115.074C56.4681 116.787 54.1689 117.767 51.8697 117.767ZM78.9762 108.588C81.0334 107.853 83.4536 107.609 86.2369 107.976C89.0202 108.343 90.9563 109.2 92.0454 110.424C91.8034 111.525 90.8353 112.382 89.2622 112.994C87.8101 113.483 86.1159 113.728 84.1797 113.605C82.2435 113.483 80.6704 113.116 79.4603 112.382C78.0081 111.525 77.2821 110.546 77.2821 109.2C78.1291 109.322 79.5813 109.812 81.5175 110.546C83.2116 111.28 84.6637 111.647 86.1159 111.647C85.6318 110.913 85.6318 110.546 86.1159 110.424C85.6318 110.056 84.4217 109.812 82.4855 109.689C80.6704 109.444 79.4603 109.2 78.9762 108.588ZM97.975 95.9823C96.8859 95.9823 96.1598 96.7166 95.9178 98.1852C95.4338 100.143 95.1917 101.245 95.0707 101.49C95.1917 101.734 96.5229 101.979 98.8221 102.101C101.242 102.224 102.694 102.591 103.299 103.325C103.178 104.427 102.452 105.528 101.121 106.385C99.9112 107.242 98.338 107.853 96.6439 108.098C94.8287 108.343 93.3766 108.343 92.1665 107.731C90.7143 107.119 89.9882 106.018 89.7462 104.549C89.2622 104.916 88.6571 105.406 87.689 106.018C86.7209 106.63 85.9949 107.119 85.6318 107.486C86.1159 108.221 87.084 106.385 88.6571 102.101C87.568 101.49 86.5999 101.979 85.6318 103.448L83.8167 107.486C82.6066 105.651 82.8486 103.448 84.5427 101C86.2369 98.5524 88.4151 97.3285 90.9563 97.3285C91.5614 98.1852 91.6824 99.4091 91.3194 100.878C90.9563 101.979 90.4723 103.081 89.7462 103.937C90.8353 105.039 92.1665 105.651 93.6186 105.895C95.3128 106.14 96.5229 105.651 97.491 104.549C97.3699 104.304 96.4019 104.304 94.8287 104.427C93.0135 104.549 91.6824 104.672 90.9563 104.549C90.8353 103.815 91.3194 103.325 92.2875 103.203C93.6186 103.081 94.3447 102.836 94.5867 102.713C93.3766 100.755 93.3766 98.43 94.4657 95.6152C95.6758 92.8004 97.491 91.3318 99.9112 91.3318C100.758 93.2899 100.758 95.248 99.9112 97.4509C99.0641 99.4091 97.854 100.755 96.4018 101.49C96.4018 100.633 96.6439 99.6538 97.1279 98.6748C97.491 97.2062 97.854 96.3495 97.975 95.9823ZM100.274 97.8181C101.363 96.3495 103.057 95.1256 105.357 94.3913C107.777 93.5347 110.076 93.5347 112.133 94.269C112.012 96.5942 110.318 98.43 107.051 99.6538C103.784 101 101.242 100.511 99.6692 98.43C103.299 98.6748 105.72 98.0628 106.809 96.7166C106.325 96.3495 105.478 96.3495 104.026 96.9614C102.089 97.4509 100.879 97.8181 100.274 97.8181ZM104.994 94.269C105.357 94.5137 105.478 92.5556 105.599 88.2722C104.51 88.7617 104.026 89.6184 104.147 91.087C104.268 93.0451 104.147 94.269 103.905 94.7585C102.089 93.9018 101.484 91.9437 102.21 88.6394C102.815 85.4574 104.026 83.6217 105.72 83.3769C107.414 84.1112 108.019 85.8245 107.414 88.7617C106.93 91.3318 106.204 93.1675 104.994 94.269ZM112.738 29.6507C113.464 28.6717 112.254 28.0598 109.229 27.815C108.745 28.3045 109.108 28.9164 110.197 29.6507C111.77 30.6298 112.738 31.2417 112.738 31.3641C113.101 31.1193 113.222 30.2627 112.98 28.6717C112.738 26.9583 112.859 25.6121 113.343 24.7554C115.28 25.1226 116.611 26.9583 117.337 30.385C117.942 33.8118 117.216 35.8923 115.159 36.749C115.28 36.0147 115.038 35.4027 114.433 34.7908C113.827 34.1789 113.585 33.4446 113.948 32.5879C112.012 32.4656 110.076 31.7313 108.261 30.2627C106.325 28.7941 105.115 26.8359 104.51 24.7554C106.809 23.8987 109.592 25.6121 112.738 29.6507ZM109.713 24.7554C109.834 22.1854 109.35 20.5944 108.019 19.9825C108.987 22.9197 109.592 24.5107 109.713 24.7554ZM110.923 85.8245C111.407 85.7022 111.891 85.335 112.617 84.8455C113.464 84.2336 114.07 83.8664 114.433 83.744C115.885 83.0097 117.216 82.8873 118.547 83.4993C118.184 85.9469 116.974 88.0274 114.675 89.7408C112.254 91.5765 109.955 91.6989 107.898 90.1079C108.261 89.9856 108.866 89.8632 109.592 89.6184C110.439 89.496 111.044 89.2513 111.286 89.1289C112.617 88.6394 113.343 88.0274 113.706 87.0484C113.343 86.8036 111.528 87.5379 108.382 89.3736C107.777 89.2513 107.777 88.7617 108.382 88.0274C108.987 87.4155 109.592 87.0484 110.076 86.926C108.866 85.2126 108.14 83.1321 107.898 80.4397C107.656 77.3801 108.382 75.422 110.076 74.3205C111.77 74.8101 112.617 76.2787 112.738 78.6039C112.859 80.4397 112.496 82.3978 111.891 84.4783C111.407 84.2336 111.165 83.3769 111.286 81.7859C111.407 80.1949 111.165 79.3382 110.802 79.0935C109.955 79.9502 109.713 81.0516 110.076 82.1531C110.681 83.9888 110.923 85.2126 110.923 85.8245ZM109.713 33.8118C112.617 34.1789 115.038 36.3818 116.853 40.4205C117.216 40.0533 117.579 39.1966 117.821 38.0952C118.063 36.8713 118.305 36.0147 118.668 35.6475C120.604 36.3818 121.572 38.4623 121.451 41.889C121.33 45.3158 120.241 47.2739 118.063 47.641C118.063 47.2739 118.547 46.0501 119.273 44.0919C119.636 42.9905 119.636 42.0114 119.152 41.0324C118.789 41.5219 118.547 42.2562 118.426 43.6024C118.305 45.071 118.063 46.0501 118.063 46.4172C117.7 44.8262 116.127 42.8681 113.343 40.6652C110.802 38.7071 109.713 36.3818 109.713 33.8118ZM115.643 75.0548C116.49 74.9325 117.458 74.1982 118.668 72.9743C119.757 71.8729 120.846 71.3834 122.177 71.5057C122.419 76.6458 119.878 79.9502 114.554 81.6635C114.07 81.0516 113.948 80.4397 113.948 79.9502C116.732 78.4816 118.305 77.2577 118.668 76.2787C118.305 75.9115 117.579 76.2787 116.732 77.2577C115.643 78.4816 114.917 79.0935 114.554 79.3382C113.948 79.0935 113.827 78.6039 114.312 77.7473C114.796 76.8906 115.159 76.4011 115.764 76.2787C113.948 76.0339 112.738 74.3205 112.254 71.1386C111.77 68.079 112.133 65.8761 113.343 64.2851C115.038 64.7747 116.127 66.2433 116.732 68.9357C117.216 71.6281 116.853 73.5862 115.643 75.0548ZM112.738 43.9696C114.796 43.9696 116.248 44.8262 117.216 46.662C117.458 47.2739 117.821 48.1306 118.305 49.232C118.789 50.4559 119.031 51.3125 119.273 51.8021C120.846 49.1096 121.814 47.5187 122.298 47.0291C124.113 48.3753 124.476 50.9454 123.387 54.4945C122.903 55.9631 122.298 57.1869 121.451 58.0436C120.604 58.9003 119.636 59.2674 118.789 58.9003C118.91 58.166 119.515 57.3093 120.483 56.2079C121.33 55.1064 121.814 54.1273 121.814 53.0259C121.088 53.1483 120.483 53.6378 120.241 54.6169C119.636 56.575 119.394 57.4317 119.515 57.1869C119.394 55.8407 118.063 54.005 115.764 51.6797C113.343 49.4768 112.496 46.9068 112.738 43.9696ZM113.948 39.8085C115.28 40.91 116.127 41.3995 116.49 41.3995C116.853 41.3995 116.732 41.1547 116.369 40.5428C115.159 38.7071 113.948 37.8504 112.738 38.0952C113.585 38.2176 113.948 38.8295 113.948 39.8085ZM118.063 64.2851C118.426 64.0404 119.273 63.0613 120.483 61.4703C121.451 60.2465 122.54 59.6346 123.992 59.6346C124.113 66.2433 121.935 69.7924 117.458 70.4043C117.579 69.5476 118.305 68.5685 119.636 67.4671C120.846 66.488 121.451 65.3866 121.693 64.4075C120.846 64.6523 119.636 66.1209 118.184 68.5685C118.305 67.4671 117.337 65.3866 115.28 62.2046C113.464 59.3898 113.101 56.6974 114.07 54.2497C117.216 54.7393 118.789 57.7988 118.789 63.3061C118.305 62.9389 117.821 62.2046 117.458 60.9808C117.095 59.6346 116.732 58.7779 116.369 58.4108C115.764 59.1451 115.885 60.1241 116.611 61.3479C117.458 63.0613 118.063 64.1628 118.063 64.2851ZM113.948 69.0581C113.948 69.0581 114.07 69.9147 114.312 71.7505C114.433 72.4848 114.917 73.2191 115.643 73.831C115.643 73.5862 115.522 72.9743 115.522 72.3624C115.522 71.6281 115.401 71.1386 115.401 70.8938C115.159 69.7924 114.675 69.1805 113.948 69.0581ZM114.554 29.6507C114.433 31.976 114.796 33.567 115.764 34.4237C115.764 34.1789 115.764 33.567 115.764 32.9551C115.764 32.2208 115.885 31.7313 115.885 31.4865C115.643 30.2627 115.28 29.6507 114.554 29.6507ZM115.643 48.1306C115.764 49.232 116.248 50.2111 117.095 51.3125C117.942 52.414 118.668 52.7811 119.152 52.414C118.547 52.1692 117.942 51.5573 117.458 50.3335C116.853 49.1096 116.248 48.3753 115.643 48.1306Z" fill="#FF543D"/>
<path d="M106.688 38.5845H17.2607V39.9307H106.688V38.5845Z" fill="#FF543D"/>
<path d="M106.688 72.24H17.2607V73.5862H106.688V72.24Z" fill="#FF543D"/>
<path d="M67.3592 87.0483C67.3592 86.8035 67.1172 86.6812 66.8751 86.6812C63.6078 86.6812 60.3405 86.6812 57.0732 86.6812C56.8312 86.6812 56.7102 86.8035 56.5892 87.0483C56.1051 89.0064 55.7421 90.9646 55.5001 92.8003C55.2581 94.2689 55.016 95.8599 54.895 97.3285C54.774 98.6747 54.774 99.8985 55.3791 101.122C55.8631 102.224 56.8312 103.08 57.7993 103.815C58.5254 104.427 59.4935 105.039 60.0985 105.895C60.5826 106.507 60.3405 107.486 60.4615 108.221C60.4615 109.567 60.5826 110.791 60.5826 112.137C60.5826 113.361 60.7036 114.584 60.7036 115.686C60.7036 116.053 60.7036 116.298 60.5826 116.665C60.4615 116.787 60.3405 116.787 60.2195 116.91C59.3724 117.399 58.5254 117.766 57.6783 118.378C57.0732 118.745 56.5892 119.48 57.5573 119.847C58.1623 120.092 59.1304 119.969 59.7355 119.969C60.4615 119.969 61.1876 119.969 61.9137 119.969C62.7608 119.969 63.7289 119.969 64.5759 119.969C65.181 119.969 66.1491 120.092 66.6331 119.725C67.7222 118.746 63.8499 117.155 63.3658 116.787C63.2448 116.787 63.2448 116.665 63.2448 116.665V116.543C63.2448 116.053 63.2448 115.686 63.2448 115.196C63.2448 113.973 63.2448 112.626 63.3658 111.403C63.3658 110.179 63.4868 108.955 63.4868 107.609C63.4868 106.752 63.3658 106.14 63.9709 105.406C65.544 103.692 67.7222 102.713 68.6903 100.388C68.9323 99.7761 69.0533 99.1642 69.0533 98.5523C69.0533 94.8808 68.2063 90.8422 67.3592 87.0483ZM65.9071 119.48C65.9071 119.602 66.0281 119.602 65.9071 119.48V119.48ZM63.8499 104.549C63.2448 105.161 62.6397 105.773 62.5187 106.63C62.5187 107.609 62.5187 108.71 62.3977 109.689C62.2767 112.014 62.0347 114.462 62.2767 116.665C62.3977 117.399 62.6397 117.644 63.2448 118.011C63.9709 118.378 64.6969 118.746 65.302 119.113C65.06 119.113 64.818 119.113 64.5759 119.113C63.7289 119.113 62.7608 119.113 61.9137 119.113C61.1876 119.113 60.4615 119.113 59.7355 119.113C59.2514 119.113 58.8884 119.113 58.4043 119.113C59.0094 118.746 59.7355 118.501 60.2195 118.134C60.7036 117.889 61.4296 117.522 61.5506 116.91C61.6717 116.053 61.6717 115.074 61.6717 114.217C61.6717 112.871 61.5506 111.525 61.5506 110.179C61.5506 109.077 61.4296 108.098 61.4296 106.997C61.4296 106.14 61.3086 105.651 60.8246 104.916C59.4934 103.203 57.3152 102.346 56.3472 100.388C55.7421 99.2866 55.9841 97.9404 56.1051 96.7166C56.2261 95.248 56.4682 93.9017 56.7102 92.4332C56.9522 90.8422 57.3152 89.1288 57.6783 87.5378C60.7036 87.5378 63.7288 87.5378 66.7541 87.5378C67.6012 91.2093 68.3273 95.0032 68.3273 98.6747C68.0853 101.489 65.665 102.958 63.8499 104.549Z" fill="#FF543D"/>
<path d="M57.3149 93.1675C56.9519 95.1256 56.7098 97.3285 56.7098 98.9195C56.7098 100.633 58.162 101.857 59.6141 102.958C60.5822 103.692 61.4293 104.427 61.9133 105.406C62.3974 104.549 63.2444 103.815 64.2125 102.958C65.6647 101.857 67.1168 100.633 67.1168 98.9195C67.1168 97.3285 66.8748 95.248 66.5118 93.1675H57.3149Z" fill="#FF543D"/>
<path d="M28.3931 35.1582L28.7561 35.403V35.7701H27.183V35.403L27.546 35.1582C28.1511 32.833 28.7561 30.0181 29.3612 27.6929H30.5713L32.3865 35.1582L32.7495 35.403V35.7701H30.6923V35.5254L31.0553 35.2806L30.6923 33.6896H28.6351L28.3931 35.1582ZM28.8771 32.833H30.6923L29.8452 28.9167L28.8771 32.833Z" fill="#FF543D"/>
<path d="M35.17 33.9344L36.2591 27.8153H36.9852L38.0743 33.812C38.4373 31.9763 38.6794 30.0181 39.0424 28.1824L38.6794 28.06V27.6929H40.2525V28.06L39.8895 28.1824L38.5583 35.6478H37.3482L36.5011 30.9972L35.5331 35.6478H34.444L33.2338 28.1824L32.6288 28.06V27.6929H34.807V28.06L34.3229 28.3048L35.17 33.9344Z" fill="#FF543D"/>
<path d="M41.221 35.1582L41.584 35.403V35.7701H40.0109V35.403L40.3739 35.1582C40.979 32.833 41.584 30.0181 42.1891 27.6929H43.3992L45.2144 35.1582L45.5774 35.403V35.7701H43.5202V35.5254L43.8832 35.2806L43.5202 33.6896H41.463L41.221 35.1582ZM41.826 32.833H43.5202L42.6731 28.9167L41.826 32.833Z" fill="#FF543D"/>
<path d="M48.9652 33.1998C48.7232 32.5879 48.4812 32.4655 47.8761 32.4655C47.8761 33.1998 47.8761 34.4236 47.8761 35.1579L48.3601 35.5251V35.8922C47.7551 35.8922 46.908 35.8922 46.1819 35.8922V35.5251L46.666 35.1579C46.666 32.955 46.666 30.6298 46.666 28.4269L46.303 28.1821V27.8149H48.6022C49.8123 27.8149 50.7804 28.3045 50.7804 29.6507V30.6297C50.7804 31.6088 50.1753 32.2207 49.4493 32.3431C49.8123 32.5879 49.9333 32.7103 50.0543 33.0774L50.5384 34.546C50.6594 34.9132 50.9014 35.2803 51.2644 35.2803V35.7698C51.0224 35.8922 50.6594 35.8922 50.4173 35.8922C49.6913 35.8922 49.6913 35.4027 49.4493 34.7908L48.9652 33.1998ZM47.8761 28.4269C47.8761 29.6507 47.8761 30.5074 47.8761 31.8536H48.6022C49.3282 31.8536 49.6913 31.4864 49.6913 30.7521V29.6507C49.6913 28.9164 49.4493 28.5492 48.6022 28.5492H47.8761V28.4269Z" fill="#FF543D"/>
<path d="M54.5317 27.6925C55.8629 27.6925 56.831 28.3044 56.831 29.773V33.6892C56.831 35.1578 55.8629 35.7697 54.5317 35.7697H52.1115V35.4026L52.5956 35.0354V28.3044L52.1115 27.9372V27.5701H54.5317V27.6925ZM53.8057 28.4268V34.6683C53.8057 34.913 53.8057 34.913 53.5636 35.0354V35.1578H54.5317C55.3788 35.1578 55.6208 34.5459 55.6208 33.8116V29.8953C55.6208 29.161 55.3788 28.5491 54.5317 28.5491H53.8057V28.4268Z" fill="#FF543D"/>
<path d="M62.1554 33.934L63.2445 27.8148H64.0916L65.1807 33.8116C65.5437 31.9759 65.7857 30.0177 66.1488 28.182L65.6647 27.9372V27.5701H67.2379V27.9372L66.8748 28.182L65.5437 35.6473H64.3336L63.4865 30.9968L62.5184 35.6473H61.4293L60.2192 28.182L59.7352 27.9372V27.5701H61.9134V27.9372L61.4293 28.182L62.1554 33.934Z" fill="#FF543D"/>
<path d="M69.5377 35.0359L70.0217 35.403V35.7701C69.4167 35.7701 68.5696 35.7701 67.8435 35.7701V35.403L68.3276 35.0359C68.3276 32.833 68.3276 30.5077 68.3276 28.3048L67.8435 28.06V27.6929H69.9007V28.06L69.4167 28.3048C69.5377 30.5077 69.5377 32.833 69.5377 35.0359Z" fill="#FF543D"/>
<path d="M72.8044 35.4027V35.7698C72.1993 35.7698 71.5943 35.7698 70.9892 35.7698V35.4027L71.4732 35.1579C71.4732 32.955 71.4732 30.6298 71.4732 28.4269L70.9892 28.1821V27.8149C71.4732 27.8149 71.8363 27.8149 72.3203 27.8149C72.8044 27.8149 72.9254 27.8149 73.0464 28.3045L74.1355 31.8536L74.6195 34.0565C74.6195 33.4446 74.6195 32.7103 74.6195 32.0983V28.4269L74.1355 28.1821V27.8149C74.7405 27.8149 75.2246 27.8149 75.8297 27.8149V28.1821L75.3456 28.4269C75.3456 30.8745 75.3456 33.3222 75.3456 35.7698H74.3775C74.1355 35.7698 74.0145 35.6475 73.8935 35.4027L72.0783 28.9164L72.1993 30.0178C72.1993 31.7312 72.1993 33.3222 72.1993 35.0355L72.8044 35.4027Z" fill="#FF543D"/>
<path d="M78.8552 35.4027V35.7698C78.2501 35.7698 77.6451 35.7698 77.04 35.7698V35.4027L77.5241 35.1579C77.5241 32.955 77.5241 30.6298 77.5241 28.4269L77.04 28.1821V27.8149C77.6451 27.8149 77.8871 27.8149 78.3712 27.8149C78.8552 27.8149 78.9762 27.8149 79.0972 28.3045L80.1863 31.8536L80.6704 34.0565C80.6704 33.4446 80.6704 32.7103 80.6704 32.0983V28.4269L80.1863 28.1821V27.8149C80.7914 27.8149 81.2754 27.8149 81.8805 27.8149V28.1821L81.3965 28.4269C81.3965 30.8745 81.3965 33.3222 81.3965 35.7698H80.4284C80.1863 35.7698 80.0653 35.6475 79.9443 35.4027L78.1291 28.9164L78.2501 30.0178C78.2501 31.7312 78.2501 33.3222 78.2501 35.0355L78.8552 35.4027Z" fill="#FF543D"/>
<path d="M84.6637 35.0359L85.1478 35.403V35.7701C84.5427 35.7701 83.6956 35.7701 82.9695 35.7701V35.403L83.4536 35.0359C83.4536 32.833 83.4536 30.5077 83.4536 28.3048L82.9695 28.06V27.6929H85.0267V28.06L84.6637 28.3048C84.6637 30.5077 84.6637 32.833 84.6637 35.0359Z" fill="#FF543D"/>
<path d="M87.9309 35.4027V35.7698C87.3258 35.7698 86.7208 35.7698 86.1157 35.7698V35.4027L86.5998 35.1579C86.5998 32.955 86.5998 30.6298 86.5998 28.4269L86.1157 28.1821V27.8149C86.7208 27.8149 86.9628 27.8149 87.4469 27.8149C87.9309 27.8149 88.0519 27.8149 88.1729 28.3045L89.262 31.8536L89.7461 34.0565C89.7461 33.4446 89.7461 32.7103 89.7461 32.0983V28.4269L89.262 28.1821V27.8149C89.8671 27.8149 90.3511 27.8149 90.9562 27.8149V28.1821L90.4721 28.4269C90.4721 30.8745 90.4721 33.3222 90.4721 35.7698H89.504C89.262 35.7698 89.141 35.6475 89.02 35.4027L87.2048 28.9164L87.3258 30.0178C87.3258 31.7312 87.3258 33.3222 87.3258 35.0355L87.9309 35.4027Z" fill="#FF543D"/>
<path d="M93.4975 33.6893C93.4975 34.6684 93.8605 35.0355 94.5866 35.0355C95.3126 35.0355 95.6757 34.546 95.6757 33.8117V32.955L94.9496 32.5879V32.2207H96.7648C96.7648 33.4446 96.7648 34.546 96.7648 35.7698H96.0387L95.9177 35.1579C95.6757 35.6475 95.0706 35.8922 94.5866 35.8922C93.2554 35.8922 92.2874 35.1579 92.2874 33.8117C92.2874 32.4655 92.2874 31.2417 92.2874 29.8955C92.2874 28.4269 93.3765 27.8149 94.4656 27.8149C94.9496 27.8149 95.4336 27.9373 95.7967 28.3045L95.9177 27.9373H96.7648V30.1402H95.5547V29.5283C95.5547 28.794 95.0706 28.5492 94.4656 28.5492C93.8605 28.5492 93.3764 28.9164 93.3764 29.8955C93.4975 30.9969 93.4975 32.3431 93.4975 33.6893Z" fill="#FF543D"/>
<path d="M24.884 69.792V61.1029C24.884 59.5119 24.1579 58.4104 22.8268 58.4104H20.8906V69.792H17.5023V43.9692H22.7058C26.5782 43.9692 28.1513 46.2945 28.1513 49.7212V52.9032C28.1513 54.7389 27.3042 56.2075 26.0941 56.8195C27.5463 57.4314 28.1513 59.1447 28.1513 61.1029V69.792H24.884ZM24.884 49.7212C24.884 48.1303 24.1579 47.0288 22.8268 47.0288H20.8906V55.4732H22.8268C24.279 55.4732 24.884 54.4942 24.884 52.7808V49.7212Z" fill="#FF543D"/>
<path d="M29.8454 69.792V43.9692H38.1952V47.1512H33.2337V54.9837H37.7111V58.1657H33.2337V66.8549H38.1952V69.792H29.8454Z" fill="#FF543D"/>
<path d="M45.3355 69.792H39.89V43.9692H45.4565C49.3288 43.9692 50.902 46.1721 50.902 49.5989V64.1624C50.781 67.4668 49.2078 69.792 45.3355 69.792ZM47.3927 49.7212C47.3927 48.1303 46.7876 47.0288 45.3355 47.0288H43.1573V66.7325H45.3355C46.7876 66.7325 47.3927 65.7534 47.3927 64.04V49.7212Z" fill="#FF543D"/>
<path d="M73.0465 69.792H68.9322L67.117 55.5956C66.875 53.7599 66.6329 50.5779 66.6329 50.5779H66.5119C66.5119 50.5779 66.2699 53.7599 66.0279 55.5956L64.3337 69.792H60.2193L56.952 43.9692H60.3403L61.9135 60.1238C62.1555 61.9595 62.2765 65.1415 62.2765 65.1415H62.3975C62.3975 65.1415 62.6396 61.9595 62.8816 60.1238L64.9388 43.9692H68.3271L70.3843 60.1238C70.6263 61.9595 70.8683 65.1415 70.8683 65.1415H70.9893C70.9893 65.1415 71.2314 61.9595 71.3524 60.1238L72.9255 43.9692H76.3138L73.0465 69.792Z" fill="#FF543D"/>
<path d="M77.4028 69.792V43.9692H80.7912V69.792H77.4028Z" fill="#FF543D"/>
<path d="M91.4399 69.792L86.2365 50.3332H86.1154C86.1154 50.3332 86.5995 53.3927 86.5995 55.8404V69.792H83.4532V43.9692H87.2045L92.408 63.4281H92.529C92.529 63.4281 92.166 60.2462 92.166 57.9209V43.9692H95.3123V69.792H91.4399Z" fill="#FF543D"/>
<path d="M97.9747 69.792V43.9692H106.325V47.1512H101.363V54.9837H105.84V58.1657H101.363V66.8549H106.325V69.792H97.9747Z" fill="#FF543D"/>
<path d="M51.627 81.5413H55.3783C55.4993 81.5413 55.4993 81.5413 55.6204 81.4189C55.6204 81.4189 55.7414 81.2965 55.7414 81.1741H55.8624V82.7651H55.7414C55.7414 82.6427 55.6204 82.6427 55.6204 82.5203C55.6204 82.5203 55.4993 82.398 55.3783 82.398H50.0538V82.2756C50.1748 82.2756 50.2959 82.1532 50.2959 82.1532C50.2959 82.1532 50.4169 82.0308 50.4169 81.9084V76.7683C50.4169 76.646 50.4169 76.646 50.2959 76.5236C50.2959 76.5236 50.1748 76.4012 50.0538 76.4012V76.2788H51.99V76.4012C51.869 76.4012 51.748 76.5236 51.748 76.5236C51.748 76.5236 51.627 76.646 51.627 76.7683V81.5413Z" fill="#FF543D"/>
<path d="M57.5563 82.1531V77.013C57.5563 76.8906 57.5563 76.8906 57.4353 76.7682C57.4353 76.7682 57.3143 76.6458 57.1933 76.6458V76.5234H59.1295V76.6458C59.0085 76.6458 58.8875 76.7682 58.8875 76.7682C58.8875 76.7682 58.7664 76.8906 58.7664 77.013V82.1531C58.7664 82.2754 58.7664 82.2754 58.8875 82.3978C58.8875 82.3978 59.0085 82.5202 59.1295 82.5202V82.6426H57.1933V82.5202C57.3143 82.5202 57.4353 82.3978 57.4353 82.3978C57.4353 82.2754 57.5563 82.1531 57.5563 82.1531Z" fill="#FF543D"/>
<path d="M66.5117 77.0128L65.7856 78.359H65.6646C65.6646 78.359 65.6646 78.359 65.6646 78.2366C65.6646 78.1142 65.5436 77.9919 65.4225 77.8695C64.9385 77.5023 64.3334 77.2576 63.6074 77.2576C63.2443 77.2576 63.0023 77.2576 62.7603 77.3799C62.6393 77.3799 62.3973 77.5023 62.2763 77.6247C62.1552 77.7471 62.1552 77.8695 62.1552 77.9919C62.1552 78.2366 62.2763 78.359 62.5183 78.4814C62.6393 78.4814 63.0023 78.6038 63.4864 78.6038L64.2124 78.7262C64.5755 78.7262 64.9385 78.8485 65.1805 78.8485C65.4226 78.9709 65.6646 79.0933 65.9066 79.2157C66.1486 79.3381 66.2696 79.5828 66.3906 79.8276C66.5117 80.0724 66.5117 80.3171 66.5117 80.5619C66.5117 81.0514 66.3906 81.4186 66.1486 81.6633C65.9066 81.9081 65.5436 82.1529 64.9385 82.3976C64.5755 82.52 64.0914 82.52 63.7284 82.52C62.8813 82.52 62.1552 82.2753 61.3082 81.9081C61.1872 82.0305 61.0661 82.0305 61.0661 82.0305C61.0661 82.0305 60.9451 82.0305 60.8241 82.1529L60.7031 82.0305L61.3082 80.5619L61.4292 80.6843C61.4292 80.8067 61.5502 80.929 61.6712 81.0514C61.9132 81.1738 62.1552 81.4186 62.5183 81.541C62.8813 81.6633 63.3654 81.7857 63.6074 81.7857C63.9704 81.7857 64.3334 81.6633 64.5755 81.541C64.6965 81.4186 64.8175 81.4186 64.9385 81.2962C65.0595 81.1738 65.0595 81.0514 65.0595 80.929C65.0595 80.6843 64.9385 80.5619 64.6965 80.4395C64.5755 80.4395 64.2124 80.3171 63.7284 80.3171L63.0023 80.1948C62.5183 80.1948 62.2763 80.0724 62.0342 80.0724C61.7922 80.0724 61.6712 79.95 61.4292 79.8276C61.1871 79.7052 60.9451 79.4604 60.8241 79.2157C60.7031 78.9709 60.5821 78.7262 60.5821 78.359C60.5821 77.8695 60.7031 77.3799 61.0661 77.0128C61.5502 76.5233 62.2763 76.4009 63.1233 76.4009C63.4864 76.4009 63.8494 76.4009 64.2124 76.5233C64.5755 76.6456 64.9385 76.768 65.4225 77.0128C65.5436 77.1352 65.6646 77.1352 65.7856 77.1352C65.9066 77.1352 65.9066 77.1352 66.0276 77.0128H66.5117Z" fill="#FF543D"/>
<path d="M71.594 77.5025V82.153C71.594 82.2754 71.594 82.2754 71.715 82.3978C71.715 82.3978 71.836 82.5202 71.9571 82.5202V82.6425H70.0209V82.5202C70.1419 82.5202 70.1419 82.3978 70.2629 82.3978C70.2629 82.3978 70.3839 82.2754 70.3839 82.153V77.5025H68.4477C68.3267 77.5025 68.3267 77.5025 68.2057 77.5025C68.2057 77.5025 68.0847 77.6248 68.0847 77.7472H67.9637V76.1562H68.0847C68.0847 76.2786 68.2057 76.401 68.2057 76.401C68.2057 76.401 68.3267 76.401 68.4477 76.401H73.5302C73.6512 76.401 73.6512 76.401 73.7722 76.401C73.7722 76.401 73.8932 76.2786 73.8932 76.1562H74.0143V77.7472H73.7722C73.7722 77.6248 73.6512 77.5025 73.6512 77.5025C73.6512 77.5025 73.5302 77.5025 73.4092 77.5025H71.594Z" fill="#FF543D"/>
</g>
</svg>
