<svg width="58" height="84" viewBox="0 0 58 84" fill="none" xmlns="http://www.w3.org/2000/svg">
<path d="M26.0679 68.3289V74.8097M36.0453 82H52.6741C54.5108 82 55.9998 80.8446 55.9998 79.4194V30.808C55.9998 29.1307 55.3979 27.4864 54.2614 26.0595C53.1249 24.6326 51.4988 23.4795 49.5654 22.7293L47.861 22.0681C47.3086 21.8537 46.844 21.5243 46.5193 21.1166C46.1946 20.7089 46.0226 20.2391 46.0226 19.7598V4.5806C46.0226 3.15541 44.5336 2 42.6969 2H39.3712C37.5345 2 36.0455 3.15541 36.0455 4.5806V19.7598C36.0455 20.2391 35.8735 20.7089 35.5488 21.1166C35.2241 21.5243 34.7595 21.8537 34.2071 22.0681L32.5027 22.7293C30.5693 23.4795 28.9432 24.6326 27.8067 26.0595C26.6702 27.4864 26.0683 29.1307 26.0683 30.808V36.8386M36.0453 7.16137H46.0226M26.0679 36.8386H55.9998M55.9998 52.3226H36.0453V36.8386M46.0226 36.8386V52.3226" stroke="#FF543D" stroke-width="2.5" stroke-miterlimit="10" stroke-linecap="round" stroke-linejoin="round"/>
<path d="M16.0907 65.2258V76.8386M16.0907 76.8386L2.78755 82H29.3938L16.0907 76.8386ZM29.3938 52.3226H2.78755M16.0932 65.2258H16.0882C7.3847 65.2258 0.764363 59.1615 2.1951 52.5L4.45042 42H27.7309L29.9862 52.5001C31.4172 59.1617 24.7966 65.2258 16.0932 65.2258Z" stroke="#FF543D" stroke-width="2.5" stroke-miterlimit="10" stroke-linecap="round" stroke-linejoin="round"/>
</svg>
