<svg width="74" height="84" viewBox="0 0 74 84" fill="none" xmlns="http://www.w3.org/2000/svg">
<path d="M23.7978 81.9839H23.7994C23.8702 81.9952 23.9394 82 24.0134 82H49.2664C50.135 82 50.84 81.2789 50.84 80.3903V42.874C50.84 36.9038 41.4677 23.0286 41.4677 20.6688V3.60966C41.4677 2.72112 40.7627 2 39.8941 2H33.3857C32.5171 2 31.8121 2.72112 31.8121 3.60966V20.6688C31.8121 21.5557 30.4871 24.0732 28.8333 27.1847" stroke="#FF543D" stroke-width="2.3" stroke-miterlimit="10" stroke-linecap="round" stroke-linejoin="round"/>
<path d="M22.4398 61.5894V42.8739C22.4398 40.2678 24.2258 36.1568 26.2368 32.1535" stroke="#FF543D" stroke-width="2.3" stroke-miterlimit="10" stroke-linecap="round" stroke-linejoin="round"/>
<path d="M41.4674 17.9146H31.8121" stroke="#FF543D" stroke-width="2.3" stroke-miterlimit="10" stroke-linecap="round" stroke-linejoin="round"/>
<path d="M29.8183 67.5628L35.6752 72.2115C36.2433 72.6606 37.0364 72.6606 37.6044 72.2115L50.84 61.7085" stroke="#FF543D" stroke-width="2.3" stroke-miterlimit="10" stroke-linecap="round" stroke-linejoin="round"/>
<path d="M50.8398 44.811H22.44" stroke="#FF543D" stroke-width="2.3" stroke-miterlimit="10" stroke-linecap="round" stroke-linejoin="round"/>
<path d="M36.6396 50.5977C33.9952 50.5977 31.8515 53.1638 31.8515 56.3294C31.8515 59.4949 33.9952 62.061 36.6396 62.061C39.2841 62.061 41.4279 59.4949 41.4279 56.3294C41.4279 53.1638 39.2841 50.5977 36.6396 50.5977Z" stroke="#FF543D" stroke-width="2.3" stroke-miterlimit="10" stroke-linecap="round" stroke-linejoin="round"/>
<path d="M64.7914 65.3286C60.5757 65.3286 57.2602 61.6425 57.6079 57.3447L58.5773 45.401C58.604 45.0678 58.8763 44.8103 59.2036 44.8103H70.3792C70.7066 44.8103 70.9788 45.0678 71.0055 45.401L71.9749 57.3447C72.3226 61.6425 69.0071 65.3286 64.7914 65.3286Z" stroke="#FF543D" stroke-width="2.3" stroke-miterlimit="10" stroke-linecap="round" stroke-linejoin="round"/>
<path d="M64.7914 77.1099V65.3288" stroke="#FF543D" stroke-width="2.3" stroke-miterlimit="10" stroke-linecap="round" stroke-linejoin="round"/>
<path d="M63.8829 77.4012L58.7502 81.0402C58.3352 81.3342 58.5387 82 59.0437 82H70.5391C71.0439 82 71.2474 81.3342 70.8324 81.0402L65.6997 77.4012C65.4328 77.2121 65.1159 77.1107 64.7913 77.1107C64.4667 77.1107 64.1498 77.2121 63.8829 77.4012Z" stroke="#FF543D" stroke-width="2.3" stroke-miterlimit="10" stroke-linecap="round" stroke-linejoin="round"/>
<path d="M7.76595 64.5046C7.799 65.6378 7.23565 66.7211 6.18921 67.1847C5.21201 67.6177 4.00978 67.4036 3.18679 66.7098C2.36537 66.0161 1.93421 64.8909 2.00817 63.8028C2.13248 61.9645 3.56131 60.4885 5.24977 60.0185C6.92565 59.5533 8.76833 59.9782 10.2617 60.8185C12.0052 61.7971 13.4891 63.2362 15.0061 64.5336C15.7677 65.1839 16.5262 65.839 17.2815 66.4957" stroke="#FF543D" stroke-width="2.3" stroke-miterlimit="10" stroke-linecap="round" stroke-linejoin="round"/>
<path d="M18.4224 67.1621C15.6686 64.379 14.0887 60.6671 15.2327 56.1504" stroke="#FF543D" stroke-width="2.3" stroke-miterlimit="10" stroke-linecap="round" stroke-linejoin="round"/>
<path d="M9.45441 71.502C9.58344 69.6331 10.5874 67.8609 12.2932 66.8533C14.2775 65.6814 16.663 65.8682 18.4223 67.1301" stroke="#FF543D" stroke-width="2.3" stroke-miterlimit="10" stroke-linecap="round" stroke-linejoin="round"/>
<path d="M11.7032 76.5625C13.4058 77.8776 15.7505 78.148 17.7442 77.1001" stroke="#FF543D" stroke-width="2.3" stroke-miterlimit="10" stroke-linecap="round" stroke-linejoin="round"/>
<path d="M27.3526 71.9785C29.7901 70.2723 30.569 66.9065 29.0678 64.2473C27.4926 61.4562 24.0039 60.5 21.2753 62.1113C18.5467 63.7226 17.612 67.2912 19.1872 70.0823C19.4563 70.5604 19.782 70.9854 20.1518 71.3507" stroke="#FF543D" stroke-width="2.3" stroke-miterlimit="10" stroke-linecap="round" stroke-linejoin="round"/>
<path d="M20.5252 71.11C17.7967 72.7214 16.8618 76.2904 18.437 79.0812C20.0123 81.8724 23.5013 82.8286 26.2298 81.2172C28.9582 79.6058 29.8931 76.0369 28.3178 73.2459C26.7426 70.4549 23.2536 69.4986 20.5252 71.11Z" stroke="#FF543D" stroke-width="2.3" stroke-miterlimit="10" stroke-linecap="round" stroke-linejoin="round"/>
<path d="M11.5748 57.2393L18.1263 55.2892" stroke="#FF543D" stroke-width="2.3" stroke-miterlimit="10" stroke-linecap="round" stroke-linejoin="round"/>
</svg>
