<svg width="35" height="35" viewBox="0 0 35 35" fill="none" xmlns="http://www.w3.org/2000/svg">
<path d="M32.1447 34.3898C27.5108 37.1736 17.8938 29.5579 14.5268 29.0616C7.92308 28.1092 -1.67122 31.2963 0.249422 24.8875C1.13427 21.9189 3.64098 17.561 4.3236 15.2453C5.71844 10.5344 -2.38741 4.71729 1.87312 1.37427C6.1149 -1.94 12.0371 1.73786 17.4953 2.08017C21.0924 2.32672 24.3759 0.961782 27.8711 0.678564C30.2713 0.496584 33.0216 2.11008 32.4239 4.50125C28.7618 19.2047 39.9979 29.6539 32.1447 34.3898Z" fill="white"/>
<path d="M10 19.764C11.2785 20.5674 12.8128 21 14.411 21C19.7808 21 22.7854 16.6124 22.5936 12.7191C23.1689 12.3483 23.6164 11.8539 24 11.2978C23.4886 11.5449 22.9132 11.6685 22.3379 11.7303C22.9132 11.3596 23.3607 10.8652 23.6164 10.1854C23.0411 10.4944 22.4658 10.7416 21.7626 10.8652C21.2511 10.309 20.484 10 19.653 10C17.7991 10 16.4566 11.6685 16.8402 13.3989C14.4749 13.2753 12.3014 12.1629 10.895 10.4944C10.1279 11.7303 10.5114 13.3989 11.79 14.2022C11.3425 14.2022 10.895 14.0787 10.5114 13.8315C10.5114 15.1292 11.4064 16.3034 12.8128 16.6124C12.4292 16.736 11.9817 16.736 11.5342 16.6742C11.9178 17.7865 12.9406 18.5899 14.2192 18.5899C13.0046 19.5169 11.5342 19.9494 10 19.764Z" fill="#FF543D"/>
</svg>
