<svg width="142" height="120" viewBox="0 0 142 120" fill="none" xmlns="http://www.w3.org/2000/svg">
<g opacity="0.2">
<path d="M63.504 112.787C61.6653 111.517 59.8267 111.094 57.7052 111.376C57.4223 111.376 57.1394 111.517 56.7151 111.658C56.2908 111.799 56.008 111.799 55.8665 111.799C53.3207 111.799 51.6235 110.247 50.7749 107.001C49.6434 102.767 48.6534 100.227 47.9462 99.3804C47.0976 98.5336 45.8247 97.9691 44.4104 97.828C46.1076 98.3925 47.3805 99.3804 48.2291 100.933C49.2191 102.485 49.502 104.179 49.3606 106.295C48.512 101.779 46.3904 99.0981 42.996 97.828C42.1474 97.5457 42.006 97.5457 42.4303 97.828C42.5717 97.9691 42.8546 98.1102 43.4203 98.2514C43.8446 98.3925 44.1275 98.5336 44.4104 98.6747C46.8147 100.227 48.2291 103.191 48.6534 107.566C48.0877 107.283 47.3805 107.142 46.249 107.283C44.9761 107.424 44.1275 107.566 43.8446 107.424C41.5817 107.001 40.3088 105.59 40.0259 102.767C39.8845 102.203 39.8845 101.215 40.0259 100.086C40.1673 98.8159 40.1673 97.828 40.0259 97.2635C39.6016 94.441 38.1873 92.6064 35.6414 91.6185C37.0558 92.3241 38.1873 93.5942 38.753 95.4289C39.4602 97.2635 39.4602 99.2392 38.8944 101.215C38.6116 95.4289 36.7729 92.0419 33.2371 91.1951C36.7729 92.6064 38.3287 96.2756 37.763 102.485C35.0757 101.638 33.3785 101.074 32.6713 100.509C31.1155 99.5215 30.2669 97.9691 30.2669 95.9934C30.2669 95.4289 30.4084 94.2999 30.6912 92.6064C30.9741 91.1951 30.9741 90.0661 30.8327 89.2194C30.5498 86.9614 29.2769 85.2679 27.1554 84.1389C28.5697 84.8445 29.4183 86.2558 29.9841 88.3726C30.4084 90.6306 30.2669 92.4652 29.2769 94.1587C29.7012 91.6185 29.4183 89.2194 28.5697 87.1025C27.7211 85.1268 26.4482 83.7155 24.751 83.151C26.4482 83.9978 27.7211 85.5501 28.2869 87.8081C28.994 90.0661 28.994 92.4652 28.2869 95.0055C26.8725 94.0176 25.741 93.4531 24.8924 93.4531C22.7709 91.7596 21.7809 89.7839 22.0637 87.5259C22.0637 86.9614 22.3466 85.8324 22.9124 84.1389C23.3367 82.8688 23.4781 81.5986 23.4781 80.7519C23.3367 78.4939 22.2052 76.6593 20.2251 75.5303C21.6394 76.2359 22.3466 77.9294 22.6295 80.3285C22.7709 82.7276 22.3466 84.5623 21.3566 85.9735C22.0637 83.5744 22.2052 81.1753 21.3566 78.7761C20.6494 76.377 19.5179 74.8246 17.9622 74.4013C19.5179 75.1069 20.508 76.6593 20.9323 79.1995C21.3566 81.5986 21.0737 83.8566 20.2251 85.8324C19.5179 84.5623 18.245 83.8566 16.6892 83.2921C14.7092 81.7398 14.2849 79.4818 15.4163 76.5181C16.8307 72.5667 17.5378 70.0264 17.255 68.8974C17.1135 67.4862 16.4064 66.3572 15.1335 65.2282C16.4064 66.3572 16.8307 68.0507 16.5478 70.4498C16.2649 72.5667 15.6992 74.2601 14.5677 75.5303C15.4163 73.5545 15.8406 71.4377 15.5578 69.1797C15.4163 66.7805 14.5677 64.9459 13.2948 63.8169C13.012 63.6758 13.012 63.8169 13.2948 64.0992C13.7191 64.5225 13.8606 64.6637 13.7191 64.5225C14.5677 66.0749 15.1335 67.7684 15.1335 69.7442C15.1335 71.7199 14.7092 73.4134 13.7191 74.8246C12.8705 73.4134 11.8805 72.4255 10.8904 72.0022C9.4761 70.0264 9.4761 67.7684 10.8904 65.087C12.7291 61.7001 13.5777 59.4421 13.5777 58.1719C13.4363 56.3373 13.012 55.2083 12.1633 54.7849C13.1534 56.1962 13.2948 57.8897 12.7291 60.1477C12.1633 62.1234 11.3147 63.3936 10.1833 63.958C11.1733 62.8291 11.739 61.1356 11.8805 58.8776C12.3048 56.4784 11.8805 54.7849 11.1733 53.5148C11.1733 53.3737 11.1733 53.7971 11.4562 54.7849C12.3048 57.3252 11.5976 60.1477 9.4761 63.1113C9.4761 62.2645 8.91036 61.4178 8.06175 60.4299C7.35458 59.4421 6.93028 58.5953 6.78884 57.7486C6.64741 56.3373 7.77888 54.2204 10.0418 51.6802C12.1633 49.4222 12.7291 47.0231 11.739 44.7651C12.3048 48.011 11.0319 50.5512 8.06175 52.3858C9.33466 51.1157 10.1833 49.7044 10.6076 48.011C11.1733 45.8941 11.1733 44.0595 10.3247 42.366C11.0319 44.0595 10.8904 45.8941 10.1833 47.8698C9.61753 49.5633 8.62749 50.6923 7.49602 51.3979C7.49602 50.5512 7.35458 49.8456 6.93028 49.2811C6.36454 48.4343 6.08167 48.011 6.08167 47.7287C5.65737 46.0352 6.36454 44.3417 8.48606 42.6482C10.8904 40.6725 12.3048 39.4023 12.4462 38.6967C12.5876 38.1322 12.5876 37.2855 12.5876 35.8742C12.5876 35.4509 12.5876 35.1686 12.5876 35.4509C12.5876 35.7331 12.5876 36.2976 12.5876 37.2855C11.739 39.4023 10.3247 40.9547 8.06175 41.9426C9.61753 40.2491 10.6076 39.2612 10.8904 38.6967C11.739 37.2855 12.0219 35.592 11.8805 33.6162C11.8805 37.0032 10.4661 39.5435 7.49602 41.0958C7.77888 40.5313 7.77888 39.8257 7.49602 39.1201C7.21315 38.2733 7.07171 37.7089 7.07171 37.2855C7.21315 36.0154 8.48606 34.6041 10.8904 33.1929C13.1534 31.7816 14.1434 30.0881 13.7191 28.1124C13.7191 30.2292 12.1633 31.9227 9.4761 33.1929C11.0319 31.7816 12.0219 30.7937 12.4462 30.0881C13.2948 28.818 13.7191 27.1245 13.4363 25.0076C15.5578 23.5964 16.2649 22.044 15.9821 20.2094C15.8406 22.3263 14.4263 24.0198 11.739 25.1488C13.4363 23.5964 14.2849 22.8908 14.2849 22.7496C15.1335 21.7618 15.5578 20.6328 15.5578 19.2215C15.4163 18.9393 15.4163 18.9393 15.4163 19.2215C15.4163 19.5038 15.4163 19.6449 15.4163 19.9271C14.8506 22.044 13.7191 23.3141 12.0219 23.7375C12.3048 23.5964 12.3048 23.173 12.3048 22.4674C12.1633 21.7618 12.1633 21.3384 12.1633 21.1973C12.4462 20.0683 13.5777 19.0804 15.9821 18.0925C18.1036 17.1046 18.9522 15.8345 18.8108 14.2821C18.5279 16.399 17.1135 17.6691 14.7092 17.8103C17.255 16.5401 18.5279 14.8466 18.8108 12.7298C21.0737 12.4475 22.2052 11.6008 22.2052 10.0484C21.3566 11.7419 20.2251 12.4475 18.6693 12.0242C21.0737 11.4597 22.2052 10.4718 22.2052 8.77829C21.7809 10.4718 20.6494 11.3185 18.9522 11.3185C19.3765 10.6129 19.5179 9.76616 19.5179 8.77829C19.9422 8.07266 21.0737 7.36704 23.3367 6.52029C25.1753 5.81467 26.0239 4.82679 25.8825 3.55667C25.741 4.40342 25.3167 5.10904 24.4681 5.67354C23.761 6.09692 23.0538 6.37917 22.2052 6.37917C24.751 5.25017 25.8825 3.98004 25.741 2.5688C25.5996 3.27442 25.3167 3.98005 24.6096 4.68567C24.0438 5.25017 23.3367 5.53242 22.7709 5.67354C22.9124 2.85105 23.3367 1.01643 24.1853 0.169678C23.6195 0.593052 23.0538 1.86317 22.3466 3.83892C22.2052 3.41555 22.2052 3.1333 22.3466 2.70992C22.2052 3.27442 22.0637 4.26229 22.0637 5.53242C21.7809 5.67354 21.3566 5.95579 20.6494 6.52029C20.0837 6.94366 19.6594 7.08479 19.3765 7.22591C19.3765 7.08479 19.9422 5.95579 21.2151 3.55667C19.9422 4.26229 19.2351 5.95579 18.8108 8.63716C18.3865 7.36704 18.8108 5.81467 20.0837 3.83892C18.9522 4.26229 18.3865 5.25017 18.5279 6.66142C18.5279 9.06054 18.5279 10.4718 18.5279 10.6129C18.3865 11.1774 17.8207 11.7419 16.9721 12.3064C15.9821 12.8709 15.4163 13.1532 15.2749 13.4354C14.8506 12.5887 14.7092 11.4597 15.2749 10.1895C15.6992 9.06054 15.9821 8.35491 16.4064 8.21379C14.992 8.91941 14.4263 10.8952 14.8506 13.9999C14.4263 13.4354 14.2849 12.4475 14.4263 11.3185C14.5677 10.1895 14.7092 9.48391 15.1335 9.06053C13.8606 9.76616 13.4363 10.8952 13.8606 12.3064L14.5677 15.8345C14.5677 16.6813 14.1434 17.3869 13.2948 18.0925C12.3048 18.7981 11.739 19.5038 11.5976 20.0683C11.1733 19.0804 10.8904 18.2336 10.8904 17.1046C10.749 15.8345 11.0319 14.9878 11.5976 14.4233C10.8904 14.7055 10.6076 15.6934 10.6076 17.3869C10.6076 18.7981 10.749 19.9271 11.0319 21.0561C9.75896 19.0804 9.33466 17.2458 10.1833 15.4111C9.33466 16.5401 9.19323 17.8103 9.9004 19.2215C10.8904 21.4795 11.3147 22.7496 11.3147 22.7496C11.4562 23.7375 11.1733 24.5843 10.6076 25.2899C9.61753 26.56 9.05179 27.4067 8.91036 27.689C7.92032 25.5721 7.49602 23.8786 7.63745 22.7496C7.63745 22.4674 7.77888 22.044 8.06175 21.1973C8.20319 20.6328 8.20319 20.7739 8.06175 21.1973C6.93028 23.4553 7.07171 25.8544 8.62749 28.2535C7.49602 26.9834 6.93028 25.9955 6.78884 25.2899C6.64741 24.302 6.50598 23.4553 6.64741 23.0319C6.22311 24.302 6.36454 25.5721 7.07171 26.8422C8.34462 29.2414 9.05179 30.5115 9.05179 30.6526C9.19323 31.7816 8.91036 32.7695 8.06175 33.7574C7.07171 35.0275 6.50598 36.0154 6.36454 36.8621C4.80876 35.1686 4.10159 33.1929 4.24303 31.2171C4.5259 30.9349 4.5259 30.7937 4.38446 30.7937C3.96016 30.5115 3.81873 30.6526 3.81873 30.9349C3.53586 32.9106 4.10159 35.0275 5.7988 37.2855C4.38446 36.1565 3.39442 34.7452 3.25299 32.9106C3.25299 32.9106 3.25299 32.6284 3.25299 32.0639C3.39442 31.6405 3.25299 31.4994 3.25299 31.7816C2.54582 33.334 2.82869 34.8864 4.24303 36.4387C5.65737 38.2733 6.50598 39.4023 6.64741 39.8257C6.78884 40.8136 6.50598 41.9426 5.7988 43.3538C5.09163 44.624 4.80876 45.753 4.9502 46.7408C2.97012 45.3296 1.83865 43.3538 1.41434 40.9547C1.27291 42.5071 1.69721 43.9183 2.68725 45.1885C2.97012 45.4707 3.25299 46.0352 3.81873 46.5997C4.24303 47.1642 4.66733 47.5876 4.80876 47.8698C2.68725 46.5997 1.41434 44.9062 0.848606 42.6482C0.707171 44.4828 1.69721 46.1763 3.81873 47.8698C5.94024 49.5633 6.93028 51.1157 6.78884 52.6681C6.36454 57.0429 6.08167 59.1598 5.94024 58.8776C2.68725 56.9018 0.848606 54.7849 0.565737 52.3858C0.424303 52.1036 0.424303 51.8213 0.424303 51.6802V52.6681C0.707171 54.9261 2.54582 57.3252 6.08167 60.0066C3.39442 59.1598 1.41434 57.1841 0.141434 54.0793C-1.05377e-08 53.9382 -1.05377e-08 53.6559 0.141434 53.2326C0.141434 53.0914 0.141434 53.0914 0 53.2326V54.5027C0.141434 56.0551 0.707171 57.3252 1.69721 58.3131C2.26295 58.8776 3.39442 59.5832 5.09163 60.2888C6.64741 60.9944 7.63745 61.7001 8.20319 62.5468C8.76892 63.3936 9.05179 64.8048 8.91036 66.4983C8.76892 68.3329 8.91036 69.7442 9.33466 70.5909C4.80876 69.4619 2.12151 67.2039 1.13147 63.5347C1.41434 65.6515 2.40438 67.4862 3.96016 68.8974C4.80876 69.603 6.64741 70.5909 9.19323 71.861C4.66733 71.2965 1.98008 69.1797 0.848606 65.7927C1.27291 67.7684 1.98008 69.1797 2.82869 70.0264C3.53586 70.732 5.65737 71.7199 9.19323 72.7078C11.8805 73.5545 13.4363 74.9658 13.7191 76.8004C14.1434 80.3285 14.5677 82.3043 14.992 82.5865C11.1733 83.0099 8.20319 82.022 6.08167 79.6229C5.51594 78.9173 5.09163 78.3528 4.80876 77.6471C6.22311 81.0341 9.4761 83.151 14.8506 83.8566C10.0418 84.28 6.78885 83.0099 5.09163 79.764C6.36454 82.7276 8.62749 84.4211 11.739 84.7034C12.3048 84.7034 13.012 84.8445 14.002 84.8445C14.992 84.8445 15.6992 84.8445 15.9821 84.8445C17.5378 84.9856 18.6693 85.2679 19.3765 86.1146C19.9422 86.6791 20.508 87.8081 20.9323 89.7839C21.3566 91.6185 21.9223 92.7475 22.6295 93.1709C20.2251 93.8765 17.8207 93.8765 15.1335 93.1709C12.7291 92.4652 11.1733 91.4774 10.4661 90.2072C12.0219 93.4531 15.6992 94.8644 21.7809 94.441C20.0837 95.2877 18.1036 95.4289 15.8406 95.0055C13.8606 94.5821 12.4462 93.7354 11.4562 92.6064C13.4363 94.7232 15.5578 95.8522 17.8207 95.9934C18.6693 95.9934 19.6594 95.8522 20.9323 95.7111C22.488 95.4289 23.4781 95.2877 23.761 95.2877C25.8825 95.0055 27.4382 95.8522 28.5697 97.5457C30.2669 100.227 31.3984 101.779 31.8227 101.921C29.9841 102.908 27.8626 103.473 25.3167 103.473C22.4881 103.614 20.6494 103.05 19.3765 101.921C20.3665 103.191 22.0637 103.896 24.751 104.179C27.0139 104.32 29.1355 104.037 30.9741 103.332C29.7012 104.32 28.004 104.884 25.8825 105.025C23.6195 105.166 21.9223 104.743 20.7908 103.755C22.6295 105.872 25.4582 106.154 29.7012 104.602C31.9641 103.755 33.5199 103.332 34.3685 103.332C35.9243 103.05 37.3386 103.473 38.3287 104.461C41.2988 107.142 42.5717 108.412 42.1474 108.271C38.0458 110.67 35.3586 111.799 34.3685 111.799C33.8028 111.799 32.6713 111.517 30.8327 110.953C29.9841 110.67 29.8426 110.67 30.4084 110.953C31.9641 111.94 33.9442 112.223 36.49 111.94C38.8944 111.658 40.7331 110.953 42.1474 109.682C41.1574 110.953 39.743 111.94 37.763 112.505C35.6414 113.211 33.8028 113.211 32.247 112.505C34.51 114.057 37.0558 114.057 39.8845 112.223C43.5618 109.965 45.8247 108.836 46.6733 108.836C47.9462 108.836 49.3606 109.4 50.492 110.67C51.9064 111.94 53.1793 112.787 54.3108 112.928C50.6335 116.598 47.0976 118.291 43.7032 117.868C45.8247 118.432 47.8048 118.291 49.9263 117.303C50.0677 117.303 51.4821 116.315 54.3108 114.622C52.8964 116.315 51.7649 117.303 51.0578 117.868C49.6434 118.856 47.8048 119.279 45.6833 119.138C45.259 118.997 45.259 119.138 45.8247 119.138C46.3904 119.279 46.8147 119.42 46.9562 119.42C49.0777 119.561 51.9064 118.15 55.3008 115.186C56.7151 113.916 57.8466 113.211 58.9781 113.069C60.3924 112.787 61.9482 113.211 63.6454 114.34L63.504 112.787ZM15.9821 13.9999C16.6892 13.012 17.5378 12.5887 18.5279 12.8709C18.3865 14.141 17.255 15.5523 15.4163 16.9635C15.1335 15.9756 15.4163 14.9878 15.9821 13.9999ZM13.012 25.2899C13.5777 26.7011 13.4363 27.9712 12.5876 29.3825C11.8805 30.5115 10.8904 31.3582 9.75896 31.9227C9.33466 28.2535 10.4661 25.9955 13.012 25.2899Z" fill="#FF543D"/>
<path d="M141.576 53.6557C141.151 56.9016 139.171 58.8773 135.635 59.7241C138.747 57.8894 140.586 55.9137 141.01 53.6557C141.151 53.3734 141.151 52.9501 141.151 52.3856C141.151 51.68 141.151 51.3977 141.01 51.68C140.868 55.0669 138.888 57.4661 135.352 58.7362C135.918 57.7483 135.918 56.7604 135.494 55.4903C134.928 53.5146 134.504 52.6678 134.504 52.809C134.362 51.2566 135.494 49.5631 137.757 47.7285C139.878 46.1761 140.727 44.3415 140.444 42.2246C140.444 42.648 140.303 43.0713 140.161 43.777C139.596 45.6116 138.181 47.0228 136.343 48.0107C137.757 46.4583 138.605 45.4705 138.888 45.0471C139.596 43.777 139.878 42.2246 139.737 40.39C139.596 40.2489 139.596 40.5311 139.596 41.0956C139.596 41.9423 139.596 42.3657 139.596 42.3657C139.171 44.2003 138.04 45.7527 136.201 46.7406C136.343 45.6116 136.201 44.6237 135.635 43.777C135.07 42.648 134.645 41.8012 134.504 41.519C134.362 40.2489 135.07 38.6965 136.767 36.7207C138.181 35.0272 138.605 33.3337 138.04 31.6402C138.323 32.7692 138.04 33.8982 137.474 35.0272C136.908 36.0151 136.343 36.7207 135.494 37.003C136.201 36.1562 136.767 35.1684 137.191 33.8982C137.615 32.3459 137.615 31.0757 136.908 30.0879C137.333 31.2169 137.333 32.487 136.767 33.8982C136.343 35.1684 135.635 36.0151 134.928 36.4385C134.928 35.5917 134.504 34.745 133.797 34.0394C132.948 33.1926 132.524 32.6281 132.524 32.0636C132.382 31.0757 132.948 29.5234 134.221 27.1243C135.352 25.1485 135.352 23.5961 134.221 22.0438C134.645 23.0316 134.787 24.1606 134.362 25.5719C133.938 26.842 133.514 27.5476 132.807 27.8299C133.372 26.842 133.797 25.713 133.938 24.3018C134.08 23.1728 133.938 22.1849 133.514 21.197C133.655 21.6204 133.655 22.1849 133.655 22.8905C133.797 24.8663 133.372 26.2775 132.099 27.2654C131.958 26.7009 131.675 25.9953 130.968 25.5719C130.402 25.0074 129.978 24.4429 129.837 24.0195C129.695 23.455 130.119 21.7615 131.109 19.0801C131.817 16.9633 131.675 15.552 130.402 14.8464C131.109 15.552 131.251 16.5399 131.109 17.81C130.968 19.0801 130.544 19.9269 129.837 20.6325C130.402 19.7858 130.544 18.5156 130.544 16.8221C130.544 15.1287 130.119 14.2819 129.271 13.9997C129.837 14.5642 130.261 15.552 130.261 16.9633C130.261 18.3745 129.837 19.3624 129.271 19.7858C129.129 19.2213 128.705 18.5156 127.856 17.81C127.008 17.2455 126.584 16.5399 126.584 15.6932C126.584 15.552 126.866 14.2819 127.291 11.8828C127.574 10.3304 127.291 9.34254 126.159 9.06029C126.725 9.48366 127.008 10.1893 127.008 11.3183C127.008 12.4473 126.725 13.1529 126.301 13.8585C126.584 12.7295 126.584 11.6005 126.301 10.3304C126.018 9.06029 125.594 8.35467 124.886 8.21354C125.594 8.77804 126.018 9.48366 126.159 10.6127C126.301 11.7417 126.159 12.7295 125.735 13.5763C125.594 13.0118 125.169 12.5884 124.462 12.3062C123.755 12.0239 123.189 11.6005 122.906 11.1772C122.623 10.7538 122.482 9.20142 122.623 6.8023C122.623 4.96767 122.058 3.9798 120.785 3.83868C121.492 4.12093 121.916 4.68542 122.199 5.6733C122.482 6.66117 122.482 7.64904 122.058 8.35467C122.199 7.08454 121.916 6.09667 121.492 5.1088C121.068 4.12093 120.502 3.55643 119.795 3.4153C121.068 4.40318 121.633 5.6733 121.492 7.22567C120.926 6.66117 120.219 6.09667 119.229 5.6733C119.229 5.6733 119.088 4.5443 118.805 2.2863C118.663 0.875058 118.239 0.169434 117.39 0.169434C117.815 0.451683 118.239 0.875057 118.522 1.43956C118.805 2.14518 118.805 2.70968 118.522 3.27418C118.239 1.15731 117.673 0.0283091 116.966 0.0283091C116.683 -0.25394 117.107 1.58068 118.38 5.24992C116.825 4.68542 115.693 3.69755 115.127 2.2863C115.269 3.27418 116.542 4.5443 118.805 6.09667C116.966 5.6733 115.693 4.82655 115.127 3.69755C115.41 4.82655 116.4 5.6733 118.239 6.37892C120.078 7.08454 121.209 7.93129 121.492 8.77804C121.633 9.06029 121.633 9.48366 121.633 10.0482C121.633 10.6127 121.633 11.036 121.775 11.3183C120.219 10.8949 119.088 9.90704 118.38 8.35467C118.522 9.48366 119.795 10.6127 122.199 12.0239C120.785 12.0239 119.512 11.1772 118.38 9.62479C118.663 10.8949 119.936 11.8828 122.199 12.7295C122.341 14.2819 123.755 15.9754 126.301 17.81C123.613 16.9633 122.199 15.552 122.058 13.5763C121.633 15.1287 122.482 16.5399 124.745 17.6689C127.291 18.939 128.564 20.068 128.705 21.197C128.705 21.3381 128.705 21.7615 128.564 22.4671C128.422 23.0316 128.564 23.5961 128.705 24.0195C126.725 22.8905 125.594 21.3381 125.169 19.3624C125.169 20.6325 125.594 21.9026 126.584 22.8905C126.866 23.1728 127.291 23.5961 127.856 24.0195C128.281 24.4429 128.705 24.8663 128.847 25.0074C126.301 23.8784 124.886 22.1849 124.603 19.9269C124.462 21.3381 124.886 22.4671 125.735 23.455C126.159 23.8784 127.008 24.584 128.422 25.4308C129.695 26.1364 130.402 26.842 130.827 27.5476C131.392 28.6766 131.534 29.9467 130.968 31.6402C128.847 30.0879 127.715 28.5355 127.432 26.842C127.432 27.5476 127.574 28.1121 127.574 28.2533C127.998 29.2411 129.271 30.6524 131.251 32.7692C129.695 32.0636 128.705 31.358 128.139 30.5112C127.856 30.229 127.574 29.2411 126.866 27.6888C126.866 27.6888 126.866 27.5476 126.866 27.2654C126.866 26.842 126.725 26.7009 126.725 26.842C126.725 26.842 126.725 27.2654 126.725 28.1121C126.866 29.9467 127.715 31.358 129.271 32.487C129.412 32.6281 129.978 32.9104 130.968 33.3337C131.817 33.7571 132.524 34.1805 132.948 34.745C133.514 35.4506 133.797 36.4385 133.655 37.5675C133.372 39.9666 133.372 41.0956 133.372 40.6722C131.109 38.9787 129.695 37.1441 129.271 35.4506C129.129 34.3216 129.129 33.616 129.129 33.3337C128.847 35.1684 129.271 36.8619 130.261 38.4142C130.119 38.2731 131.109 39.261 132.948 41.519C130.261 39.9666 128.847 37.9909 128.564 35.7329C128.281 37.8497 129.271 39.6844 131.675 41.3778C134.08 43.2125 135.211 45.1882 135.07 47.3051C134.928 47.4462 134.362 48.7163 133.372 51.1155C130.685 47.7285 129.837 44.7648 130.827 42.2246C130.544 41.9423 130.261 42.5068 130.119 43.9181C129.837 45.8938 130.827 48.5752 133.09 51.9622C130.544 49.5631 129.271 47.4462 129.271 45.6116C129.271 45.1882 129.271 44.6237 129.412 44.3415C129.554 43.9181 129.554 43.777 129.554 43.777C129.554 43.777 129.412 43.9181 129.271 44.2003C129.129 44.6237 128.988 44.906 128.988 45.3293C128.705 47.4462 129.271 49.2808 130.827 50.8332C132.807 52.9501 133.797 54.3613 134.08 55.3492C134.504 56.7604 134.362 58.0306 133.372 59.4418C131.958 61.4176 131.251 62.4054 131.251 62.5466C130.119 61.2764 129.554 59.5829 129.271 57.3249C129.129 55.0669 129.412 53.2323 130.402 51.9622C129.271 53.2323 128.705 55.2081 128.847 57.7483C128.988 60.1474 129.695 61.9821 130.685 63.3933C129.554 62.6877 128.705 61.2764 128.139 59.3007C127.715 57.3249 127.715 55.6314 128.281 54.0791C126.725 56.0548 126.725 58.5951 128.281 61.4176C130.261 65.0868 131.109 67.2037 131.109 67.627C131.109 68.8972 130.544 70.1673 129.554 71.1552C127.856 72.8487 127.008 73.8365 126.866 73.9777C125.876 72.4253 125.452 70.4495 125.594 68.0504C125.876 65.6513 126.442 63.9578 127.574 62.9699C126.159 63.9578 125.311 65.7924 125.028 68.4738C124.886 70.8729 125.169 72.9898 126.018 74.9655C124.886 73.6954 124.321 72.0019 124.179 69.7439C124.038 68.0504 124.321 66.7803 124.745 65.6513C124.462 67.3448 124.038 68.3327 124.038 69.0383C123.755 70.5907 124.038 72.2842 124.886 74.1188C125.876 76.2356 126.442 77.5058 126.442 78.0703C126.725 80.046 126.018 81.5984 124.745 82.7274C124.462 83.0096 123.755 83.433 122.765 84.1386C121.916 84.7031 121.209 85.2676 120.785 85.691C119.936 83.7153 119.653 81.4573 120.219 79.0581C120.785 76.8001 121.633 75.2478 122.906 74.1188C121.492 75.1067 120.36 76.659 119.795 78.917C119.229 81.0339 119.229 83.2919 119.653 85.691C118.805 84.2798 118.38 82.304 118.663 80.046C118.805 78.4936 119.229 77.3646 119.795 76.5179C118.663 77.9291 117.956 79.3404 117.815 80.7516C117.673 81.7395 117.956 82.8685 118.38 84.4209C118.946 86.1144 119.229 87.3845 119.229 88.0901C119.37 90.0659 118.805 91.6182 117.249 92.7472C116.825 93.1706 115.269 94.0174 112.864 95.2875C112.299 92.8884 112.44 90.4893 113.006 88.2313C113.572 86.1144 114.562 84.7031 115.835 83.5741C113.006 85.2676 111.592 88.9369 111.592 94.2996C110.884 92.465 110.743 90.4893 111.45 88.2313C111.874 86.82 112.44 85.691 113.147 84.8443C111.592 86.3966 110.743 87.949 110.46 89.5014C110.319 90.3481 110.46 91.7594 110.743 93.594C111.026 95.4286 111.167 96.8399 110.884 97.6866C110.601 99.239 109.611 100.368 108.056 101.074C107.49 101.356 106.783 101.638 105.793 101.92C104.52 102.344 103.813 102.626 103.247 102.767C103.105 96.5576 104.944 92.6061 108.763 91.0537C104.944 92.1827 102.823 95.852 102.257 101.779C101.408 97.5455 102.398 94.2996 105.227 92.0416C102.54 93.594 101.125 96.1342 101.125 99.8035C101.125 102.344 100.984 104.178 100.701 105.166C100.135 106.86 99.0039 107.706 97.3067 107.989C97.0238 107.989 96.3166 107.989 94.9023 107.848C93.9122 107.706 93.0636 107.848 92.4979 108.13C93.2051 103.896 94.6194 101.074 96.5995 99.5212L98.0138 98.6745C98.8624 98.2511 99.0039 98.11 98.4381 98.3922C96.5995 98.8156 95.0437 99.9446 93.9122 101.638C93.4879 102.485 92.6393 104.178 91.5079 107.001C91.7907 102.485 93.4879 99.5212 96.7409 98.11C95.0437 98.6745 93.7708 99.3801 93.0636 100.086C92.215 101.074 91.3664 102.908 90.8007 105.731C90.2349 108.553 89.5278 110.247 88.5377 110.952C87.5477 111.799 85.7091 111.94 83.3047 111.658C81.466 111.376 79.6274 111.94 77.5059 113.069V114.48C78.4959 113.634 79.7688 113.21 81.1832 113.21C82.5975 113.21 83.8704 113.493 84.8604 114.198C85.4262 114.622 86.1334 115.186 86.8405 116.033C87.6891 117.021 88.3963 117.585 88.6792 117.867C90.2349 119.279 92.0736 119.843 94.1951 119.561C95.8923 119.42 96.3166 119.279 95.3266 119.279C92.9222 119.138 91.225 118.714 90.0935 118.15C89.2449 117.726 88.2549 116.456 86.8405 114.622C90.6593 118.009 94.1951 119.138 97.4481 118.009C95.0437 118.432 92.9222 118.009 90.9421 116.88C90.5178 116.597 89.1035 115.327 86.6991 113.069C87.972 112.928 89.2449 112.364 90.5178 111.093C91.7907 109.823 93.0636 109.259 94.3365 109.259C95.1851 109.259 97.4481 110.388 100.984 112.646C103.813 114.48 106.217 114.48 108.48 112.928C106.783 113.634 104.803 113.634 102.823 112.928C101.125 112.222 99.8525 111.376 99.1453 110.106C100.56 111.376 102.398 112.081 104.803 112.505C107.348 112.787 109.47 112.364 111.026 111.235C109.187 112.222 106.924 112.505 104.378 111.799C101.974 111.235 100.135 110.106 98.8624 108.553C99.711 108.412 100.56 107.848 101.125 107.001C102.257 105.448 102.681 104.884 102.54 105.025C104.096 103.473 105.934 103.19 108.197 104.037C112.016 105.307 113.996 106.013 114.279 106.154C116.825 106.436 118.946 105.59 120.36 103.896C119.229 105.166 117.532 105.731 115.269 105.448C113.006 105.307 111.309 104.602 110.177 103.473C112.016 104.461 114.279 104.743 116.825 104.461C119.512 104.178 121.209 103.332 121.775 101.92C120.643 103.332 118.663 104.037 115.835 103.896C113.289 103.755 111.167 103.19 109.47 102.061C111.167 100.932 112.157 99.5212 112.44 97.8277C113.854 96.2754 115.269 95.4286 116.542 95.2875C117.249 95.1464 118.38 95.2875 119.936 95.7109C121.492 96.1342 122.765 96.2754 123.472 96.2754C126.442 96.2754 128.564 95.0052 129.695 92.7472C128.988 94.1585 127.432 95.0052 125.311 95.2875C123.189 95.7109 121.35 95.2875 119.653 94.4407C122.341 94.8641 124.745 94.723 126.866 93.8762C128.988 93.0295 130.261 91.7594 130.968 90.207C130.119 91.9005 128.422 93.0295 126.018 93.594C123.755 94.1585 121.35 94.0174 118.805 93.4529C119.229 93.1706 119.936 91.336 121.068 88.0901C121.633 86.2555 123.613 85.2676 127.008 84.9854C130.968 84.562 133.372 84.1386 134.362 83.433C135.211 82.7274 135.918 81.7395 136.343 80.4694C135.635 81.8806 134.504 83.0096 132.807 83.5741C131.109 84.2798 129.129 84.4209 127.008 83.9975C132.948 83.5741 136.201 81.4573 137.05 77.6469C135.494 81.3161 132.099 83.1508 126.866 82.8685C127.574 82.304 127.998 81.3161 128.139 80.1871C128.139 79.9049 128.139 79.4815 128.139 78.6348C128.139 77.9291 128.139 77.3646 128.281 76.9413C128.564 75.1067 129.978 73.8365 132.382 73.1309C135.777 72.0019 137.757 71.2963 138.181 71.014C139.737 69.885 140.727 68.1915 140.727 65.9335C140.161 69.7439 137.474 71.7197 132.665 71.8608C137.615 70.0262 140.303 67.3448 140.727 63.8167C139.596 67.7682 136.908 70.0262 132.524 70.8729C132.807 70.1673 132.948 68.3327 133.09 65.3691C133.231 63.5344 133.938 62.2643 135.352 61.4176C139.171 59.0184 141.293 57.3249 141.717 56.3371C141.858 56.0548 141.858 55.4903 142 54.7847C141.717 53.5146 141.717 53.3734 141.576 53.6557ZM122.906 12.7295C125.028 13.0118 126.018 14.423 126.018 16.8221C124.179 15.8343 123.048 14.5642 122.906 12.7295Z" fill="#FF543D"/>
<path d="M50.9168 77.5059C50.6339 77.2237 50.6339 76.3769 50.4925 76.0947C50.0682 75.9535 49.6438 75.9535 49.2195 75.9535C48.3709 75.9535 47.6638 76.3769 47.6638 77.2237C47.6638 78.0704 47.9466 78.4938 49.2195 78.776L50.9168 79.1994C52.4725 79.6228 53.8869 80.4695 53.8869 82.8686C53.8869 85.55 51.7654 86.9613 49.0781 86.9613C47.6638 86.9613 45.9666 86.679 44.8351 85.8323C44.8351 84.9855 44.9765 83.7154 45.4008 83.1509H47.098C47.2395 83.4331 47.3809 84.1388 47.5223 84.7033C47.9466 84.8444 48.6538 84.9855 49.0781 84.9855C50.2096 84.9855 51.0582 84.421 51.0582 83.4331C51.0582 82.8686 50.9168 82.3041 49.7853 81.8808L47.8052 81.3163C46.2494 80.8929 44.8351 79.7639 44.8351 77.647C44.8351 75.389 46.6737 73.9778 49.2195 73.9778C50.4925 73.9778 51.9068 74.26 53.1797 74.8245C53.1797 75.6713 53.0383 76.9414 52.614 77.5059H50.9168Z" fill="#FF543D"/>
<path d="M68.5961 75.5302C68.4546 75.8124 68.0303 75.9535 67.606 76.0947V84.5621C68.0303 84.7033 68.4546 84.9855 68.5961 85.1266L68.4546 86.679H64.0702L63.9287 85.1266C64.0702 84.8444 64.4945 84.7033 64.9188 84.5621V80.8929H60.8172V84.5621C61.2415 84.7033 61.6658 84.9855 61.8072 85.1266L61.6658 86.679H57.2813L57.1399 85.1266C57.2813 84.8444 57.7056 84.7033 58.1299 84.5621V76.0947C57.7056 75.9535 57.2813 75.6713 57.1399 75.5302L57.2813 73.9778H61.6658L61.8072 75.5302C61.6658 75.8124 61.2415 75.9535 60.8172 76.0947V79.0583H64.9188V76.0947C64.4945 75.9535 64.0702 75.6713 63.9287 75.5302L64.0702 73.9778H68.4546L68.5961 75.5302Z" fill="#FF543D"/>
<path d="M77.506 73.8367C80.9005 73.8367 82.8805 75.389 82.8805 80.1873C82.8805 84.7033 80.759 86.9613 77.3646 86.9613C73.9702 86.9613 72.1315 85.1266 72.1315 80.4695C71.9901 75.9535 74.1116 73.8367 77.506 73.8367ZM77.3646 84.8444C78.9204 84.8444 80.0519 83.7154 80.0519 80.3284C80.0519 76.9414 78.9204 75.8124 77.3646 75.8124C75.8088 75.8124 74.8188 76.8003 74.8188 80.1873C74.8188 83.7154 75.9503 84.8444 77.3646 84.8444Z" fill="#FF543D"/>
<path d="M89.9524 82.445V84.5619C90.6596 84.703 91.3668 84.9853 91.6496 85.2675L91.5082 86.8199H86.4166L86.2751 85.2675C86.4166 84.9853 86.8409 84.8441 87.2652 84.703V76.2355C86.8409 76.0944 86.4166 75.8122 86.2751 75.671L86.4166 74.1187H91.3668C94.6198 74.1187 96.4584 74.9654 96.4584 78.2113C96.4584 81.316 94.1955 82.445 90.801 82.445H89.9524ZM89.9524 76.0944V80.3281H91.2254C92.7811 80.3281 93.7712 79.7636 93.7712 78.0701C93.7712 76.2355 92.6397 75.9533 91.0839 75.9533H89.9524V76.0944Z" fill="#FF543D"/>
<path d="M26.4478 24.7252C121.492 24.7252 20.0833 24.7252 114.986 24.7252C116.117 24.7252 116.117 22.8906 114.986 22.8906C19.9419 22.8906 121.35 22.8906 26.4478 22.8906C25.1749 22.8906 25.1749 24.7252 26.4478 24.7252Z" fill="#FF543D"/>
<path d="M26.4478 68.8971C121.492 68.8971 20.0833 68.8971 114.986 68.8971C116.117 68.8971 116.117 67.0625 114.986 67.0625C19.9419 67.0625 121.35 67.0625 26.4478 67.0625C25.1749 67.0625 25.1749 68.8971 26.4478 68.8971Z" fill="#FF543D"/>
<path d="M34.3681 27.2654L37.0553 53.2323L40.3083 27.2654H45.2585L48.5115 53.2323L51.1988 27.2654H56.149L52.1888 64.3812H44.9757L42.9956 47.4462L40.8741 64.3812H33.5195L29.5593 27.2654H34.3681Z" fill="#FF543D"/>
<path d="M62.6548 27.2654H67.4636V64.3812H62.6548V27.2654Z" fill="#FF543D"/>
<path d="M81.7487 27.2654L86.2746 45.7527V27.2654H91.0834V64.3812H85.426L80.6172 44.4826V64.3812H75.8085V27.2654H81.7487Z" fill="#FF543D"/>
<path d="M111.874 64.3812H99.5693V27.2654H111.45V32.0636H104.237V42.2246H109.328V47.0228H104.237V59.5829H111.733V64.3812H111.874Z" fill="#FF543D"/>
<path d="M47.2384 12.5883C47.2384 14.564 45.8241 15.1285 44.1269 15.1285H43.1368C43.1368 16.1164 43.1368 17.2454 43.1368 18.2332L43.844 18.6566V19.08C42.9954 19.08 41.7225 19.08 40.8739 19.08V18.6566L41.5811 18.2332C41.5811 15.1285 41.5811 12.0238 41.5811 8.91901L41.0153 8.49564V8.07227H44.2683C45.9655 8.07227 47.3799 8.77789 47.3799 10.6125V12.5883H47.2384ZM42.9954 9.06014C42.9954 10.7536 42.9954 12.4471 42.9954 14.2818H43.9855C45.1169 14.2818 45.3998 13.7173 45.3998 12.7294V10.6125C45.3998 9.62464 44.9755 9.06014 43.9855 9.06014H42.9954Z" fill="#FF543D"/>
<path d="M52.8953 15.693C52.6124 14.8463 52.3295 14.564 51.3395 14.564C51.3395 15.5519 51.3395 17.2454 51.3395 18.2332L52.0467 18.6566V19.08C51.0566 19.08 49.9251 19.08 49.0765 19.08V18.6566L49.7837 18.2332C49.7837 15.1285 49.7837 12.0238 49.7837 8.91901L49.218 8.49564V8.07227H52.471C54.1682 8.07227 55.5825 8.77789 55.5825 10.6125V12.0238C55.5825 13.435 54.8753 14.1406 53.7439 14.2818C54.1682 14.564 54.451 14.8463 54.5925 15.2696L55.2996 17.2454C55.4411 17.6687 55.7239 18.2332 56.2897 18.2332V18.7977C56.0068 18.9389 55.4411 18.9389 55.1582 18.9389C54.1682 18.9389 54.0267 18.2332 53.7439 17.3865L52.8953 15.693ZM51.3395 9.06014C51.3395 10.7536 51.3395 12.0238 51.3395 13.7173H52.3295C53.461 13.7173 53.7439 13.1528 53.7439 12.1649V10.7536C53.7439 9.76576 53.3196 9.20126 52.3295 9.20126H51.3395V9.06014Z" fill="#FF543D"/>
<path d="M57.8464 19.08V18.6566L58.5536 18.2332C58.5536 15.1285 58.5536 12.0238 58.5536 8.91901L57.9879 8.49564V8.07227C59.9679 8.07227 61.6652 8.07227 63.6452 8.07227V10.6125H62.7966L62.3723 9.06014H60.2508C60.2508 10.4714 60.2508 11.8826 60.2508 13.1528H61.8066L62.2309 12.306H62.6552C62.6552 13.1528 62.6552 14.1406 62.6552 14.9874H62.2309L61.8066 14.1406H60.2508C60.2508 15.2696 60.2508 16.3986 60.2508 17.6687C60.2508 17.951 60.2508 18.0921 59.9679 18.0921V18.2332C60.8166 18.2332 61.8066 18.2332 62.6552 18.2332L63.2209 16.6809H63.9281V19.2211C61.8066 19.08 59.8265 19.08 57.8464 19.08Z" fill="#FF543D"/>
<path d="M68.3126 18.6566V19.08C67.6054 19.08 66.6154 19.08 65.9082 19.08V18.6566L66.6154 18.2332C66.6154 15.1285 66.6154 12.0238 66.6154 8.91901L66.0496 8.49564V8.07227C66.8982 8.07227 67.6054 8.07227 68.3126 8.07227C68.8783 8.07227 69.1612 8.21339 69.3026 8.77789C69.8684 11.8826 70.2927 13.9995 70.5755 17.1042L71.9899 8.77789C72.1313 8.21339 72.2727 8.07227 72.9799 8.07227C73.8285 8.07227 74.3943 8.07227 75.2429 8.07227V8.49564L74.5357 8.91901C74.5357 12.0238 74.5357 15.1285 74.5357 18.2332L75.2429 18.6566V19.08C74.3943 19.08 73.1214 19.08 72.2727 19.08V18.6566L72.9799 18.2332C72.9799 15.693 72.9799 13.2939 72.9799 10.7536V9.20126L71.2827 19.08H70.0098C69.7269 19.08 69.5855 18.9389 69.4441 18.6566C68.8783 15.5519 68.454 12.5883 67.8883 9.34239H67.464L67.6054 11.3181C67.6054 13.5761 67.6054 15.9752 67.6054 18.2332L68.3126 18.6566Z" fill="#FF543D"/>
<path d="M79.4862 18.2332L80.1934 18.6566V19.08C79.3448 19.08 78.0719 19.08 77.2233 19.08V18.6566L77.9304 18.2332C77.9304 15.1285 77.9304 12.0238 77.9304 8.91901L77.3647 8.49564V8.07227H80.1934V8.49564L79.6276 8.91901C79.4862 12.0238 79.4862 15.1285 79.4862 18.2332Z" fill="#FF543D"/>
<path d="M87.5477 16.2575V8.91901L86.9819 8.49564V8.07227H89.2449V8.49564L88.6791 8.91901V16.2575C88.6791 18.3744 87.4062 19.2211 85.709 19.2211C84.0118 19.2211 82.7389 18.2332 82.7389 16.2575V8.91901L82.0317 8.49564V8.07227H85.1433V8.49564L84.4361 8.91901V16.2575C84.4361 17.5276 85.0019 18.0921 85.9919 18.0921C87.1234 18.2332 87.5477 17.6687 87.5477 16.2575Z" fill="#FF543D"/>
<path d="M93.629 18.6566V19.08C92.7804 19.08 91.9318 19.08 91.2246 19.08V18.6566L91.9318 18.2332C91.9318 15.1285 91.9318 12.0238 91.9318 8.91901L91.366 8.49564V8.07227C92.2146 8.07227 92.9218 8.07227 93.629 8.07227C94.1947 8.07227 94.4776 8.21339 94.619 8.77789C95.1848 11.8826 95.6091 13.9995 95.8919 17.1042L97.3063 8.77789C97.4477 8.21339 97.5892 8.07227 98.2963 8.07227C99.1449 8.07227 99.7107 8.07227 100.559 8.07227V8.49564L99.9935 8.91901C99.9935 12.0238 99.9935 15.1285 99.9935 18.2332L100.701 18.6566V19.08C99.8521 19.08 98.5792 19.08 97.7306 19.08V18.6566L98.4378 18.2332C98.4378 15.693 98.4378 13.2939 98.4378 10.7536V9.20126L96.7405 19.08H95.4676C95.1848 19.08 95.0433 18.9389 94.9019 18.6566C94.3362 15.5519 93.9119 12.5883 93.3461 9.34239H92.9218L93.0632 11.3181C93.0632 13.5761 93.0632 15.9752 93.0632 18.2332L93.629 18.6566Z" fill="#FF543D"/>
<path d="M72.9802 111.376C73.1216 111.376 73.4045 111.376 73.5459 111.235C73.9702 111.235 74.3945 111.094 74.6774 110.953C75.3846 110.67 76.0917 110.247 76.6575 109.824C77.9304 108.836 78.779 107.283 79.0619 105.872C79.769 103.191 78.6376 100.368 77.789 97.8281C77.2232 95.9935 76.516 94.3 75.8089 92.6065C75.8089 92.4653 75.526 92.3242 75.3846 92.3242C72.273 92.3242 69.1615 92.3242 66.0499 92.3242C65.9085 92.3242 65.6256 92.4653 65.6256 92.6065C64.9184 94.4411 64.2113 96.2757 63.5041 98.1103C62.6555 100.792 61.6654 103.755 62.5141 106.578C62.9384 108.13 64.0698 109.541 65.3427 110.388C65.9085 110.812 66.7571 111.094 67.4643 111.376C67.8886 111.517 68.1714 111.517 68.5957 111.517C68.7372 111.517 68.7372 111.517 68.7372 111.517C69.7272 112.364 69.4443 114.481 69.3029 115.61C69.02 117.303 67.6057 117.444 66.1913 117.727C65.767 117.868 62.5141 118.573 63.787 119.561C64.4941 120.126 65.767 119.985 66.6156 119.985C68.1714 119.985 69.8686 119.985 71.4244 119.985C72.9802 119.985 74.3945 119.985 75.9503 119.985C76.516 119.985 77.5061 119.985 77.6475 119.279C77.9304 118.009 74.9603 117.727 74.2531 117.586C73.5459 117.444 72.8388 117.162 72.273 116.598C71.8487 116.033 71.8487 115.328 71.8487 114.622C71.8487 113.634 71.7073 112.082 72.5559 111.517C72.4144 111.517 72.9802 111.376 72.9802 111.376ZM71.9901 110.529C71.5658 110.812 71.4244 111.094 71.1415 111.517C70.5758 112.787 70.5758 114.622 71.0001 116.033C71.283 117.444 72.5559 118.291 73.9702 118.573C74.536 118.715 75.2431 118.715 75.8089 118.997C75.1017 118.997 74.2531 118.997 73.5459 118.997C71.5658 118.997 69.5858 118.997 67.4643 118.997C66.7571 118.997 66.0499 118.997 65.3427 118.997C66.0499 118.856 66.7571 118.715 67.4643 118.573C68.8786 118.291 69.8686 117.303 70.1515 115.892C70.4344 114.481 70.4344 112.787 69.8686 111.517C69.7272 111.235 69.4443 110.812 69.1615 110.67C69.02 110.529 68.8786 110.529 68.8786 110.529C68.4543 110.529 67.8886 110.388 67.4643 110.247C65.3427 109.683 63.787 107.848 63.2212 105.731C62.7969 104.038 63.2212 102.203 63.6455 100.509C64.0698 98.816 64.6356 97.1225 65.3427 95.5701C65.6256 95.0056 65.767 94.4411 66.0499 93.7355C66.0499 93.5943 66.1913 93.4532 66.1913 93.3121C69.02 93.3121 71.9901 93.3121 74.8188 93.3121V93.4532C74.9603 93.8766 75.1017 94.3 75.2431 94.5822C75.8089 95.8523 76.2332 97.1225 76.6575 98.3926C77.5061 101.215 78.6376 104.32 77.2232 107.142C76.3746 108.695 75.1017 109.824 73.4045 110.247C73.1216 110.388 72.4145 110.247 71.9901 110.529Z" fill="#FF543D"/>
<path d="M65.9084 98.1104C65.2012 100.368 64.494 102.767 64.494 104.179C64.494 106.719 66.6155 109.118 69.0199 109.118H69.4442H71.8486H72.2729C74.6773 109.118 76.7988 106.719 76.7988 104.179C76.7988 102.767 76.0916 100.368 75.3845 98.1104H65.9084Z" fill="#FF543D"/>
</g>
</svg>
