<svg width="750" height="1110" viewBox="0 0 750 1110" fill="none" xmlns="http://www.w3.org/2000/svg">
<path fill-rule="evenodd" clip-rule="evenodd" d="M750 1076.92C727.736 1079.25 698.723 1086.15 659.538 1098.5C599.498 1117.43 529.998 1114.4 478.206 1078.83C440.906 1053.19 415.702 1011.63 413.677 967.453C412.949 952.424 414.804 937.396 416.659 922.366C417.825 912.921 418.991 903.475 419.516 894.028C420.876 869.549 417.042 843.182 400.193 824.847C383.904 807.386 358.27 800.453 333.54 798.41C306.862 796.197 280.001 798.741 253.154 801.284C220.392 804.387 187.651 807.488 155.286 801.94C105.572 793.482 53.4008 765.527 26.116 724.445C-9.33203 670.875 -2.086 601.137 9.55896 540.998C23.0963 470.387 51.97 402.575 91.5233 341.233C141.916 262.747 209.583 194.806 285.635 137.712C353.202 87.0166 428.353 44.1783 510.218 20.268C582.16 -0.867336 674.133 -8.92508 750 13.0682V1076.92Z" fill="#F5F5F6"/>
</svg>
